<svg width="25" height="25" viewBox="0 0 25 25" fill="none" xmlns="http://www.w3.org/2000/svg">
<path d="M17.3172 12.1427C17.7415 11.7891 17.7988 11.1585 17.4452 10.7343C17.0917 10.31 16.4611 10.2527 16.0368 10.6062L17.3172 12.1427ZM12.6995 14.689L12.0593 15.4572C12.4302 15.7663 12.9688 15.7663 13.3397 15.4572L12.6995 14.689ZM9.36218 10.6062C8.9379 10.2527 8.30734 10.31 7.95377 10.7343C7.60021 11.1585 7.65753 11.7891 8.08181 12.1427L9.36218 10.6062ZM16.0368 10.6062L12.0593 13.9208L13.3397 15.4572L17.3172 12.1427L16.0368 10.6062ZM13.3397 13.9208L9.36218 10.6062L8.08181 12.1427L12.0593 15.4572L13.3397 13.9208ZM20.5 12.5C20.5 16.9183 16.9183 20.5 12.5 20.5V22.5C18.0228 22.5 22.5 18.0228 22.5 12.5H20.5ZM12.5 20.5C8.08172 20.5 4.5 16.9183 4.5 12.5H2.5C2.5 18.0228 6.97715 22.5 12.5 22.5V20.5ZM4.5 12.5C4.5 8.08172 8.08172 4.5 12.5 4.5V2.5C6.97715 2.5 2.5 6.97715 2.5 12.5H4.5ZM12.5 4.5C16.9183 4.5 20.5 8.08172 20.5 12.5H22.5C22.5 6.97715 18.0228 2.5 12.5 2.5V4.5Z" fill="#808080"/>
</svg>
