<svg width="142" height="191" viewBox="0 0 142 191" fill="none" xmlns="http://www.w3.org/2000/svg">
    <path d="M137.661 150.97C125.341 144.84 100.661 144.97 92.5506 144.61C73.5506 143.83 49.6606 143.71 30.6906 145.5C23.0606 146.24 8.61058 147.5 1.69058 152.86C-0.439423 154.5 0.000576198 159.28 0.220576 160.5C0.440576 161.72 0.530578 162.5 1.53058 163.32C4.00223 165.123 6.7379 166.533 9.64058 167.5C7.42058 172.32 2.30058 185.75 2.38058 186.63C2.48058 188.1 5.19058 188.63 6.28058 188.54C7.37058 188.45 7.57058 188.29 7.96058 187.41C9.17058 184.59 13.9606 172.41 15.0906 169.15C32.6906 173.15 53.5506 173.38 56.0906 173.48C55.3406 175.21 53.3706 179.61 53.3906 180C53.3906 180.7 54.3906 181.53 55.0106 181.78C55.399 181.968 55.8208 182.077 56.2516 182.101C56.6824 182.125 57.1136 182.063 57.5206 181.92C58.1406 181.57 61.5206 173.67 61.5206 173.67C61.5206 173.67 74.8306 173.96 80.7906 173.92C82.3406 177.6 87.0306 187.42 87.6706 188.72C87.7983 189.099 88.0147 189.442 88.3017 189.72C88.5887 189.998 88.938 190.204 89.3206 190.32C90.0106 190.52 92.0106 190.66 92.4706 189.89C93.2406 188.6 87.9206 177.58 86.6206 173.83C93.7806 173.72 112.011 173.3 125.011 169.95C125.721 172.62 130.831 183.42 132.241 186.23C132.671 187.1 133.141 187.23 134.241 187.09C135.111 186.98 136.491 186.53 136.411 185.48C136.331 184.43 131.411 171.42 130.161 168.56C133.378 167.622 136.445 166.231 139.271 164.43C140.271 163.75 141.381 163.07 141.611 161.84C143.061 154.21 139.701 151.98 137.661 150.97ZM1.05058 153.97C2.35058 152.27 5.39058 151.12 7.31058 150.34C13.9206 147.71 20.5206 146.94 27.5406 146.18C51.2106 143.6 106.811 144.18 126.381 147.88C130.197 148.601 133.92 149.748 137.481 151.3C143.061 153.74 141.051 158.21 139.721 159.41C135.721 163.07 123.721 165.32 120.131 166.02C101.741 169.59 45.4306 171.37 19.4506 165.45C14.8406 164.4 6.68058 161.66 4.17058 159.86C2.57058 158.69 -0.639424 156.17 1.05058 153.95V153.97ZM7.45058 187.75C6.60058 188.92 2.80058 188.07 2.78058 186.45C4.82785 180.053 7.20095 173.765 9.89058 167.61C11.4915 168.21 13.1279 168.711 14.7906 169.11C12.7706 174.5 8.00058 187.02 7.45058 187.73V187.75ZM58.1006 180.5C58.0329 180.743 57.9147 180.97 57.7536 181.165C57.5926 181.359 57.3924 181.518 57.166 181.63C56.9396 181.743 56.6921 181.806 56.4396 181.816C56.1872 181.826 55.9353 181.783 55.7006 181.69C54.8606 181.46 53.7006 180.69 53.8606 179.76C53.9606 179.19 55.8606 175.02 56.4506 173.55L61.2306 173.71C60.2806 175.57 59.0606 178.43 58.1006 180.5ZM92.1006 188.65C92.2241 188.968 92.2687 189.311 92.2306 189.65C92.0406 190.2 90.8806 190.25 90.3706 190.25C89.8038 190.267 89.2469 190.099 88.7847 189.77C88.3225 189.442 87.9804 188.971 87.8106 188.43C87.2306 187.24 82.6306 177.65 81.0506 173.98C82.8106 173.98 84.5806 173.98 86.3406 173.91C86.8406 175.23 91.9206 187.61 92.1406 188.64L92.1006 188.65ZM129.861 168.7C131.861 173.7 135.811 184.65 135.861 185.1C136.011 185.75 136.121 185.88 135.441 186.29C134.761 186.7 133.321 187.16 132.761 186.6C132.571 186.4 126.011 172.76 125.251 169.94C126.881 169.57 128.401 169.15 129.901 168.69L129.861 168.7ZM141.001 162.82C131.441 171.24 105.331 173.14 92.5706 173.47C70.9606 174.01 47.6706 172.92 43.4006 172.66C39.1306 172.4 27.1406 171.19 20.0006 169.92C15.589 169.181 11.2773 167.936 7.15058 166.21C2.45058 164.21 0.740577 162.7 0.570577 160.98C0.402276 159.386 0.358811 157.781 0.440577 156.18C1.2371 158.013 2.65314 159.507 4.44058 160.4C17.4406 167.4 34.4406 168.19 45.5306 168.92C66.8193 170.111 88.1667 169.736 109.401 167.8C118.901 166.91 130.921 164.45 137.061 161.56C139.061 160.63 141.251 159.02 141.651 156.73C141.81 157.658 141.841 158.604 141.741 159.54C141.661 160.5 141.741 162.17 141.001 162.82ZM14.2006 127.79C17.6465 133.004 19.7111 139.009 20.2006 145.24C20.2006 145.44 20.5406 145.45 20.5306 145.24C20.1557 138.928 18.0485 132.842 14.4406 127.65C14.3406 127.5 14.1106 127.64 14.2006 127.79ZM43.3906 126.02C40.0406 130.12 40.6206 135.84 43.4706 140.02C43.6206 140.23 43.9706 140.02 43.8306 139.81C41.2606 135.6 40.3406 130.31 43.5706 126.16C43.6706 126.07 43.4906 125.89 43.3906 126.02ZM85.4306 96.34C87.8565 103.08 89.1441 110.177 89.2406 117.34C89.2406 117.388 89.2595 117.434 89.2933 117.467C89.3271 117.501 89.3728 117.52 89.4206 117.52C89.4683 117.52 89.5141 117.501 89.5479 117.467C89.5816 117.434 89.6006 117.388 89.6006 117.34C89.5611 110.141 88.23 103.008 85.6706 96.28C85.6206 96.13 85.3806 96.19 85.4306 96.34ZM105.191 109.57C99.2906 117.01 98.8406 126.76 99.0206 135.85C99.0206 135.898 99.0395 135.944 99.0733 135.977C99.1071 136.011 99.1528 136.03 99.2006 136.03C99.2483 136.03 99.2941 136.011 99.3279 135.977C99.3616 135.944 99.3806 135.898 99.3806 135.85C99.4506 126.85 99.6006 117.17 105.381 109.76C105.491 109.62 105.301 109.42 105.191 109.57ZM89.3206 17.6C89.2367 17.4825 89.1244 17.3883 88.994 17.3262C88.8637 17.2641 88.7197 17.2363 88.5756 17.2453C88.4315 17.2543 88.2921 17.2999 88.1705 17.3777C88.0489 17.4555 87.9491 17.563 87.8806 17.69C87.8206 17.78 87.9706 17.9 88.0406 17.81C88.1079 17.725 88.1923 17.6549 88.2883 17.6043C88.3842 17.5537 88.4897 17.5237 88.5979 17.5161C88.7062 17.5086 88.8148 17.5237 88.9168 17.5606C89.0189 17.5974 89.1121 17.6551 89.1906 17.73C89.2088 17.7373 89.2287 17.7391 89.2478 17.7351C89.267 17.7312 89.2846 17.7217 89.2985 17.7079C89.3123 17.694 89.3218 17.6764 89.3257 17.6573C89.3296 17.6381 89.3279 17.6182 89.3206 17.6ZM91.2506 17.95C91.3386 17.8811 91.4437 17.8373 91.5546 17.8232C91.6655 17.8091 91.7781 17.8253 91.8806 17.87C92.0806 17.96 92.1406 18.13 92.2506 18.32C92.2663 18.3461 92.29 18.3664 92.3182 18.3777C92.3464 18.3891 92.3776 18.391 92.407 18.3831C92.4364 18.3752 92.4624 18.3579 92.4811 18.3339C92.4998 18.3099 92.5101 18.2804 92.5106 18.25C92.4982 18.0967 92.4414 17.9504 92.347 17.8289C92.2527 17.7075 92.125 17.6162 91.9795 17.5663C91.834 17.5164 91.6772 17.5101 91.5282 17.548C91.3792 17.586 91.2444 17.6666 91.1406 17.78C91.0006 17.86 91.1506 18.03 91.2506 17.95ZM90.4806 20.5C90.2906 20.43 89.5906 20.44 89.4806 20.34C89.3706 20.24 89.8106 18.91 89.8606 18.44C89.8606 18.32 89.6906 18.31 89.6606 18.44C89.5452 18.8049 89.4485 19.1753 89.3706 19.55C89.2006 20.29 88.8206 20.86 90.3706 20.73C90.4011 20.7446 90.4361 20.7465 90.468 20.7352C90.4999 20.724 90.526 20.7005 90.5406 20.67C90.5552 20.6395 90.557 20.6045 90.5458 20.5726C90.5345 20.5407 90.5111 20.5146 90.4806 20.5ZM91.6306 22.78C91.6974 22.9009 91.7924 23.0039 91.9074 23.0803C92.0225 23.1567 92.1543 23.2043 92.2916 23.219C92.4289 23.2337 92.5678 23.2151 92.6964 23.1648C92.825 23.1145 92.9397 23.034 93.0306 22.93C93.1734 22.6453 93.2322 22.3258 93.2004 22.0089C93.1685 21.6919 93.0472 21.3906 92.8506 21.14C92.7806 21.04 92.5606 21.05 92.5906 21.21C92.6259 21.4312 92.597 21.658 92.5072 21.8632C92.4174 22.0685 92.2706 22.2437 92.0842 22.3679C91.8978 22.4922 91.6796 22.5604 91.4556 22.5643C91.2316 22.5682 91.0112 22.5077 90.8206 22.39C90.8114 22.3841 90.8011 22.38 90.7904 22.3781C90.7796 22.3762 90.7686 22.3764 90.7579 22.3787C90.7472 22.381 90.7371 22.3854 90.7281 22.3916C90.7191 22.3979 90.7115 22.4058 90.7056 22.415C90.6997 22.4242 90.6956 22.4345 90.6937 22.4452C90.6917 22.456 90.6919 22.467 90.6943 22.4777C90.6966 22.4884 90.701 22.4985 90.7072 22.5075C90.7134 22.5164 90.7214 22.5241 90.7306 22.53C90.9928 22.7147 91.3107 22.803 91.6306 22.78ZM92.8406 21.72C93.2506 22.92 92.2706 23.22 91.9006 22.72C92.1314 22.6507 92.3398 22.5218 92.5048 22.3462C92.6699 22.1706 92.7857 21.9546 92.8406 21.72ZM37.2406 57.72C36.9943 57.7158 36.7507 57.7719 36.5311 57.8835C36.3115 57.9951 36.1225 58.1586 35.9806 58.36C35.8906 58.46 36.0406 58.62 36.1306 58.51C36.4254 58.1769 36.8299 57.9605 37.2706 57.9C37.2944 57.896 37.3158 57.8827 37.3298 57.863C37.3439 57.8433 37.3496 57.8189 37.3456 57.795C37.3416 57.7711 37.3283 57.7498 37.3086 57.7358C37.2889 57.7217 37.2644 57.716 37.2406 57.72ZM40.7406 57.08C41.2306 56.67 41.5406 57.16 41.6606 57.27C41.6809 57.289 41.7077 57.2995 41.7356 57.2995C41.7634 57.2995 41.7902 57.289 41.8106 57.27C41.9006 57.17 41.7206 56.76 41.3406 56.68C41.2039 56.6511 41.0622 56.658 40.929 56.7001C40.7958 56.7421 40.6758 56.8179 40.5806 56.92C40.5594 56.9412 40.5474 56.97 40.5474 57C40.5474 57.03 40.5594 57.0588 40.5806 57.08C40.6018 57.1012 40.6306 57.1131 40.6606 57.1131C40.6906 57.1131 40.7194 57.1012 40.7406 57.08ZM39.9106 58.91C39.768 58.9301 39.6232 58.9301 39.4806 58.91C39.3806 58.91 39.2706 59.03 39.3706 59.11C39.4867 59.2001 39.6243 59.2585 39.7697 59.2795C39.9152 59.3005 40.0637 59.2835 40.2006 59.23C40.2392 59.2145 40.2713 59.1861 40.2913 59.1497C40.3114 59.1132 40.3182 59.0709 40.3106 59.03C40.0051 58.483 39.6714 57.9522 39.3106 57.44C39.2973 57.4188 39.2762 57.4037 39.2518 57.3981C39.2274 57.3924 39.2018 57.3967 39.1806 57.41C39.1594 57.4233 39.1443 57.4444 39.1387 57.4688C39.133 57.4932 39.1373 57.5188 39.1506 57.54C39.3763 58.0115 39.6301 58.4689 39.9106 58.91ZM39.0006 61.37C39.3706 61.44 39.7306 61.06 39.6406 60.77C39.9254 60.7385 40.1957 60.6276 40.4206 60.45C40.4431 60.4354 40.4589 60.4125 40.4646 60.3862C40.4702 60.36 40.4652 60.3325 40.4506 60.31C40.436 60.2875 40.413 60.2716 40.3868 60.266C40.3605 60.2604 40.3331 60.2654 40.3106 60.28C40.0274 60.459 39.696 60.5464 39.3614 60.5303C39.0268 60.5141 38.7053 60.3953 38.4406 60.19C38.4247 60.1622 38.3983 60.1418 38.3674 60.1333C38.3365 60.1249 38.3034 60.1291 38.2756 60.145C38.2477 60.1609 38.2273 60.1872 38.2189 60.2182C38.2105 60.2491 38.2147 60.2822 38.2306 60.31C38.3306 60.73 38.4906 61.27 39.0006 61.37ZM39.4506 60.78C39.2906 61.28 38.8006 61.21 38.5806 60.56C38.8432 60.7069 39.1397 60.7827 39.4406 60.78H39.4506Z" fill="#728594"/>
    <path d="M64.5805 53.77C64.5413 53.687 64.4718 53.6221 64.3863 53.5887C64.3008 53.5552 64.2057 53.5557 64.1205 53.59C64.1205 53.52 64.6705 52.59 64.3605 52.38C64.3088 52.3502 64.2502 52.3345 64.1905 52.3345C64.1308 52.3345 64.0722 52.3502 64.0205 52.38C64.1605 52.05 64.2305 51.71 64.0205 51.55C63.9416 51.4966 63.8464 51.4723 63.7515 51.4815C63.6566 51.4906 63.5679 51.5325 63.5005 51.6C63.5605 51.39 63.5805 50.82 63.3705 50.81C62.8505 50.81 62.5405 51.52 62.3105 51.89C62.0805 52.26 61.9305 52.89 61.6405 52.66C61.3505 52.43 60.5505 51.9 60.2005 52.04C59.5305 52.3 60.3505 54.87 60.3405 54.89C59.9005 55.12 59.7605 55.89 59.7305 56.32C58.0905 56.13 57.2505 58.03 54.5005 61.96C51.7505 65.89 46.7605 67.04 42.2805 66.4C42.3012 66.294 42.2982 66.1847 42.2715 66.08C42.2449 65.9753 42.1953 65.8778 42.1265 65.7946C42.0576 65.7113 41.9711 65.6444 41.8732 65.5987C41.7754 65.5529 41.6686 65.5295 41.5605 65.53C41.4044 64.7762 41.3173 64.0097 41.3005 63.24C41.3005 62.85 41.3005 62.9 41.8505 62.61C42.1113 62.4975 42.3472 62.3343 42.5446 62.1301C42.742 61.9258 42.8969 61.6845 43.0005 61.42C43.4891 59.608 43.4579 57.6951 42.9105 55.9C43.0725 55.3748 43.1863 54.8359 43.2505 54.29C43.4805 54.4 43.4805 54.18 43.5105 54.1C43.6998 53.1615 43.5169 52.1862 43.0005 51.38C42.6385 50.9512 42.1412 50.6585 41.5905 50.55C40.98 49.3238 39.9176 48.3823 38.627 47.9235C37.3363 47.4646 35.918 47.5243 34.6705 48.09C32.3405 49.27 29.9505 51.99 31.3005 54.66C30.8205 55.36 30.3705 56.21 30.6205 56.84C30.7419 57.1945 30.9892 57.4922 31.3154 57.6765C31.6417 57.8608 32.0242 57.919 32.3905 57.84C32.2017 58.1522 32.1019 58.5101 32.1019 58.875C32.1019 59.2399 32.2017 59.5978 32.3905 59.91C33.1505 60.97 33.8905 60.61 33.8905 60.61C33.9905 62.13 35.3705 62.92 36.8205 63.06C36.8205 63.06 36.4005 64.74 36.2205 65.22C35.9305 64.96 35.3205 65.22 35.2205 65.7C32.5588 65.5525 29.9932 64.6546 27.8205 63.11C24.5005 60.85 25.0005 57.84 22.1905 50.4C22.1044 50.0797 21.9546 49.7801 21.7502 49.5189C21.5457 49.2578 21.2908 49.0405 21.0005 48.88C21.0005 48.36 20.0905 48.07 20.0005 48.05C20.5105 47.52 21.8705 46.35 21.2505 45.98C20.8705 45.76 20.2505 46.48 20.2505 46.04C20.2505 45.32 20.0305 44.31 19.8005 44.34C19.5705 44.37 19.4605 44.58 19.3805 44.77C19.1905 43.85 18.6405 44.11 18.5405 44.9C18.4205 44.54 18.2405 44.24 17.9705 44.29C17.7005 44.34 17.5905 44.91 17.6305 45.42C17.5205 45.26 17.3005 44.99 17.0905 45.16C16.8805 45.33 17.0305 45.92 17.0905 46.25C17.1781 46.9492 17.3916 47.6268 17.7205 48.25C17.4838 48.4608 17.3045 48.7283 17.1995 49.0275C17.0946 49.3266 17.0674 49.6475 17.1205 49.96C16.1205 51.72 16.2805 55.96 16.2405 58.06C16.0705 65.75 18.5805 73.5 25.7005 76.5C25.0782 78.8702 24.3339 81.2066 23.4705 83.5C23.1974 84.2032 23.1109 84.9651 23.2196 85.7116C23.3282 86.4582 23.6283 87.1638 24.0905 87.76C23.0305 88.36 23.2005 89.08 23.7605 89.76C21.1465 93.1775 19.6548 97.3206 19.4905 101.62C19.6556 104.286 19.6122 106.961 19.3605 109.62C19.3605 109.76 19.1205 109.76 19.1305 109.62C19.2955 107.42 19.2955 105.21 19.1305 103.01C15.402 100.35 11.891 97.397 8.63052 94.18C8.24258 94.358 7.86528 94.5584 7.50052 94.78C7.04052 94.39 6.59052 94 6.15052 93.59C6.21052 93.2 4.60052 91.81 4.41052 91.76C4.24862 91.7437 4.08509 91.761 3.9302 91.8109C3.77532 91.8608 3.63243 91.9422 3.51052 92.05C2.26039 92.9833 1.13756 94.0758 0.170521 95.3C0.090521 95.52 0.32052 95.77 0.55052 95.81C1.70782 95.7384 2.85984 95.5982 4.00052 95.39C4.26052 95.91 4.49052 96.46 4.75052 96.99C4.46052 97.31 4.21052 97.61 4.01052 97.88C6.80052 105.65 15.4505 117.76 20.0805 118.44C21.3113 118.67 22.581 118.57 23.7605 118.15C27.8405 116.63 32.3105 106.15 32.3105 106.15C33.408 104.219 34.3703 102.214 35.1905 100.15C35.2016 100.123 35.222 100.101 35.248 100.089C35.2739 100.076 35.3036 100.073 35.3316 100.08C35.3596 100.087 35.3841 100.104 35.4004 100.128C35.4167 100.152 35.4239 100.181 35.4205 100.21C34.7905 102.46 33.4205 104.38 32.4205 106.49C32.7093 107.336 33.0846 108.151 33.5405 108.92C34.7422 110.773 36.2269 112.427 37.9405 113.82C38.0905 113.92 37.9405 114.16 37.8005 114.06C36.9372 113.481 36.1392 112.811 35.4205 112.06C31.7005 116.24 28.1505 120.497 24.7705 124.83C25.0505 125.19 25.3505 125.57 25.6705 125.95C25.3605 126.33 25.0205 126.69 24.7405 127.08C24.1511 127.658 23.6187 128.29 23.1505 128.97C23.0705 129.69 26.6805 132.73 26.9005 132.78C27.01 132.81 27.1261 132.806 27.2332 132.768C27.3404 132.731 27.4336 132.662 27.5005 132.57C27.7905 132.01 26.9505 130.39 26.8205 129.27C27.1505 128.95 27.4705 128.62 27.8205 128.27L28.6005 129.05C30.2305 128.13 46.3705 118.9 47.9105 116.05C50.1605 111.86 46.2205 96.96 46.2205 96.96C46.2205 96.96 47.9705 96.9 47.2205 95.1C48.3505 94.47 48.6105 91.24 48.7105 89.54C48.9105 86.05 48.9105 82.54 48.8305 79.05C54.6915 75.0554 59.2199 69.3949 61.8305 62.8C62.4405 61.18 63.3805 59.4 62.4005 57.96C62.9605 57.59 63.5805 56.96 63.4005 56.41C63.3085 56.1613 63.1535 55.9407 62.9505 55.77C63.5405 55.44 64.8705 54.38 64.5805 53.77ZM5.14052 96.62C4.87052 96.11 4.58052 95.62 4.26052 95.12V95.05C4.25584 94.8498 4.29577 94.651 4.37743 94.4681C4.45909 94.2852 4.58043 94.1227 4.73265 93.9925C4.88486 93.8623 5.06415 93.7676 5.2575 93.7153C5.45085 93.663 5.65342 93.6544 5.85052 93.69C6.26791 94.1457 6.7085 94.5796 7.17052 94.99C6.4358 95.4568 5.75499 96.0035 5.14052 96.62ZM26.6705 128.93C26.2712 128.935 25.8843 128.791 25.585 128.527C25.2856 128.263 25.0951 127.897 25.0505 127.5C25.3305 127.07 25.6605 126.68 25.9705 126.27C26.2305 126.57 27.3405 127.8 27.6205 128.08C26.6905 128.84 26.6705 129.03 26.6705 128.93ZM34.8505 48.33C37.3905 47.07 39.9005 48.21 41.3305 50.47C39.629 50.1659 37.8778 50.3031 36.2444 50.8686C34.611 51.4341 33.1498 52.4089 32.0005 53.7C31.8505 53.89 31.6405 54.14 31.4305 54.43C30.3105 51.93 32.6705 49.42 34.8505 48.33ZM32.3405 57.24C31.7905 57.65 30.3405 56.88 31.3405 55.24C32.055 54.0698 33.0104 53.065 34.1432 52.2926C35.276 51.5202 36.5602 50.9977 37.9105 50.76C39.3205 50.48 41.6105 50.27 42.6805 51.45C42.9981 51.8017 43.2172 52.2311 43.3155 52.6947C43.4139 53.1583 43.388 53.6396 43.2405 54.09C40.6705 53.09 37.5205 52.86 35.1705 54.33C34.1271 55.1973 33.1784 56.1728 32.3405 57.24ZM37.0005 63.03C37.0005 63.03 37.0005 62.91 36.9305 62.9C36.2419 62.8644 35.5849 62.6002 35.0633 62.1492C34.5416 61.6982 34.1853 61.0862 34.0505 60.41C33.7092 60.3216 33.375 60.2079 33.0505 60.07C32.8731 59.9478 32.7238 59.7889 32.6128 59.6042C32.5018 59.4195 32.4317 59.2132 32.407 58.9991C32.3824 58.785 32.4039 58.5681 32.47 58.363C32.5362 58.1579 32.6455 57.9694 32.7905 57.81C32.9005 58.43 33.2705 58.81 33.7105 58.81C34.1505 58.81 34.1405 57.92 34.1405 57.74C34.9105 57.4274 35.5735 56.8983 36.0491 56.2168C36.5247 55.5353 36.7927 54.7306 36.8205 53.9C37.4711 54.4976 38.2516 54.9358 39.1005 55.18C40.2442 55.6109 41.4424 55.8802 42.6605 55.98C43.1805 58.34 43.6605 62.06 41.2105 62.67C41.1831 62.6749 41.1586 62.69 41.1419 62.7123C41.1252 62.7346 41.1176 62.7623 41.1205 62.79C41.0748 63.7338 41.1351 64.6797 41.3005 65.61C41.0605 65.61 40.3005 66.45 39.5705 66.61C38.9898 66.7016 38.3952 66.641 37.8449 66.4342C37.2945 66.2274 36.8072 65.8814 36.4305 65.43C36.6784 64.6449 36.8689 63.8428 37.0005 63.03ZM36.2505 65.59C37.5105 66.74 39.2505 67.37 40.6405 66.42C40.9905 66.16 41.4605 65.72 41.6405 65.79C41.8205 65.86 42.1305 66.15 41.9805 66.71C41.4505 68.6 38.9805 68.52 37.4005 68.03C37.0149 67.9525 36.6529 67.7853 36.3437 67.5422C36.0345 67.299 35.7868 66.9865 35.6205 66.63C35.5105 66.2 35.6005 64.96 36.2805 65.59H36.2505ZM17.2505 45.96C17.1205 45.07 17.4205 45.35 17.6905 46.31C17.6983 46.3372 17.7147 46.3611 17.7372 46.3781C17.7598 46.3951 17.7873 46.4043 17.8155 46.4043C17.8438 46.4043 17.8713 46.3951 17.8938 46.3781C17.9164 46.3611 17.9328 46.3372 17.9405 46.31C17.9405 46 17.7305 44.97 18.0005 44.84C18.2705 44.71 18.4405 45.84 18.5205 46.1C18.5316 46.1267 18.552 46.1486 18.578 46.1614C18.6039 46.1743 18.6336 46.1774 18.6616 46.1701C18.6896 46.1628 18.7141 46.1456 18.7304 46.1217C18.7467 46.0978 18.7539 46.0688 18.7505 46.04C18.7505 45.93 18.6605 44.37 19.0405 44.87C19.1586 45.2075 19.2194 45.5624 19.2205 45.92C19.2205 46.11 19.4805 46.07 19.4805 45.92C19.4805 45.54 19.5505 44.34 19.9205 45.03C19.995 45.4692 20.0218 45.9151 20.0005 46.36C20.0005 46.84 21.2305 45.76 21.0005 46.56C20.9505 46.77 20.3605 47.19 20.2305 47.34L19.6605 47.98C19.0656 47.8021 18.4265 47.8447 17.8605 48.1C17.5303 47.4284 17.3205 46.7041 17.2405 45.96H17.2505ZM18.8205 48.22C19.2805 48.22 20.4305 48.29 20.6905 48.78C20.0992 48.6464 19.4847 48.6547 18.8973 48.8041C18.3098 48.9536 17.766 49.24 17.3105 49.64C17.3116 49.447 17.3518 49.2563 17.4286 49.0792C17.5054 48.9022 17.6173 48.7425 17.7574 48.6098C17.8976 48.4771 18.0631 48.3742 18.2441 48.3072C18.4251 48.2402 18.6178 48.2106 18.8105 48.22H18.8205ZM44.4905 96.86C41.0005 96.64 35.0005 95.04 28.7405 92.5C25.3605 91.14 22.4105 89 24.2305 87.96C25.5609 89.3207 27.1621 90.387 28.9305 91.09C30.9915 92.0331 33.1128 92.8382 35.2805 93.5C37.8205 94.28 44.9605 96.43 47.0305 95.38C47.7305 97 45.1305 96.9 44.4805 96.86H44.4905ZM62.1905 61.21C60.0605 67.5 56.7605 72.79 48.8805 78.9C48.8205 76.56 48.7305 74.26 48.6205 71.9C48.6205 71.73 48.3505 71.72 48.3605 71.9C48.5005 76.2 48.6605 80.5 48.6105 84.8C48.6105 86.91 48.9305 94.12 46.6105 95.05C44.0905 96.05 31.3905 92.6 26.4705 89.46C23.1405 87.33 22.9305 85.53 23.7305 83.32C24.5605 81.1072 25.2682 78.8505 25.8505 76.56C27.0682 77.0291 28.3563 77.2895 29.6605 77.33C29.6853 77.3226 29.707 77.3074 29.7225 77.2867C29.7379 77.266 29.7462 77.2409 29.7462 77.215C29.7462 77.1892 29.7379 77.164 29.7225 77.1433C29.707 77.1226 29.6853 77.1074 29.6605 77.1C28.3434 76.9549 27.0417 76.6939 25.7705 76.32C19.2505 73.78 16.4605 65.55 16.4805 58.79C16.4805 56.72 16.5805 54.63 16.7405 52.57C16.8305 51.34 17.0105 49.87 18.2705 49.29C18.5806 49.1201 18.9226 49.0165 19.2749 48.9858C19.6271 48.9551 19.9819 48.998 20.3167 49.1118C20.6515 49.2256 20.959 49.4078 21.2196 49.6468C21.4802 49.8857 21.6882 50.1763 21.8305 50.5C24.0605 56.1 24.1805 59.13 25.3705 60.98C28.1205 65.24 33.1905 65.86 35.2105 65.87C35.0005 67.39 36.8105 68.2 38.0005 68.42C39.6705 68.72 41.9405 68.55 42.2405 66.62C45.6181 67.2117 49.0951 66.5312 52.0005 64.71C53.3755 63.7576 54.5285 62.5194 55.3805 61.08C55.9505 60.21 58.4905 56.21 59.9605 56.66C60.5006 56.8388 61.0025 57.1169 61.4405 57.48C62.7405 58.5 62.6605 59.78 62.1805 61.21H62.1905ZM63.0705 56.39C63.3305 57.03 62.7505 57.68 62.3605 57.9C61.7554 57.1192 60.9015 56.5687 59.9405 56.34C59.9405 55.69 60.2105 55.13 60.9405 55.13C61.3676 55.1605 61.7816 55.2903 62.1497 55.509C62.5177 55.7278 62.8296 56.0294 63.0605 56.39H63.0705ZM62.8805 55.72C62.2557 55.1355 61.436 54.8041 60.5805 54.79C60.5805 54.21 60.2505 53.46 60.2405 52.89C60.2405 51.56 61.8005 53.33 62.0205 52.98C62.192 52.4846 62.4455 52.0214 62.7705 51.61C62.8905 51.48 63.1305 51.18 63.2305 51.61C63.1161 52.0125 62.9585 52.4014 62.7605 52.77C62.7473 52.7939 62.744 52.822 62.7515 52.8483C62.759 52.8745 62.7767 52.8967 62.8005 52.91C62.8244 52.9233 62.8525 52.9265 62.8788 52.919C62.9051 52.9115 62.9273 52.8939 62.9405 52.87C62.9405 52.87 63.3705 52.04 63.4405 51.87C63.7305 51.46 63.9705 51.73 63.7605 52.25C63.6359 52.5926 63.4889 52.9267 63.3205 53.25C63.3073 53.2739 63.304 53.302 63.3115 53.3283C63.319 53.3545 63.3367 53.3767 63.3605 53.39C63.3844 53.4033 63.4126 53.4065 63.4388 53.399C63.4651 53.3915 63.4873 53.3739 63.5005 53.35C63.5705 53.24 64.1405 52.35 64.2805 52.63C64.4205 52.91 63.7405 53.86 63.6305 54.05C63.5205 54.24 63.6305 54.19 63.7305 54.12C63.8305 54.05 64.2805 53.49 64.3505 54.01C64.4205 54.53 63.0505 55.55 62.8705 55.72H62.8805ZM122.001 26.59C122.415 26.5221 122.794 26.3145 123.074 26.0016C123.354 25.6887 123.519 25.2894 123.541 24.87C130.001 26.72 131.811 17.57 126.981 13.42C127.121 14.67 127.101 16.3 126.081 17.24C124.901 18.34 123.241 17.66 122.171 18.76C121.631 19.3 121.171 20.37 121.621 22.7C121.398 22.6851 121.176 22.7142 120.965 22.7856C120.754 22.857 120.56 22.9693 120.392 23.1161C120.225 23.2629 120.088 23.4413 119.99 23.641C119.892 23.8408 119.835 24.0579 119.821 24.28C119.462 24.1583 119.083 24.1126 118.706 24.1459C118.329 24.1791 117.964 24.2906 117.632 24.4732C117.301 24.6557 117.012 24.9054 116.782 25.2062C116.553 25.5069 116.389 25.8522 116.301 26.22C115.885 26.0429 115.433 25.9703 114.983 26.0087C114.533 26.047 114.1 26.1951 113.721 26.44C115.717 23.2387 117.214 19.7521 118.161 16.1C118.801 13.84 119.691 11.42 119.651 9.04C119.651 8.22 119.551 7.26 118.901 6.82C118.989 6.74091 119.056 6.64186 119.098 6.53115C119.14 6.42045 119.155 6.30133 119.141 6.18378C119.127 6.06623 119.086 5.95369 119.019 5.85559C118.953 5.75749 118.864 5.6767 118.761 5.62C119.251 5.13 121.171 3.36 120.761 2.77C120.571 2.52 120.261 2.61 119.951 2.77C120.291 2.14 120.571 1.4 120.101 1.21C119.791 1.09 119.401 1.43 119.101 1.86C119.291 1.24 119.391 0.61 119.011 0.49C118.631 0.37 118.231 0.95 117.921 1.56C117.989 1.22421 117.954 0.875638 117.821 0.56C117.806 0.534545 117.783 0.514763 117.756 0.503871C117.729 0.492978 117.699 0.491614 117.671 0.5C116.601 0.69 116.401 3.07 116.301 3.1C116.201 3.13 116.021 2.65 115.701 2.5C114.361 1.86 115.771 4.43 116.061 4.93C115.451 5.03 115.011 5.52 115.291 6.63C114.372 6.92031 113.602 7.55456 113.141 8.4C109.601 14.18 109.391 16.75 108.321 18.4C107.541 19.64 105.831 20.73 104.321 21.75C104.591 20.45 103.251 19.75 101.901 20.08C102.426 18.1298 102.334 16.0643 101.635 14.169C100.936 12.2738 99.6664 10.6423 98.0005 9.5C96.4305 8.38 94.9005 7.95 93.4805 9.24C88.9805 5.82 83.3605 13 87.2705 16.52C86.8629 17.7215 86.741 19.0014 86.9146 20.2582C87.0882 21.515 87.5525 22.714 88.2705 23.76C88.9724 24.5562 89.9457 25.0624 91.0005 25.18C90.6071 26.6226 89.986 27.9932 89.1605 29.24C89.0905 28.78 87.7305 29.24 87.5505 29.24C86.6905 29.36 86.1605 30.29 85.8905 30.94C80.6805 34.78 80.1105 36.04 77.7205 38.12C76.0005 39.61 72.9205 36.95 71.2705 36.12C69.8661 35.3429 68.2855 34.94 66.6805 34.95C65.9889 34.93 65.3028 35.0775 64.6805 35.38C64.5599 35.0719 64.334 34.8164 64.0429 34.659C63.7519 34.5016 63.4144 34.4523 63.0905 34.52C63.0205 32.52 63.0105 32.27 62.8105 32.11C62.7881 32.0958 62.7621 32.0882 62.7355 32.0882C62.709 32.0882 62.683 32.0958 62.6605 32.11C62.2405 32.28 62.0905 33.03 61.9205 33.48C60.9205 32.56 60.5405 31.96 60.1905 32.16C59.8405 32.36 60.0305 32.77 60.2505 33.16C59.6905 32.74 59.0105 32.35 58.7005 32.71C58.3905 33.07 58.8505 33.49 59.3305 33.88C58.7905 33.7 58.2405 33.63 58.1305 34C58.0205 34.37 58.4905 34.69 58.9905 34.93C58.5405 34.93 58.1605 35 58.2505 35.38C58.3405 35.76 59.0805 36 59.3705 36.13C59.9875 36.3982 60.6484 36.5507 61.3205 36.58C61.2123 36.7425 61.1541 36.9332 61.153 37.1284C61.1518 37.3237 61.2079 37.515 61.3143 37.6787C61.4206 37.8425 61.5725 37.9716 61.7514 38.05C61.9302 38.1284 62.128 38.1527 62.3205 38.12C62.2312 38.7774 62.3996 39.4439 62.7905 39.98C64.9205 43.07 70.2805 45.98 72.2605 47.16C74.124 48.0582 76.2125 48.3819 78.2605 48.09C79.8431 47.9988 81.4018 47.6614 82.8805 47.09C82.7805 48.6 82.7305 49.91 82.7005 50.98C81.9705 77.05 81.8105 82.38 95.8205 92.39C100.187 95.4897 105.04 97.8387 110.181 99.34L110.751 98.04C111.651 98.1201 112.544 98.2705 113.421 98.49C113.801 99.4171 114.331 100.275 114.991 101.03C115.056 101.093 115.14 101.132 115.231 101.143C115.321 101.154 115.412 101.135 115.491 101.09C115.831 100.83 115.981 96.09 115.681 95.85C115.116 95.7809 114.545 95.7809 113.981 95.85C113.365 95.5115 112.791 95.102 112.271 94.63L112.611 93.86C108.201 89.46 102.071 85.11 100.131 81.97C98.0005 78.53 96.8605 72.89 96.3905 71.97C98.6105 76.97 102.301 82.24 109.451 84.77C111.761 85.59 116.631 86.6 120.391 76.24C122.311 70.95 123.891 66.24 125.191 62.24L124.071 61.5C124.251 60.59 124.461 59.69 124.721 58.8C125.617 58.3692 126.462 57.8392 127.241 57.22C127.289 57.1703 127.323 57.1082 127.339 57.0406C127.354 56.973 127.351 56.9024 127.329 56.8364C127.308 56.7705 127.268 56.7117 127.216 56.6665C127.163 56.6213 127.099 56.5914 127.031 56.58C125.372 56.353 123.689 56.353 122.031 56.58C121.948 57.1604 121.948 57.7496 122.031 58.33C121.724 58.8539 121.39 59.3613 121.031 59.85L119.721 59.13C118.261 61.3 112.721 69.88 111.451 71.9C110.101 69.19 105.861 59.38 105.131 57.49C105.662 50.3598 105.819 43.2066 105.601 36.06C105.601 34.21 106.061 34.28 107.601 32.96C108.141 36.15 111.401 34.77 113.091 32.09C115.091 33.46 117.191 31.78 117.031 29.52C119.201 30.5 121.421 29.08 122.001 26.59ZM121.641 23.18C121.851 23.25 123.301 24.38 123.291 25.05C123.278 25.1965 123.236 25.3391 123.168 25.4693C123.099 25.5994 123.006 25.7145 122.892 25.8077C122.778 25.901 122.647 25.9704 122.506 26.0121C122.365 26.0537 122.217 26.0666 122.071 26.05C121.323 25.6066 120.698 24.9846 120.251 24.24C120.223 24.061 120.244 23.8779 120.312 23.7101C120.381 23.5423 120.493 23.3962 120.638 23.2874C120.783 23.1785 120.954 23.1111 121.134 23.0921C121.314 23.0732 121.496 23.1036 121.661 23.18H121.641ZM61.4705 36.4C60.5922 36.2908 59.7297 36.0794 58.9005 35.77C58.4305 35.54 58.5405 35.25 58.6905 35.21C59.177 35.1944 59.6629 35.2552 60.1305 35.39C60.2805 35.39 60.3405 35.2 60.2005 35.16C59.9005 35.09 58.6705 34.79 58.5605 34.34C58.3905 33.66 60.2005 34.57 60.3405 34.65C60.4805 34.73 60.5805 34.52 60.4705 34.44C60.1505 34.23 59.0905 33.58 59.1705 33.13C59.2505 32.68 59.7105 33.19 59.9505 33.34C60.8405 33.95 60.8905 34.22 61.0505 34.03C61.2105 33.84 60.7705 33.75 60.5105 32.94C60.4305 32.62 60.3405 32.51 60.7105 32.73C61.3205 33.1 61.9405 34.26 62.1605 33.85C62.3805 33.44 62.5105 32.69 62.7405 32.85C62.8601 33.4759 62.8904 34.1156 62.8305 34.75C62.4963 34.9279 62.2113 35.1855 62.0005 35.5C61.798 35.784 61.6207 36.0852 61.4705 36.4ZM61.5605 37.5C61.5678 36.7176 61.8715 35.9671 62.4105 35.4C62.5242 35.2111 62.6881 35.0574 62.8839 34.9562C63.0798 34.855 63.3 34.8102 63.5198 34.8267C63.7397 34.8433 63.9506 34.9207 64.1291 35.0502C64.3075 35.1796 64.4465 35.3561 64.5305 35.56C64.0176 35.771 63.5593 36.0957 63.1903 36.5098C62.8214 36.9238 62.5513 37.4163 62.4005 37.95C62.2303 37.9802 62.0549 37.9522 61.9025 37.8706C61.7502 37.7889 61.6297 37.6584 61.5605 37.5ZM82.9405 46.85C77.2005 48.48 73.9405 47.85 72.6405 47.13C71.6405 46.59 70.6405 45.95 69.6405 45.33C67.5793 44.04 65.6382 42.5674 63.8405 40.93C61.0405 38.25 63.2805 35.4 66.6305 35.28C70.9005 35.11 74.6305 39.41 77.1105 38.84C78.2105 38.58 80.2405 35.93 81.1105 35.15C82.5805 33.83 85.6905 31.38 85.6905 31.38C84.2358 36.4264 83.3141 41.6114 82.9405 46.85ZM86.3305 42.01C86.0584 42.0538 85.7795 42.0017 85.5415 41.8627C85.3034 41.7237 85.1211 41.5064 85.0254 41.2479C84.9298 40.9894 84.9269 40.7057 85.0172 40.4453C85.1075 40.1849 85.2854 39.9638 85.5205 39.82C85.7527 39.6627 86.0378 39.6038 86.3134 39.6563C86.5889 39.7088 86.8324 39.8683 86.9905 40.1C87.0876 40.2657 87.1477 40.4504 87.1666 40.6414C87.1855 40.8325 87.1629 41.0254 87.1002 41.2069C87.0374 41.3884 86.9362 41.5542 86.8033 41.6928C86.6705 41.8314 86.5092 41.9396 86.3305 42.01ZM112.161 95.01C112.687 95.5387 113.299 95.9748 113.971 96.3C114.116 96.6227 114.15 96.9849 114.067 97.3291C113.984 97.6732 113.788 97.9798 113.511 98.2C112.674 97.9746 111.822 97.8141 110.961 97.72C111.351 96.81 111.751 95.9 112.161 95V95.01ZM122.651 58.21C122.954 58.0615 123.3 58.0284 123.626 58.1167C123.952 58.205 124.234 58.4088 124.421 58.69C124.421 58.69 123.881 60.49 123.721 61.35L121.371 60.05C121.754 59.4046 122.182 58.7865 122.651 58.2V58.21ZM115.461 2.78C115.851 2.7 115.971 3.09 116.251 3.34C116.311 3.4 116.451 3.34 116.441 3.27C116.474 2.642 116.666 2.03282 117.001 1.5C117.121 1.27 117.381 0.79 117.591 1.06C117.801 1.33 117.441 2.37 117.361 2.71C117.361 2.87 117.561 2.94 117.601 2.78C117.641 2.62 118.441 0.71 118.801 0.92C119.161 1.13 118.411 2.68 118.281 2.97C118.151 3.26 118.481 3.23 118.561 3.09C118.781 2.74 119.311 1.76 119.781 1.79C120.251 1.82 119.781 2.34 119.621 2.62C119.461 2.9 119.311 3.19 119.151 3.47C119.131 3.50448 119.125 3.54545 119.136 3.58389C119.146 3.62234 119.171 3.65511 119.206 3.675C119.24 3.69489 119.281 3.70027 119.319 3.68996C119.358 3.67964 119.391 3.65448 119.411 3.62C119.761 3.11 120.941 2.5 119.981 3.71C119.511 4.3 118.981 4.86 118.501 5.41C117.761 5.13333 116.987 4.9584 116.201 4.89C115.511 3.5 115.001 2.88 115.461 2.78ZM115.461 5.54C115.781 5.04 116.721 5.1 117.931 5.45C118.059 5.47881 118.179 5.53476 118.284 5.61409C118.389 5.69341 118.475 5.79427 118.538 5.90987C118.601 6.02547 118.638 6.15313 118.647 6.28425C118.656 6.41537 118.637 6.5469 118.591 6.67C117.545 6.50566 116.482 6.48212 115.431 6.6C115.312 6.23787 115.337 5.84424 115.501 5.5L115.461 5.54ZM91.3105 25.02C91.3149 25.0029 91.3158 24.9851 91.3132 24.9676C91.3105 24.9502 91.3043 24.9335 91.2949 24.9185C91.2856 24.9035 91.2732 24.8906 91.2587 24.8806C91.2442 24.8705 91.2278 24.8635 91.2105 24.86C86.5405 24.72 86.5705 17.54 88.1205 14.95C89.8185 14.5422 91.3612 13.6493 92.5605 12.38C92.3505 15.89 94.1705 18.26 94.5605 18.1C94.7163 17.9837 94.8943 17.9006 95.0835 17.8558C95.2728 17.8111 95.4691 17.8057 95.6605 17.84C96.3505 17.96 97.0405 19.62 96.3305 20.21C96.0698 20.4088 95.7482 20.5113 95.4205 20.5C95.4805 20.99 95.6405 24.62 95.6505 24.71C95.8103 25.0127 96.0618 25.257 96.369 25.4079C96.6762 25.5589 97.0233 25.6086 97.3605 25.55C96.8979 27.2627 95.9744 28.8157 94.6905 30.04C92.3005 32.23 89.9105 31.27 89.2405 29.42C90.2461 28.1237 90.9529 26.6212 91.3105 25.02ZM96.3105 51.7C96.1805 51.98 93.6405 54.44 92.3905 54.81C91.1405 55.18 88.2605 52.72 88.1405 52.49C88.0205 52.26 87.9305 45.86 87.9605 45.82C87.9905 45.78 96.2905 44.98 96.4205 45.2C96.5505 45.42 96.4005 51.41 96.2605 51.7H96.3105ZM97.1105 29.94C96.5886 32.3941 96.3636 34.9021 96.4405 37.41C95.8922 38.1104 95.195 38.6801 94.3994 39.0779C93.6039 39.4756 92.7298 39.6916 91.8405 39.71C90.3004 39.6954 88.8265 39.0821 87.7305 38C87.2605 35.22 88.9505 29.36 88.9805 29.35C91.0705 34.19 96.2205 30.71 97.6605 25.53C97.8205 25.47 97.9705 25.48 98.1305 25.41C97.7105 26.67 97.3205 28.7 97.0605 29.94H97.1105ZM99.7005 40.24C99.5098 40.3324 99.2948 40.3619 99.0863 40.3241C98.8778 40.2864 98.6867 40.1834 98.5405 40.03C98.4182 39.8798 98.3421 39.6972 98.3215 39.5046C98.301 39.3119 98.3369 39.1174 98.4248 38.9447C98.5127 38.7721 98.6489 38.6287 98.8168 38.532C98.9847 38.4353 99.177 38.3894 99.3705 38.4C100.851 38.6 100.421 39.9 99.6905 40.23L99.7005 40.24ZM106.271 33.76C106.036 33.9275 105.837 34.1404 105.686 34.386C105.535 34.6316 105.434 34.905 105.391 35.19C105.321 35.69 105.391 37.56 105.391 37.96C103.871 39.59 101.391 38.82 100.311 36.64C100.251 35.38 100.471 26.64 100.731 24.27C103.206 23.0344 105.52 21.4995 107.621 19.7C109.741 17.88 109.201 15.7 113.241 8.93C114.011 7.63 114.531 6.98 116.121 6.93C117.121 6.87 118.551 6.7 118.951 7.24C120.281 9.08 118.241 15.03 117.591 17.24C114.421 27.62 109.841 30.56 106.221 33.76H106.271ZM129.001 152.3C104.381 147.3 47.6405 147.61 19.8705 151.22C4.00052 153.27 5.39052 157.5 12.9205 160C18.5105 161.83 24.2605 162.15 30.1105 162.66C62.3105 165.51 110.551 165.13 131.211 158.46C132.741 157.97 137.381 154.01 129.001 152.3ZM38.2105 156.5C33.1755 158.226 27.7298 158.352 22.6205 156.86C22.5277 156.833 22.4492 156.771 22.4023 156.687C22.3554 156.602 22.344 156.503 22.3705 156.41C22.397 156.317 22.4594 156.239 22.5437 156.192C22.6281 156.145 22.7277 156.133 22.8205 156.16C26.5707 157.151 30.4835 157.369 34.3205 156.8C38.7705 156.13 39.3205 154.8 39.3205 154.23C39.3344 154.009 39.2867 153.788 39.1825 153.592C39.0783 153.396 38.9219 153.232 38.7305 153.12C37.7098 152.849 36.6301 152.901 35.6405 153.27C35.5981 153.286 35.5528 153.294 35.5073 153.292C35.4619 153.29 35.4173 153.279 35.3764 153.259C35.3356 153.239 35.2992 153.211 35.2698 153.176C35.2403 153.142 35.2183 153.101 35.2052 153.058C35.192 153.014 35.188 152.968 35.1935 152.923C35.1989 152.878 35.2135 152.834 35.2366 152.795C35.2596 152.756 35.2905 152.722 35.3273 152.695C35.3642 152.669 35.4061 152.65 35.4505 152.64C39.2005 151.75 40.0105 152.98 40.1905 153.55C40.5505 154.61 39.6305 155.96 38.2105 156.5ZM103.141 153.84C102.811 155.61 99.0705 155.99 97.1405 155.99C96.3705 155.99 95.6205 155.94 94.6305 155.92C94.5365 155.905 94.451 155.857 94.3893 155.785C94.3275 155.712 94.2936 155.62 94.2936 155.525C94.2936 155.43 94.3275 155.338 94.3893 155.265C94.451 155.193 94.5365 155.145 94.6305 155.13C96.6305 155.13 98.8605 155.31 100.751 154.66C101.561 154.39 102.061 154.05 102.131 153.73C102.201 153.41 102.061 153.36 101.831 153.13C101.316 152.892 100.758 152.762 100.191 152.75C99.2084 152.683 98.2217 152.757 97.2605 152.97C97.1675 152.978 97.0747 152.952 96.9989 152.898C96.9232 152.843 96.8696 152.763 96.8478 152.672C96.826 152.582 96.8375 152.486 96.8802 152.403C96.9229 152.32 96.994 152.255 97.0805 152.22C97.6305 152.1 101.561 151.45 102.831 152.65C102.986 152.803 103.096 152.996 103.151 153.207C103.205 153.419 103.202 153.641 103.141 153.85V153.84Z" fill="#728594"/>
</svg>
