<svg width="422" height="422" viewBox="0 0 422 422" fill="none" xmlns="http://www.w3.org/2000/svg">
<path d="M305.17 103.39C308.596 105.549 311.311 108.667 312.977 112.358C315.212 117.592 316.786 123.086 317.661 128.71C316.368 128.744 315.082 128.907 313.821 129.195C313.673 129.195 312.829 129.639 312.682 130.103C312.006 132.442 311.491 134.825 311.141 137.235L268.941 137.488C268.456 137.488 268.519 138.057 268.941 138.079C268.941 138.079 307.47 138.669 311.141 138.69C310.213 146.371 310.994 154.811 316.437 160.255C321.565 165.319 338.993 166.036 345.471 161.204C350.851 157.174 352.181 145.527 351.801 138.69C353.067 138.69 381.594 138.184 384.422 138.079C384.5 138.079 384.575 138.047 384.63 137.992C384.686 137.937 384.717 137.861 384.717 137.783C384.717 137.705 384.686 137.63 384.63 137.574C384.575 137.519 384.5 137.488 384.422 137.488C379.611 137.488 351.738 137.277 351.738 137.277C351.168 130.947 349.628 130.314 349.628 130.018C349.61 129.823 349.532 129.638 349.403 129.49C349.274 129.342 349.101 129.239 348.91 129.195C347.075 128.837 345.21 128.646 343.34 128.626C346.294 123.878 348.826 110.965 353.468 102.314C360.346 89.4219 386.236 101.702 385.814 90.3081C385.308 77.6481 371.255 70.5374 356.169 77.2472C341.842 83.5772 338.107 113.117 337.854 128.541C333.528 128.541 335.617 128.668 329.414 128.541C334.837 121.325 341.736 97.2711 340.534 80.4544C339.156 69.2942 334.459 58.8047 327.051 50.3447C320.552 43.0652 312.935 39.9846 307.196 45.8293C298.756 54.2693 306.52 63.701 313.737 73.2593C321.67 83.8093 324.645 89.0632 325.721 104.086C326.225 112.237 326.07 120.415 325.257 128.541H322.915C324.73 122.612 322.388 109.551 320.678 103.411C318.231 94.7391 314.053 86.0037 307.428 79.9902C299.601 73.2321 290.082 68.7316 279.892 66.9715C273.668 65.9165 268.35 66.3174 265.46 68.0476C264.397 68.6005 263.576 69.5272 263.155 70.6491C262.734 71.771 262.744 73.0089 263.181 74.1244C266.684 85.5817 291.455 94.9501 305.17 103.39ZM356.591 78.5976C370.707 72.2676 383.704 78.9141 384.147 90.3925C384.485 99.1912 359.102 88.2825 352.181 101.765C347.37 111.092 345.239 124.131 342.327 128.647H340.829C342.939 119.342 348.108 98.6426 354.185 91.3209C361.95 81.847 375.475 87.3752 376.066 87.2275C376.298 87.2275 376.53 86.8477 375.834 86.5945C367.394 83.535 358.806 83.5983 353.067 90.3925C346.167 98.5371 341.821 118.16 340.006 128.71H338.191C338.761 113.94 342.897 84.6111 356.591 78.5976ZM326.797 104.065C325.953 89.1687 323.21 83.7038 314.876 72.4153C308.04 63.2368 300.718 54.4803 308.272 46.821C313.42 41.5882 320.13 44.711 325.953 51.2942C333.084 59.5489 337.582 69.7488 338.867 80.581C340.238 97.672 333.275 122.211 328.317 128.562H327.198C329.455 118.901 330.916 109.07 331.566 99.1701C332.051 90.7301 331.904 84.8643 329.456 77.5215C327.445 71.9308 324.654 66.6527 321.164 61.8442C319.498 59.4725 317.665 57.2231 315.678 55.1133C315.627 55.0518 315.555 55.0128 315.476 55.0048C315.396 54.9969 315.317 55.0208 315.256 55.0711C315.194 55.1215 315.155 55.1943 315.147 55.2734C315.139 55.3525 315.163 55.4316 315.214 55.4931C315.742 56.0454 316.235 56.6303 316.691 57.2444C323.274 65.6844 329.773 78.0068 330.279 88.8944C330.785 99.782 328.612 117.949 326.608 128.71H326.017C326.949 120.53 327.21 112.288 326.797 104.065ZM348.298 130.989C351.78 134.175 350.683 155.338 344.374 160.065C338.065 164.791 321.628 163.673 317.155 159.347C310.107 152.574 310.825 139.893 313.23 130.483C313.38 130.68 313.586 130.827 313.821 130.905C315.443 131.279 317.096 131.505 318.758 131.58C316.693 139.237 317.054 147.346 319.792 154.79C319.893 155.002 320.074 155.166 320.296 155.245C320.517 155.325 320.761 155.312 320.974 155.212C321.187 155.111 321.35 154.93 321.43 154.708C321.509 154.487 321.497 154.243 321.396 154.03C318.737 148.713 318.02 136.897 319.56 131.727C326.143 132.023 343.762 132.149 348.298 130.989ZM306.52 81.0663C320.826 93.7263 324.498 121.768 322.282 128.605H320.974C320.674 122.741 319.654 116.937 317.935 111.324C313.378 96.5537 305.74 87.4807 294.029 80.6443C287.912 77.1452 281.365 74.457 274.554 72.6474C274.476 72.6278 274.393 72.6402 274.323 72.6817C274.254 72.7233 274.204 72.7906 274.185 72.869C274.165 72.9473 274.177 73.0302 274.219 73.0995C274.26 73.1687 274.328 73.2186 274.406 73.2382C282.357 75.7593 289.904 79.4119 296.814 84.0836C304.477 89.1847 310.46 96.4377 314.011 104.93C317.38 112.437 319.518 120.438 320.341 128.626H318.358C317.577 122.834 316.074 117.164 313.884 111.746C312.173 107.85 309.365 104.536 305.803 102.209C291.856 93.6208 267.823 84.2102 264.616 73.6602C261.641 63.9753 290.316 66.5495 306.52 81.0663ZM124.069 189.71C95.9635 179.941 70.7701 175.573 55.0928 171.628C54.8987 171.573 54.6955 171.558 54.4955 171.584C54.2955 171.61 54.1027 171.676 53.9288 171.778C53.7549 171.88 53.6034 172.016 53.4835 172.178C53.3635 172.341 53.2774 172.525 53.2305 172.721C53.1836 172.917 53.1768 173.121 53.2105 173.32C53.2442 173.519 53.3176 173.709 53.4265 173.879C53.5354 174.048 53.6774 174.194 53.8441 174.308C54.0108 174.421 54.1987 174.5 54.3965 174.539C64.4823 176.966 79.7165 179.751 96.1956 183.57C123.415 189.9 124.005 191.778 124.449 190.47C124.496 190.319 124.483 190.155 124.412 190.013C124.341 189.872 124.218 189.763 124.069 189.71ZM346.779 206.78C346.779 206.73 346.769 206.681 346.75 206.635C346.731 206.589 346.703 206.547 346.668 206.512C346.633 206.476 346.591 206.448 346.545 206.429C346.499 206.41 346.449 206.4 346.399 206.4C327.895 206.4 309.896 210.62 299.705 211.57C299.581 211.58 299.46 211.616 299.35 211.674C299.24 211.732 299.143 211.811 299.064 211.908C298.985 212.004 298.927 212.116 298.892 212.235C298.857 212.355 298.846 212.48 298.861 212.604C298.872 212.729 298.907 212.85 298.965 212.961C299.023 213.073 299.102 213.171 299.198 213.252C299.294 213.332 299.405 213.393 299.525 213.43C299.644 213.467 299.77 213.48 299.895 213.469C307.364 212.73 320.299 209.903 332.41 208.342C345.851 206.78 346.8 207.73 346.779 206.78ZM283.036 250.689C283.054 250.655 283.066 250.617 283.069 250.578C283.073 250.539 283.068 250.5 283.057 250.462C283.045 250.425 283.026 250.39 283 250.361C282.975 250.331 282.944 250.306 282.91 250.288L282.382 250.014L282.255 250.647C282.614 250.816 282.888 251.09 283.036 250.689Z" fill="#D9D9D9"/>
<path d="M411.198 255.964C405.775 254.846 392.376 255.289 386.848 255.774C391.406 240.202 396.111 219.904 398.01 208.721C398.698 205.626 398.996 202.458 398.896 199.289C398.827 199.005 398.699 198.738 398.521 198.505C398.343 198.273 398.119 198.08 397.862 197.939C389.422 192.643 300.992 204.269 294.831 207.328C292.995 208.236 291.35 212.814 290.611 214.882C285.146 205.894 285.716 203.762 279.618 189.562C275.818 180.313 270.999 171.516 265.249 163.335C265.397 162.217 271.241 118.561 264.975 106.892C260.755 99.0853 237.903 96.3423 229.105 95.6038C229.105 95.1396 228.007 87.1638 227.543 83.5557C234.97 77.3523 238.093 65.9372 230.033 64.0171C224.315 62.6667 201.738 58.3623 184.921 62.7089C174.371 65.4519 165.931 71.6131 165.214 83.8089C164.93 88.4399 165.214 93.0882 166.058 97.6505C155.149 98.8532 136.37 100.647 126.791 104.255C114.468 108.897 119.659 162.807 120.967 167.175C120.25 168.947 119.574 170.741 118.963 172.408C88.2621 164.58 19.5394 149.979 16.4799 150.253C15.683 150.243 14.896 150.431 14.1892 150.799C13.4824 151.167 12.8776 151.704 12.4287 152.363C11.6058 152.553 11.3104 153.713 11.1627 154.473C9.05267 165.698 12.8718 232.733 13.547 244.106C14.6653 248.199 47.1804 257.082 51.4004 258.243C51.6114 263.792 52.7297 291.349 52.9618 297.003C51.1261 296.669 49.309 296.239 47.518 295.716C43.7622 294.176 29.372 308.186 30.638 307.026C25.1309 311.921 85.0549 328.02 89.8446 326.67C94.6343 325.32 104.108 316.268 102.505 311.225C102.061 310.327 101.313 309.617 100.395 309.22C95.8581 306.836 83.8522 303.903 78.8515 302.7C79.3368 292.488 79.3368 275.735 79.3157 265.564C85.2448 267.041 118.899 275.186 124.976 275.08C125.412 275.087 125.841 274.977 126.221 274.764C128.162 274.49 130.441 274.004 130.631 272.021C130.631 271.43 131.116 266.282 131.728 258.644C146.604 264.319 164.644 263.897 167.851 262.589C168.716 262.172 169.447 261.522 169.961 260.711C170.109 260.901 170.172 260.859 171.291 261.028C175.511 261.703 182.263 262.336 186.061 260.353C191.441 261.218 207.034 262.463 208.194 257.251C208.342 256.555 208.553 255.141 208.764 253.432C224.378 254.276 279.829 253.896 280.04 253.896L278.753 259.699C278.72 259.651 278.676 259.612 278.624 259.586C278.573 259.56 278.515 259.548 278.457 259.551C278.457 259.382 278.457 259.424 278.457 259.551C269.817 258.87 261.147 258.645 252.483 258.876C249.403 259.023 241.279 259.403 241.132 262.399C240.053 264.946 239.896 267.789 240.688 270.438C241.153 272.105 245.077 274.806 246.533 275.798C238.283 274.975 233.472 275.291 230.982 276.178C230.39 276.281 229.838 276.546 229.388 276.945C228.938 277.343 228.607 277.858 228.432 278.433C228.257 279.008 228.245 279.621 228.397 280.202C228.549 280.784 228.86 281.311 229.294 281.727C232.122 285.609 238.009 286.918 238.642 292.003C239.844 301.645 215.326 312.554 206.38 316.373C210.874 310.465 222.922 291.876 217.078 287.382C210.579 282.381 154.854 280.187 149.726 281.495C146.118 282.423 119.596 302.025 120.081 308.925C120.418 313.419 146.519 317.829 151.372 318.673C156.837 319.601 195.83 325.678 200.493 322.703C201.482 322.304 202.38 321.71 203.134 320.956C203.888 320.202 204.483 319.303 204.882 318.314C212.962 315.537 220.738 311.946 228.092 307.596C239.697 300.4 246.196 291.496 234.717 284.006C233.346 283.12 229.59 280.419 230.138 278.9C231.32 275.545 247.63 276.79 247.862 276.79C255.437 281.727 269.933 289.344 278.479 291.56C287.509 293.944 329.709 289.323 339.901 288.036C341.061 292.256 342.179 296.18 342.918 298.586C341.335 298.712 336.82 299.113 335.554 300.105C334.858 300.654 334.879 301.582 335.997 302.215C335.997 309.284 335.132 330.426 337.242 339.963C338.044 343.529 338.972 345.006 342.665 346.293C349.649 348.551 363.068 347.749 370.095 345.871C374.462 344.689 375.032 343.761 375.728 341.44C378.134 333.549 378.007 310.254 377.838 301.983C377.974 301.885 378.083 301.757 378.159 301.608C378.235 301.46 378.275 301.295 378.275 301.128C378.275 300.962 378.235 300.797 378.159 300.649C378.083 300.5 377.974 300.372 377.838 300.274C376.278 299.55 374.597 299.121 372.88 299.008C373.175 296.645 374.758 283.436 374.99 281.115C376.093 280.453 377.077 279.612 377.902 278.625C379.192 277.058 380.03 275.168 380.328 273.16C382.438 270.396 385.477 260.078 386.468 256.702C395.879 257.103 409.678 256.555 410.965 256.702C411.063 256.733 411.169 256.724 411.261 256.676C411.352 256.629 411.42 256.547 411.451 256.449C411.482 256.351 411.472 256.245 411.425 256.154C411.377 256.063 411.295 255.995 411.198 255.964ZM125.989 301.498C127.403 299.936 129.069 298.312 130.842 296.666C138.375 289.703 147.954 282.698 150.043 282.17C155.107 280.862 210.726 284.28 216.381 288.5C217.331 289.217 217.521 290.61 217.331 292.277C216.571 298.902 209.65 309.832 205.62 315.17C201.063 311.246 132.023 302.321 125.989 301.498ZM229.379 97.123C237.439 97.8826 260.037 100.478 263.92 107.525C269.406 117.442 266.03 151.266 264.679 162.385C263.498 160.803 262.274 159.305 261.029 157.933C253.876 150.084 241.596 146.138 231.193 144.134C224.511 142.97 217.77 142.174 211.001 141.75C210.79 141.75 211.127 142.066 209.46 138.648C206.971 133.521 206.823 133.605 207.076 133.457C209.843 133.31 212.583 132.843 215.242 132.065C222.374 129.955 226.615 125.735 228.619 115.48C229.708 109.402 229.935 103.201 229.294 97.0597L229.379 97.123ZM211.212 142.404C212.541 142.593 212.9 142.572 213.005 142.636C213.005 143.163 217.626 167.956 201.801 169.095C188.719 170.171 180.11 151.814 175.468 139.555C177.156 139.281 178.507 139.091 179.414 138.964C179.857 148.586 193.699 166.036 201.379 164.812C210.009 163.398 214.25 150.274 211.212 142.404ZM179.709 103.58C179.899 102.638 180.32 101.759 180.935 101.022C181.551 100.285 182.341 99.7136 183.233 99.3596C187.453 98.3257 187.453 103.58 190.808 103.284C195.028 103.01 190.323 93.2195 193.952 87.2482C197.898 80.665 213.891 93.9791 226.826 84.1043C228.387 95.224 230.096 103.875 227.712 115.227C225.602 125.186 221.677 128.857 214.904 130.841C212.121 131.481 209.303 131.961 206.464 132.276C206.238 132.404 206.047 132.587 205.911 132.808C205.774 133.029 205.696 133.282 205.684 133.542C205.684 134.28 207.794 138.057 209.756 142.467C212.689 149.388 208.87 161.963 201.147 163.166C195.661 164.031 184.921 151.73 181.862 143.037C180.511 139.196 180.912 139.049 183.296 124.047C186.651 124.279 187.348 117.717 187.516 114.32C187.551 113.599 187.301 112.894 186.82 112.357C185.301 110.69 184.056 112.632 181.102 108.939C180.458 108.223 179.995 107.362 179.752 106.429C179.51 105.496 179.495 104.519 179.709 103.58ZM166.353 99.1697C169.181 112.083 176.608 121.05 181.714 123.54C180.786 129.469 179.731 136.074 179.456 138.078C167.281 138.689 155.274 141.18 143.861 145.463C138.792 147.404 134.069 150.147 129.871 153.587C127.55 141.56 133.522 118.054 132.783 111.387C132.445 108.559 131.644 105.563 128.88 104.951C138.332 101.976 155.845 100.288 166.353 99.1697ZM127.614 105.5C128.118 105.517 128.613 105.636 129.07 105.85C129.527 106.064 129.936 106.368 130.272 106.745C131.223 108.18 131.703 109.877 131.644 111.598C132.108 117.928 125.546 141.264 129.238 154.199C125.682 157.534 122.988 161.683 121.389 166.289C119.701 156.013 116.895 109.234 127.614 105.5ZM51.8013 201.631C51.9701 200.64 53.7847 200.197 54.7764 200.028C62.0981 198.825 77.3112 203.003 76.9736 208.088C76.4672 215.621 78.7882 306.899 76.8048 310.254C74.4416 314.284 61.5284 312.048 56.38 308.461C54.0379 306.836 54.0801 305.443 54.1434 305.718C52.3499 233.872 51.5059 203.277 51.8013 201.631ZM100.711 311.921C101.787 315.508 93.3261 323.758 89.4015 324.855C85.4769 325.953 27.6207 310.972 31.3976 307.553C29.6463 309.136 40.8082 298.86 45.7245 297.214C46.1163 297.019 46.5642 296.967 46.9905 297.067C47.5602 297.32 49.7968 297.89 53.0251 298.649C53.215 303.101 53.3416 305.739 53.3416 305.739C54.5865 311.942 74.4416 316.626 77.902 310.908C78.4318 308.882 78.7152 306.799 78.746 304.705C81.9743 305.507 98.5378 309.537 100.711 311.921ZM124.976 273.287C119.427 273.498 84.8861 265.396 79.3157 264.087C79.2102 239.358 78.7038 211.633 78.957 208.215C79.4634 200.45 59.7138 196.23 52.7508 198.509C52.0607 198.66 51.4266 199.001 50.9197 199.493C50.4128 199.985 50.0531 200.609 49.8812 201.294C49.417 204.1 51.2316 254.044 51.3371 257.04C47.8978 256.112 15.6781 247.524 14.3488 244.085C13.9901 236.32 10.5508 161.246 12.9984 154.135C24.4768 157.005 122.507 176.776 129.407 181.565C131.137 186.313 127.192 266.577 124.976 273.287ZM129.935 272.042C129.935 273.456 128.057 273.941 126.664 274.152C128.943 268.687 133.479 185.532 131.158 180.637C128.837 175.742 22.9787 155.169 13.0828 152.405C13.5229 151.929 14.0587 151.551 14.655 151.297C15.2514 151.042 15.8949 150.916 16.5432 150.928C19.4761 150.717 127.719 174.898 134.007 178.358C135.062 181.396 134.007 202.56 133.859 206.041C133.479 214.439 130.019 270.903 129.935 272.042ZM186.905 257.757C184.436 261.049 175.679 260.648 171.565 260.268H170.552C172.429 256.494 173.493 252.368 173.675 248.157C175.785 247.566 183.507 245.773 184.689 247.672C185.048 248.22 183.908 248.874 183.318 249.191C181.757 249.915 180.123 250.466 178.443 250.837C178.194 250.884 177.975 251.029 177.832 251.238C177.69 251.448 177.636 251.706 177.684 251.955C177.731 252.204 177.876 252.424 178.086 252.566C178.295 252.709 178.553 252.762 178.802 252.714C180.912 252.419 186.672 251.617 188.719 252.314C187.876 253.484 186.665 254.338 185.28 254.74C183.307 254.727 181.337 254.889 179.393 255.225C179.113 255.278 178.862 255.432 178.688 255.658C178.515 255.884 178.43 256.166 178.451 256.451C178.472 256.735 178.597 257.002 178.801 257.2C179.006 257.398 179.277 257.514 179.562 257.525C181.705 257.588 183.844 257.295 185.892 256.66C186.425 256.682 186.949 256.811 187.432 257.04C187.297 257.324 187.094 257.57 186.841 257.757H186.905ZM206.865 257.019C206.776 257.348 206.608 257.65 206.377 257.9C206.145 258.149 205.857 258.34 205.536 258.454C201.632 260.564 191.779 260.184 187.39 259.741C189.015 258.496 189.964 256.47 188.318 255.352C191.568 253.242 191.23 250.984 189.099 250.33C187.719 249.996 186.292 249.896 184.879 250.035C186.208 249.043 186.694 247.925 185.892 246.722C184.731 245.076 181.672 245.287 179.773 245.604C178.869 237.25 178.404 228.855 178.38 220.453C184.014 224.546 202.687 224.673 209.207 220.79C209.524 227.88 207.393 253.938 206.781 257.019H206.865ZM188.761 252.229C188.761 252.229 188.698 252.271 188.698 252.229H188.761ZM234.042 252.693C237.945 241.278 238.494 217.098 238.262 205.007C241.532 210.261 259.362 235.455 259.489 235.666C259.922 236.328 260.432 236.937 261.008 237.48C265.259 241.366 270.032 244.639 275.187 247.207C280.694 250.119 281.137 249.971 281.095 250.204L280.356 253.369C279.998 253.347 237.27 252.693 233.979 252.693H234.042ZM243.136 262.167C247.673 259.002 278.521 260.437 278.858 260.226V260.458C275.904 274.595 274.765 279.701 274.406 281.558C274.596 280.735 275.757 275.228 277.086 269.13C278.014 264.657 279.196 259.34 280.399 253.706C280.947 251.132 281.306 249.486 281.327 249.36C275.546 246.3 266.726 241.025 262.105 236.362C260.944 235.18 238.515 204.1 238.304 203.741C238.093 203.383 238.093 194.12 237.861 193.698C237.817 193.65 237.759 193.617 237.695 193.603C237.632 193.589 237.565 193.595 237.505 193.621C237.445 193.646 237.394 193.69 237.36 193.745C237.325 193.8 237.309 193.865 237.312 193.93C237.101 193.93 237.312 239.042 233.409 252.63L209.102 252.862C209.249 251.681 209.397 250.309 209.566 248.832C219.356 250.077 223.808 239.337 221.213 230.581C219.673 225.77 215.706 225.031 211.17 227.352C211.381 224.543 211.381 221.722 211.17 218.912C211.365 218.427 211.399 217.892 211.266 217.387C211.133 216.881 210.84 216.432 210.431 216.106C207.287 213.152 198.488 212.835 194.205 212.835C189.922 212.835 181.102 213.173 177.979 216.106C177.706 216.317 177.488 216.593 177.346 216.908C175.743 219.798 178.823 245.14 179.203 245.688C177.366 246.054 175.554 246.54 173.78 247.144V243.768C173.654 236.404 150.106 232.311 149.304 228.112C149.03 226.677 148.587 223.47 148.081 219.672C145.232 198.825 145.654 199.627 145.19 199.627C145.112 199.627 145.036 199.658 144.981 199.713C144.926 199.769 144.894 199.844 144.894 199.922C144.894 200.492 147.173 223.449 147.996 228.323C148.819 233.197 172.198 237.923 172.303 243.768C172.303 248.326 171.291 259.635 167.345 261.26C164.961 262.273 146.519 263.201 131.812 258.032C132.129 253.938 137.995 180.658 135.167 177.409C134.091 176.164 121.452 172.999 119.849 172.598C126.179 158.25 130.863 146.434 174.878 139.534C176.1 143.631 177.594 147.642 179.351 151.54C183.824 161.098 191.399 171.416 201.886 170.53C213.934 169.496 215.875 156.435 213.955 144.514C213.828 143.67 213.702 143.121 213.596 142.636C219.385 143.215 225.14 144.102 230.835 145.294C240.773 147.404 252.99 151.413 259.805 158.967C267.169 167.069 273.604 179.582 278.12 189.583C284.619 203.973 284.576 207.687 290.168 215.979C286.236 228.386 282.94 240.985 280.293 253.727C279.449 257.673 278.183 263.686 276.98 269.151C275.229 277.591 274.174 282.93 274.28 281.811C274.09 282.951 274.28 282.909 274.28 283.183C267.401 280.115 260.764 276.532 254.425 272.464C252.209 270.987 240.899 263.75 243.136 262.125V262.167ZM211.001 231.657C211.001 230.559 211.127 229.547 211.17 228.492C214.989 226.951 218.386 227.183 219.42 231.171C221.53 238.409 218.196 248.051 209.693 248.051C209.693 247.039 210.051 244.148 210.093 243.831C219.799 245.14 219.736 227.373 211.001 231.657ZM210.178 242.924C210.473 239.59 210.726 236.067 210.937 232.754C211.948 232.442 213.029 232.442 214.039 232.754C216.55 233.661 216.149 242.375 210.072 242.924H210.178ZM279.196 289.745C271.077 287.089 263.222 283.684 255.733 279.575C253.623 278.456 242.693 272.506 241.954 270.206C241.316 268.153 241.251 265.964 241.765 263.876C244.592 269.383 262.527 278.646 268.287 281.368C270.925 282.613 273.646 283.67 276.432 284.533C286.18 288.015 328 282.423 338.276 281.157C338.403 281.6 339.289 284.997 339.626 286.221C330.68 287.255 287.594 291.96 279.09 289.745H279.196ZM373.471 342.811C370.39 345.428 351.907 347.622 343.192 344.921C340.027 343.93 339.394 342.917 338.635 339.71C337.943 336.23 337.505 332.704 337.326 329.16C341.652 331.818 349.586 332.493 354.671 332.641C362.33 332.81 369.863 332.641 376.024 329.16C375.897 331.396 375.18 341.355 373.471 342.811ZM376.087 328.337C371.925 330.118 367.448 331.043 362.921 331.059C356.886 331.354 342.749 331.312 337.284 328.4C337.052 324.433 336.904 320.192 336.841 316.247C338.951 318.779 350.197 319.918 354.692 320.066C362.71 320.234 370.158 320.066 376.572 316.268C376.572 316.057 376.509 321.057 376.108 328.337H376.087ZM376.572 315.529C366.022 320.846 339.837 318.441 336.82 315.529V302.553C343.53 304.937 370.053 304.768 376.699 302.553C376.657 304.979 376.678 309.917 376.594 315.529H376.572ZM372.352 301.329C372.428 301.35 372.509 301.342 372.579 301.307C372.649 301.272 372.704 301.212 372.732 301.139C372.732 301.139 372.732 300.759 372.859 300.084C374.219 300.271 375.56 300.574 376.868 300.991C372.247 303.101 344.437 303.291 337.495 301.244C337.448 301.23 337.407 301.2 337.377 301.16C337.348 301.121 337.332 301.072 337.332 301.023C337.332 300.973 337.348 300.925 337.377 300.885C337.407 300.846 337.448 300.816 337.495 300.801C339.43 300.276 341.407 299.923 343.403 299.746C343.543 300.333 343.756 300.9 344.036 301.434C344.205 301.603 344.479 301.624 344.458 301.202C344.437 300.78 337.516 273.456 336.461 267.442C337.54 267.802 338.691 267.892 339.813 267.705C340.935 267.517 341.994 267.057 342.897 266.366C345.218 272.865 352.624 302.109 353.067 302.109C353.147 302.104 353.222 302.068 353.277 302.01C353.332 301.951 353.363 301.873 353.362 301.793L352.751 298.945H355.662C355.662 299.345 355.894 301.392 355.916 301.54C355.937 301.688 356.549 302.046 356.506 301.266C356.506 299.367 354.734 267.906 354.692 267.337C354.995 267.19 355.314 267.077 355.641 266.999C355.873 268.139 363.301 298.227 363.87 300.569C363.87 300.78 363.87 301.139 364.271 301.055C364.672 300.97 364.503 300.59 364.271 299.219L367.499 299.451V299.81C367.499 300.147 368.027 300.063 368.09 299.81C368.09 300.042 372.015 259.551 372.31 256.323C372.866 256.744 373.506 257.043 374.186 257.199C374.866 257.356 375.572 257.366 376.256 257.23C376.214 257.546 371.888 301.181 372.331 301.329H372.352ZM353.362 259.382C353.112 257.352 352.226 255.454 350.83 253.959C353.721 254.824 354.333 255.457 355.05 257.441C355.621 259.021 355.774 260.722 355.494 262.378C355.208 263.421 355.208 264.521 355.494 265.564C355.148 265.644 354.81 265.75 354.481 265.881C353.173 262.146 350.261 262.188 350.261 258.433C350.257 257.075 350.058 255.725 349.67 254.424C350.692 256.275 351.812 258.071 353.025 259.804C353.236 260.078 353.637 259.677 353.384 259.382H353.362ZM354.417 286.01C354.523 287.044 355.346 296.012 355.557 298.29H352.54C351.907 295.442 350.957 291.222 349.881 286.707L354.417 286.01ZM354.291 284.386L349.48 285.019C349.058 283.267 348.615 281.495 348.172 279.744C350.113 279.469 352.012 279.174 353.848 278.878C353.932 279.786 354.228 283.457 354.312 284.386H354.291ZM360.853 283.415C360.515 281.811 359.692 278.182 359.629 277.971C361.465 277.655 367.71 276.579 368.998 276.325C368.998 277.233 368.639 281.073 368.554 282.043C366.508 282.487 363.891 282.951 360.811 283.415H360.853ZM368.47 283.415C368.09 288.88 367.499 298.016 367.478 298.523C366.381 298.523 365.221 298.48 363.997 298.396C363.49 295.843 361.317 285.609 361.169 284.913C364.018 284.343 366.466 283.837 368.491 283.352L368.47 283.415ZM372.5 254.571C372.758 251.897 373.173 249.241 373.745 246.617C374.308 246.448 374.902 246.407 375.483 246.499C376.063 246.59 376.616 246.81 377.1 247.144C376.973 249.796 376.692 252.438 376.256 255.057C376.066 255.795 376.024 255.985 375.539 256.048C374.589 256.112 372.669 255.31 372.521 254.508L372.5 254.571ZM375.264 279.722C375.454 278.161 375.644 276.579 375.813 274.996C377.063 274.734 378.29 274.374 379.484 273.92C378.819 276.275 377.329 278.312 375.285 279.659L375.264 279.722ZM378.788 272.169C377.898 272.523 376.98 272.805 376.045 273.013C376.425 269.468 378.661 248.832 378.661 247.376C378.661 245.266 374.906 244.485 372.964 245.266C372.31 245.562 372.12 246.806 371.93 247.904C370.875 253.791 369.631 268.476 369.145 274.447L359.249 276.262C356.781 265.501 356.992 266.092 356.717 265.818C356.529 265.638 356.281 265.533 356.021 265.522C355.826 264.583 355.877 263.609 356.169 262.695C356.605 260.87 356.547 258.961 356 257.167C355.719 255.861 354.968 254.705 353.89 253.917C352.173 253.007 350.321 252.38 348.404 252.06C348.303 252.033 348.198 252.031 348.096 252.052C347.994 252.074 347.899 252.12 347.819 252.186C347.738 252.252 347.675 252.337 347.633 252.432C347.592 252.528 347.574 252.632 347.581 252.736C347.626 252.915 347.683 253.091 347.75 253.263C349.396 257.188 348.256 258.981 349.396 261.323C350.535 263.665 352.455 264.024 353.151 266.725C353.151 266.936 353.742 276.684 353.763 277.275L347.792 278.224C347.37 276.621 344.479 265.206 343.34 264.087C341.23 261.977 335.195 264.341 334.9 266.197C334.71 267.252 337.601 278.562 337.875 279.638C327.009 281.221 315.488 282.655 305.297 283.605C300.845 284.006 273.647 286.496 275.166 282.043C277.276 272.295 281.496 254.402 282.34 250.647V250.351C282.34 250.035 282.488 249.718 282.34 250.647C282.34 250.33 282.466 250.14 282.509 250.035L287.784 229.631C288.48 227.12 293.27 210.05 295.696 208.848C301.077 206.189 389.507 194.753 396.976 199.753C398.242 205.176 382.691 269.594 378.809 272.19L378.788 272.169Z" fill="#D9D9D9"/>
<path d="M207.857 102.461V100.837C207.857 100.574 207.753 100.321 207.567 100.135C207.381 99.9494 207.129 99.845 206.866 99.845C206.601 99.8449 206.346 99.9487 206.157 100.134C205.967 100.319 205.858 100.572 205.853 100.837V102.736C205.899 102.987 206.041 103.21 206.248 103.359C206.455 103.508 206.712 103.572 206.965 103.536C207.218 103.501 207.447 103.37 207.606 103.169C207.764 102.969 207.839 102.716 207.815 102.461H207.857ZM342.707 232.311C342.095 231.72 341.23 231.024 340.429 231.277C339.099 231.699 337.77 235.075 337.2 236.467C335.6 240.623 334.33 244.899 333.402 249.254C334.267 251.491 348.869 248.558 350.852 247.587C351.485 247.292 351.401 246.532 351.19 245.857C349.102 240.919 346.238 236.346 342.707 232.311ZM333.972 248.98C334.352 247.228 339.163 233.809 340.808 232.585C343.361 234.041 348.489 242.987 349.86 246.363C347.961 247.123 335.069 250.393 333.972 248.98ZM162.176 293.733C161.965 293.881 157.365 296.792 157.154 297.003C157.104 297.024 157.061 297.059 157.031 297.104C157.001 297.149 156.985 297.202 156.985 297.257C156.985 297.311 157.001 297.364 157.031 297.409C157.061 297.454 157.104 297.489 157.154 297.51C158.336 297.847 162.281 298.29 163.484 298.417C192.349 291.18 192.539 291.18 192.18 291.18C192.374 291.153 192.55 291.053 192.672 290.9C192.794 290.746 192.852 290.552 192.834 290.357C192.834 289.998 192.264 287.508 192.096 286.749L162.176 293.733ZM218.091 93.6416C218.682 93.6416 219.842 93.9159 220.074 93.937C221.355 94.0698 222.624 94.2955 223.872 94.6122L225.771 94.9498C225.843 94.9678 225.92 94.9597 225.987 94.9271C226.053 94.8944 226.107 94.8392 226.137 94.7712C226.167 94.7032 226.172 94.6267 226.152 94.5551C226.131 94.4836 226.086 94.4216 226.024 94.3801C224.923 93.4474 223.588 92.8344 222.163 92.6077C220.752 92.305 219.283 92.4299 217.943 92.9664C217.899 92.9761 217.857 92.9944 217.819 93.0203C217.782 93.0462 217.75 93.0792 217.726 93.1175C217.701 93.1557 217.685 93.1983 217.677 93.243C217.669 93.2877 217.67 93.3335 217.679 93.3778C217.689 93.4221 217.707 93.4641 217.733 93.5014C217.759 93.5386 217.792 93.5704 217.83 93.5949C217.869 93.6194 217.911 93.6361 217.956 93.6441C218.001 93.6521 218.046 93.6513 218.091 93.6416ZM201.38 95.4984C201.949 95.3718 203.173 95.1819 203.49 95.1397C204.768 94.8604 206.066 94.677 207.372 94.5911L209.482 94.359C209.566 94.359 209.646 94.3256 209.706 94.2663C209.765 94.2069 209.798 94.1264 209.798 94.0425C209.798 93.9585 209.765 93.878 209.706 93.8187C209.646 93.7593 209.566 93.726 209.482 93.726C208.122 93.1494 206.63 92.9566 205.168 93.1686C203.706 93.3807 202.33 93.9894 201.19 94.9287C201.139 94.9287 201.09 94.9406 201.045 94.9634C201.001 94.9863 200.962 95.0194 200.933 95.0601C200.904 95.1008 200.884 95.1478 200.877 95.1974C200.869 95.247 200.874 95.2977 200.889 95.3452C200.905 95.3928 200.932 95.4359 200.968 95.4711C201.004 95.5062 201.047 95.5323 201.095 95.5473C201.143 95.5622 201.194 95.5656 201.243 95.5571C201.293 95.5486 201.339 95.5284 201.38 95.4984ZM222.48 99.1698C222.217 99.1698 221.964 99.2742 221.778 99.4602C221.592 99.6462 221.488 99.8984 221.488 100.161V102.06C221.524 102.323 221.664 102.561 221.875 102.722C222.087 102.882 222.354 102.951 222.617 102.915C222.88 102.879 223.117 102.739 223.278 102.528C223.438 102.316 223.508 102.049 223.471 101.786V100.161C223.474 100.03 223.45 99.9002 223.402 99.7786C223.353 99.6569 223.28 99.5465 223.187 99.4538C223.095 99.3611 222.984 99.2882 222.862 99.2394C222.741 99.1906 222.611 99.1669 222.48 99.1698ZM58.7224 282.36C61.6553 283.309 68.4917 285.863 71.6356 285.483C72.0154 285.483 72.4374 285.103 72.7117 284.428C74.8217 279.68 73.3025 255.542 72.5429 250.879C72.0154 247.524 59.8829 243.367 56.95 245.751C55.051 247.292 56.0005 265.163 56.2115 267.653C56.7601 273.667 56.1904 281.537 58.7224 282.36ZM57.8995 246.87C60.1783 245.224 70.7494 249.127 71.087 251.09C71.6145 254.402 73.5768 282.254 71.4668 284.428C68.7449 284.829 61.5287 282.613 58.8068 281.769C56.8867 281.136 57.5408 272.738 57.2243 267.548C57.0766 264.045 56.8445 250.14 57.8995 246.87ZM207.836 115.1C207.784 115.074 207.726 115.061 207.667 115.061C207.609 115.061 207.551 115.074 207.499 115.1C206.971 115.29 206.655 115.881 206.57 116.746C206.502 118.981 207.252 121.165 208.68 122.886C209.015 123.343 209.438 123.728 209.925 124.018C210.411 124.308 210.951 124.497 211.512 124.573C212.073 124.65 212.644 124.613 213.191 124.465C213.737 124.316 214.248 124.059 214.694 123.709C215.965 122.662 216.965 121.323 217.605 119.806C217.663 119.687 217.693 119.557 217.693 119.426C217.693 119.294 217.663 119.164 217.605 119.046C216.951 118.033 215.39 119.468 207.836 115.1ZM207.646 115.818C209.939 117.77 212.622 119.209 215.517 120.038C211.001 127.718 206.465 117.358 207.646 115.818ZM212.816 110.859C214.166 111.112 217.901 110.648 218.703 109.277C219.104 108.623 218.703 108.412 217.816 105.711C217.018 103.364 216.081 101.067 215.01 98.8322C214.63 98.2414 214.145 98.8322 214.419 99.1909C215.006 102.426 215.939 105.588 217.205 108.623C215.677 109.337 214.114 109.971 212.52 110.522C212.517 110.563 212.523 110.605 212.536 110.644C212.549 110.684 212.57 110.72 212.598 110.752C212.625 110.783 212.659 110.809 212.696 110.827C212.733 110.846 212.774 110.856 212.816 110.859ZM290.633 330.278C298.545 325.256 292.384 320.635 287.151 322.83C285.864 320.488 285.569 320.298 282.931 320.424C269.237 321.121 207.393 335.426 206.802 335.659C203.679 336.946 211.613 355.577 214.757 358.025C215.474 358.573 215.242 358.679 222.986 357.159C223.492 361.759 225.497 369.819 230.181 370.073C232.364 369.673 234.49 369.007 236.511 368.089C240.424 371.982 244.59 375.612 248.981 378.956C253.834 382.205 284.851 345.976 289.493 341.756C290.822 341.313 292.004 341.018 291.856 337.726C295.865 336.988 298.967 334.519 296.836 330.974C295.401 328.822 292.911 329.16 290.633 330.278ZM291.371 324.539C292.236 324.855 292.679 325.193 292.405 326.058C291.837 327.38 291.004 328.572 289.957 329.561C289.398 327.845 288.742 326.161 287.995 324.518C289.087 324.124 290.284 324.132 291.371 324.539ZM268.921 323.843C269.701 327.535 270.229 329.54 271.221 332.937L256.598 335.701C255.757 332.648 254.778 329.635 253.665 326.67C256.429 326.142 266.663 324.222 268.921 323.843ZM247.293 352.011C248.067 354.662 249.211 357.191 250.69 359.523C246.639 361.485 242.82 363.278 239.571 364.755C238.405 361.217 236.765 357.853 234.696 354.754L247.293 352.011ZM241.322 352.011C240.609 348.345 239.707 344.718 238.621 341.145L255.501 337.494C256.422 341.068 257.535 344.59 258.835 348.044C253.032 349.268 246.977 350.64 241.322 351.927V352.011ZM248.348 352.117C248.116 351.779 246.681 352.285 262.211 348.719C262.485 350.287 263.066 351.786 263.92 353.129L251.555 359.185C250.821 356.664 249.742 354.257 248.348 352.032V352.117ZM263.118 348.487C271.136 346.631 278.5 344.858 283.585 343.508L264.954 352.602C264.609 351.104 263.994 349.681 263.139 348.403L263.118 348.487ZM259.552 347.833C258.875 344.233 258.016 340.67 256.978 337.157L271.389 333.612C271.389 333.717 272.36 336.967 272.803 338.359C273.014 338.992 274.808 344.099 274.913 344.183C270.545 345.154 259.89 347.664 259.531 347.749L259.552 347.833ZM253.032 326.881C253.729 330.721 254.383 333.211 255.142 336.081L238.262 339.794C237.271 336.439 236.595 334.245 235.14 330.447C238.431 329.687 250.5 327.282 253.053 326.797L253.032 326.881ZM234.443 330.573C235.266 334.793 235.878 337.009 236.764 340.132C235.351 340.448 223.809 343.339 223.809 343.339C223.387 343.339 223.556 343.993 223.978 343.909C223.978 343.909 236.49 341.588 237.123 341.44C237.123 341.44 238.03 345.069 240.626 352.18L227.016 355.218C225.069 347.858 222.623 340.639 219.694 333.612L234.443 330.573ZM215.348 357.307C212.141 354.902 204.798 337.178 207.013 336.207C207.013 336.207 211.845 335.152 219.104 333.633C220.913 341.028 223.326 348.261 226.32 355.26C215.221 357.75 215.706 357.497 215.369 357.223L215.348 357.307ZM230.118 368.532C226.552 368.532 224.421 360.831 223.788 357.328C223.788 356.927 222.669 357.328 233.705 355.028C234.253 354.923 233.388 354.775 236.026 360.261C236.782 361.985 237.716 363.625 238.811 365.156C236.035 366.485 233.156 367.586 230.202 368.448L230.118 368.532ZM249.783 377.563C245.493 374.557 241.372 371.317 237.439 367.857C241.069 366.359 245.183 364.439 248.728 362.751C251.503 365.977 254.648 368.867 258.096 371.36C256.662 372.584 251.787 377.099 249.867 377.479L249.783 377.563ZM258.708 370.727C255.921 367.616 252.801 364.821 249.403 362.392L262.654 355.872C264.5 357.767 266.637 359.356 268.984 360.578C265.666 364.011 262.268 367.367 258.793 370.642L258.708 370.727ZM269.701 359.902C267.942 358.106 265.939 356.565 263.751 355.324C272.824 350.745 278.036 347.96 286.497 343.276C282.741 346.588 273.204 356.337 269.786 359.818L269.701 359.902ZM289.831 340.068C288.923 340.723 276.496 343.761 275.419 344.014C274.076 337.111 272.105 330.345 269.533 323.8C273.626 323.104 281.728 321.69 284.746 322.028C285.154 322.508 285.507 323.032 285.801 323.589C284.361 324.568 283.169 325.868 282.319 327.387C282.108 327.915 282.657 328.189 282.931 327.936C283.987 326.819 285.22 325.885 286.581 325.172C287.539 327.15 288.37 329.187 289.071 331.27C287.196 332.552 285.507 334.085 284.049 335.827C283.775 336.165 283.859 336.418 284.049 336.524C284.556 336.819 284.598 336.059 289.578 333.105C290.081 334.814 290.364 336.579 290.422 338.359C290.316 338.739 290.253 339.71 289.915 339.984L289.831 340.068ZM295.085 334.414C294.142 335.493 292.956 336.332 291.624 336.861C291.43 335.357 291.127 333.869 290.717 332.409C292.088 331.713 294.22 330.827 294.937 332.114C295.207 332.41 295.375 332.785 295.417 333.183C295.459 333.582 295.372 333.984 295.169 334.329L295.085 334.414Z" fill="#D9D9D9"/>
</svg>
