<svg width="21" height="20" viewBox="0 0 21 20" fill="none" xmlns="http://www.w3.org/2000/svg">
<path fill-rule="evenodd" clip-rule="evenodd" d="M14.6356 14.9974C13.3151 16.1216 11.6035 16.8001 9.73333 16.8001C5.55438 16.8001 2.16666 13.4124 2.16666 9.23341C2.16666 5.05446 5.55438 1.66675 9.73333 1.66675C13.9123 1.66675 17.3 5.05446 17.3 9.23341C17.3 11.0922 16.6297 12.7945 15.5177 14.1117L19.1497 17.7437L18.2658 18.6276L14.6356 14.9974ZM16.05 9.23341C16.05 12.722 13.2219 15.5501 9.73333 15.5501C6.24473 15.5501 3.41666 12.722 3.41666 9.23341C3.41666 5.74482 6.24473 2.91675 9.73333 2.91675C13.2219 2.91675 16.05 5.74482 16.05 9.23341Z" fill="black" fill-opacity="0.7"/>
</svg>
