<svg width="396" height="68" viewBox="0 0 396 68" fill="none" xmlns="http://www.w3.org/2000/svg">
<g clip-path="url(#clip0_8_791)">
<path d="M22.792 31.332H28.476V32.816H22.792V31.332ZM21.224 17.78H30.044V19.404H21.224V17.78ZM20.412 23.912H37.408V25.62H20.412V23.912ZM23.128 27.3H29.428V36.904H23.128V35.364H27.692V28.868H23.128V27.3ZM21.896 27.3H23.604V38.696H21.896V27.3ZM24.584 15.008H26.432V18.928H24.584V15.008ZM34.888 27.048L36.652 27.44C35.868 30.3893 34.748 32.984 33.292 35.224C31.836 37.4453 30.072 39.284 28 40.74C27.9253 40.628 27.8133 40.4787 27.664 40.292C27.5147 40.124 27.3467 39.9467 27.16 39.76C26.992 39.592 26.8427 39.452 26.712 39.34C28.7467 38.052 30.4453 36.3627 31.808 34.272C33.1707 32.1627 34.1973 29.7547 34.888 27.048ZM22.064 19.936L23.492 19.6C23.772 20.1973 23.996 20.8693 24.164 21.616C24.332 22.344 24.4347 22.9787 24.472 23.52L22.932 23.884C22.9133 23.3427 22.82 22.708 22.652 21.98C22.484 21.252 22.288 20.5707 22.064 19.936ZM33.04 16.772L34.468 16.016C35.084 16.7067 35.6627 17.4813 36.204 18.34C36.764 19.1987 37.1747 19.9547 37.436 20.608L35.896 21.448C35.6533 20.7947 35.2613 20.0293 34.72 19.152C34.1973 18.256 33.6373 17.4627 33.04 16.772ZM27.384 19.544L29.12 19.936C28.896 20.5893 28.672 21.28 28.448 22.008C28.224 22.736 28.0187 23.3427 27.832 23.828L26.432 23.492C26.6 22.932 26.7773 22.2787 26.964 21.532C27.1693 20.7667 27.3093 20.104 27.384 19.544ZM11.9 16.184H21.252V18.06H11.9V16.184ZM14.084 22.064H19.152V23.828H14.084V22.064ZM14.084 27.86H19.152V29.624H14.084V27.86ZM13.216 17.136H15.008V35.056H13.216V17.136ZM18.06 17.136H19.88V40.74H18.06V17.136ZM11.424 34.804C12.4133 34.6173 13.5707 34.4027 14.896 34.16C16.2213 33.8987 17.5933 33.6187 19.012 33.32L19.152 35.14C17.864 35.42 16.576 35.7 15.288 35.98C14 36.26 12.8333 36.5213 11.788 36.764L11.424 34.804ZM30.688 15.008H32.592C32.5733 17.5093 32.6013 19.908 32.676 22.204C32.7693 24.5 32.8813 26.6187 33.012 28.56C33.1613 30.5013 33.3387 32.1907 33.544 33.628C33.768 35.0653 34.02 36.1947 34.3 37.016C34.5987 37.8187 34.9253 38.2293 35.28 38.248C35.504 38.248 35.6907 37.884 35.84 37.156C36.008 36.4093 36.1293 35.3733 36.204 34.048C36.316 34.1973 36.4653 34.3467 36.652 34.496C36.8387 34.6453 37.0253 34.776 37.212 34.888C37.3987 35 37.548 35.0933 37.66 35.168C37.4733 36.624 37.2493 37.7533 36.988 38.556C36.7267 39.3587 36.4373 39.9093 36.12 40.208C35.8213 40.5253 35.5227 40.684 35.224 40.684C34.496 40.6653 33.8707 40.2267 33.348 39.368C32.844 38.528 32.424 37.3333 32.088 35.784C31.7707 34.2347 31.5093 32.396 31.304 30.268C31.1173 28.14 30.9773 25.788 30.884 23.212C30.7907 20.636 30.7253 17.9013 30.688 15.008ZM56.868 15.036H58.912V20.384H56.868V15.036ZM50.792 19.432H65.324V21.336H50.792V19.432ZM54.292 24.388H61.012V26.236H54.292V24.388ZM53.228 24.388H55.216V30.632C55.216 31.696 55.132 32.8347 54.964 34.048C54.8147 35.2613 54.516 36.4467 54.068 37.604C53.62 38.7613 52.9293 39.7973 51.996 40.712C51.884 40.5813 51.7253 40.4413 51.52 40.292C51.3333 40.1427 51.1373 39.9933 50.932 39.844C50.7267 39.6947 50.54 39.592 50.372 39.536C51.2307 38.6773 51.856 37.7347 52.248 36.708C52.6587 35.6813 52.92 34.6453 53.032 33.6C53.1627 32.536 53.228 31.5373 53.228 30.604V24.388ZM44.828 29.736H46.228V36.428H44.828V29.736ZM42.392 18.788H48.692V20.496H42.392V18.788ZM48.132 18.788H49.896V38.528C49.896 39.0133 49.8307 39.396 49.7 39.676C49.5693 39.9747 49.3453 40.1987 49.028 40.348C48.7107 40.4973 48.2813 40.5907 47.74 40.628C47.1987 40.6653 46.508 40.684 45.668 40.684C45.6307 40.4413 45.5467 40.152 45.416 39.816C45.304 39.48 45.192 39.2 45.08 38.976C45.6773 38.9947 46.2187 39.004 46.704 39.004C47.1893 39.004 47.5067 38.9947 47.656 38.976C47.9733 38.976 48.132 38.8173 48.132 38.5V18.788ZM41.58 18.788H43.288V28.98C43.288 29.876 43.26 30.8467 43.204 31.892C43.148 32.9373 43.0453 33.992 42.896 35.056C42.7467 36.1013 42.5133 37.1093 42.196 38.08C41.8973 39.0507 41.496 39.9373 40.992 40.74C40.88 40.628 40.7307 40.5067 40.544 40.376C40.376 40.264 40.1893 40.152 39.984 40.04C39.7973 39.928 39.6293 39.844 39.48 39.788C40.1333 38.7613 40.6 37.632 40.88 36.4C41.1787 35.1493 41.3653 33.88 41.44 32.592C41.5333 31.304 41.58 30.1 41.58 28.98V18.788ZM39.564 27.636C40.5533 27.5613 41.692 27.4867 42.98 27.412C44.268 27.3373 45.64 27.2533 47.096 27.16C48.5707 27.048 50.0453 26.936 51.52 26.824L51.548 28.532C50.1293 28.644 48.7107 28.756 47.292 28.868C45.8733 28.9613 44.52 29.0547 43.232 29.148C41.9627 29.2413 40.8147 29.3347 39.788 29.428L39.564 27.636ZM44.156 22.232L45.5 21.7C45.8733 22.2787 46.2187 22.9227 46.536 23.632C46.8533 24.3413 47.068 24.9667 47.18 25.508L45.752 26.124C45.64 25.5827 45.4347 24.948 45.136 24.22C44.8373 23.492 44.5107 22.8293 44.156 22.232ZM44.968 14.952L47.208 15.4C46.9467 16.1467 46.676 16.9027 46.396 17.668C46.116 18.4333 45.864 19.0867 45.64 19.628L43.792 19.236C44.016 18.6387 44.24 17.9293 44.464 17.108C44.688 16.2867 44.856 15.568 44.968 14.952ZM59.892 24.388H61.908V37.128C61.908 37.856 61.9547 38.2573 62.048 38.332C62.1227 38.4253 62.272 38.472 62.496 38.472C62.5707 38.472 62.6827 38.472 62.832 38.472C62.9813 38.472 63.1027 38.472 63.196 38.472C63.308 38.472 63.42 38.4627 63.532 38.444C63.644 38.4253 63.728 38.388 63.784 38.332C63.896 38.2387 63.98 37.9773 64.036 37.548C64.0547 37.2867 64.0733 36.8947 64.092 36.372C64.1107 35.8493 64.1293 35.2427 64.148 34.552C64.3347 34.7013 64.5587 34.8507 64.82 35C65.1 35.1493 65.3707 35.2613 65.632 35.336C65.632 35.9707 65.604 36.6333 65.548 37.324C65.5107 37.996 65.4547 38.472 65.38 38.752C65.2493 39.2933 65.0067 39.6853 64.652 39.928C64.484 40.04 64.2787 40.124 64.036 40.18C63.7933 40.236 63.5507 40.264 63.308 40.264C63.1213 40.264 62.888 40.264 62.608 40.264C62.3467 40.264 62.1413 40.264 61.992 40.264C61.712 40.264 61.432 40.2267 61.152 40.152C60.8907 40.0773 60.6573 39.9467 60.452 39.76C60.2467 39.5733 60.0973 39.3027 60.004 38.948C59.9293 38.5933 59.892 37.94 59.892 36.988V24.388Z" fill="black"/>
<path d="M16.066 54.89H19.74V55.638H16.066V54.89ZM16.022 59.994H19.971V60.742H16.022V59.994ZM17.826 52.206C17.6207 52.5727 17.364 52.9613 17.056 53.372C16.7553 53.7827 16.4217 54.186 16.055 54.582C15.6883 54.978 15.307 55.3337 14.911 55.649C14.8597 55.5463 14.7827 55.4253 14.68 55.286C14.5847 55.1467 14.4967 55.033 14.416 54.945C14.8193 54.6443 15.208 54.2887 15.582 53.878C15.9633 53.4673 16.3117 53.042 16.627 52.602C16.9423 52.162 17.1917 51.7477 17.375 51.359H18.178C18.442 51.7697 18.7463 52.195 19.091 52.635C19.4357 53.0677 19.7987 53.4747 20.18 53.856C20.5613 54.2373 20.9353 54.5637 21.302 54.835C21.214 54.9377 21.1223 55.0587 21.027 55.198C20.939 55.3373 20.8583 55.4693 20.785 55.594C20.4257 55.2933 20.059 54.9487 19.685 54.56C19.311 54.1713 18.9627 53.7717 18.64 53.361C18.3173 52.9503 18.046 52.5653 17.826 52.206ZM15.593 56.969H20.323V61.325H19.531V57.717H16.363V61.369H15.593V56.969ZM12.645 51.26L13.371 51.557C13.2317 51.8137 13.085 52.0887 12.931 52.382C12.777 52.6753 12.6193 52.9577 12.458 53.229C12.304 53.5003 12.1537 53.735 12.007 53.933L11.446 53.68C11.5853 53.4673 11.7283 53.2217 11.875 52.943C12.0217 52.657 12.1647 52.3673 12.304 52.074C12.4433 51.7733 12.557 51.502 12.645 51.26ZM13.888 52.514L14.581 52.833C14.3317 53.251 14.053 53.6947 13.745 54.164C13.4443 54.6333 13.14 55.0843 12.832 55.517C12.524 55.9497 12.2307 56.331 11.952 56.661L11.446 56.375C11.6513 56.1257 11.864 55.8433 12.084 55.528C12.3113 55.2053 12.5313 54.8717 12.744 54.527C12.964 54.175 13.1693 53.8267 13.36 53.482C13.558 53.13 13.734 52.8073 13.888 52.514ZM10.918 53.581L11.336 53.031C11.5413 53.1997 11.7467 53.3903 11.952 53.603C12.1647 53.8083 12.359 54.0137 12.535 54.219C12.711 54.417 12.8467 54.5967 12.942 54.758L12.491 55.385C12.3957 55.2163 12.26 55.0257 12.084 54.813C11.9153 54.593 11.7283 54.3767 11.523 54.164C11.3177 53.9513 11.116 53.757 10.918 53.581ZM13.492 55.077L14.075 54.835C14.229 55.0697 14.3757 55.3263 14.515 55.605C14.6543 55.8763 14.7753 56.144 14.878 56.408C14.988 56.6647 15.0687 56.8957 15.12 57.101L14.493 57.376C14.449 57.1707 14.372 56.936 14.262 56.672C14.1593 56.408 14.042 56.1367 13.91 55.858C13.778 55.572 13.6387 55.3117 13.492 55.077ZM10.874 56.188C11.358 56.1733 11.9263 56.1513 12.579 56.122C13.2317 56.0927 13.9063 56.0633 14.603 56.034L14.592 56.705C13.9393 56.749 13.294 56.793 12.656 56.837C12.018 56.8737 11.4497 56.9103 10.951 56.947L10.874 56.188ZM13.778 57.662L14.383 57.475C14.5297 57.783 14.669 58.1277 14.801 58.509C14.9403 58.883 15.0357 59.2057 15.087 59.477L14.46 59.697C14.4087 59.4183 14.317 59.092 14.185 58.718C14.0603 58.3367 13.9247 57.9847 13.778 57.662ZM11.501 57.552L12.205 57.673C12.1317 58.1937 12.029 58.707 11.897 59.213C11.765 59.7117 11.611 60.137 11.435 60.489C11.3837 60.4523 11.3177 60.4157 11.237 60.379C11.1637 60.3423 11.083 60.3057 10.995 60.269C10.9143 60.225 10.841 60.192 10.775 60.17C10.9657 59.8327 11.116 59.433 11.226 58.971C11.3433 58.5017 11.435 58.0287 11.501 57.552ZM12.678 56.496H13.415V61.402H12.678V56.496ZM29.475 53.537L30.344 53.801C29.882 55.143 29.288 56.3017 28.562 57.277C27.8433 58.2523 26.978 59.0737 25.966 59.741C24.9613 60.4083 23.7917 60.9583 22.457 61.391C22.4277 61.3177 22.38 61.2333 22.314 61.138C22.2553 61.0427 22.1893 60.9437 22.116 60.841C22.05 60.7383 21.9877 60.6577 21.929 60.599C23.2343 60.2177 24.3747 59.719 25.35 59.103C26.3253 58.4797 27.154 57.7133 27.836 56.804C28.518 55.8873 29.0643 54.7983 29.475 53.537ZM24.47 53.603C24.8733 54.7763 25.416 55.8323 26.098 56.771C26.7873 57.7023 27.6307 58.4907 28.628 59.136C29.6253 59.7813 30.7877 60.2617 32.115 60.577C32.049 60.6357 31.9757 60.7127 31.895 60.808C31.8217 60.9107 31.7483 61.0133 31.675 61.116C31.609 61.2187 31.554 61.3067 31.51 61.38C30.1533 61.028 28.969 60.5073 27.957 59.818C26.9523 59.1213 26.098 58.2743 25.394 57.277C24.69 56.2723 24.1107 55.1283 23.656 53.845L24.47 53.603ZM22.05 53.13H31.994V53.933H22.05V53.13ZM26.56 51.26H27.407V53.614H26.56V51.26ZM33.182 58.52H42.829V59.213H33.182V58.52ZM35.129 56.584H40.222V57.211H35.129V56.584ZM37.593 57.915H38.407V60.522C38.407 60.7347 38.374 60.896 38.308 61.006C38.2493 61.1233 38.132 61.2113 37.956 61.27C37.7873 61.3213 37.5563 61.3507 37.263 61.358C36.977 61.3727 36.6103 61.38 36.163 61.38C36.1483 61.27 36.1117 61.149 36.053 61.017C36.0017 60.8923 35.9503 60.7787 35.899 60.676C36.119 60.6833 36.328 60.687 36.526 60.687C36.7313 60.687 36.9073 60.687 37.054 60.687C37.208 60.687 37.3107 60.687 37.362 60.687C37.45 60.6797 37.5087 60.6613 37.538 60.632C37.5747 60.61 37.593 60.566 37.593 60.5V57.915ZM40.035 56.584H40.233L40.409 56.54L40.893 56.958C40.651 57.156 40.376 57.3503 40.068 57.541C39.7673 57.7243 39.4557 57.8967 39.133 58.058C38.8103 58.2193 38.495 58.3623 38.187 58.487C38.1357 58.4137 38.0697 58.333 37.989 58.245C37.9083 58.157 37.8387 58.091 37.78 58.047C38.0587 57.9443 38.3373 57.8197 38.616 57.673C38.902 57.5263 39.1697 57.3687 39.419 57.2C39.6683 57.0313 39.8737 56.8773 40.035 56.738V56.584ZM33.325 55.198H42.719V57.211H41.894V55.836H34.117V57.211H33.325V55.198ZM33.985 51.733L35.008 51.986C34.9787 52.0593 34.9053 52.1033 34.788 52.118L34.997 55.528H34.227L33.985 51.733ZM41.311 51.678H42.103C42.081 52.096 42.0553 52.5433 42.026 53.02C41.9967 53.4893 41.9637 53.9477 41.927 54.395C41.8903 54.8423 41.85 55.2273 41.806 55.55H41.014C41.0653 55.22 41.1093 54.8313 41.146 54.384C41.1827 53.9293 41.2157 53.4673 41.245 52.998C41.2743 52.5213 41.2963 52.0813 41.311 51.678ZM39.518 51.678H41.63V52.25H39.518V51.678ZM36.13 51.359L36.559 51.821C36.2583 51.953 35.9173 52.0703 35.536 52.173C35.162 52.2757 34.8247 52.36 34.524 52.426L34.15 51.986C34.3553 51.942 34.579 51.8833 34.821 51.81C35.063 51.7367 35.2977 51.6597 35.525 51.579C35.7597 51.491 35.9613 51.4177 36.13 51.359ZM34.458 52.844H36.471V53.416H34.458V52.844ZM34.513 54.021H36.515V54.582H34.513V54.021ZM39.562 52.844H41.531V53.416H39.562V52.844ZM39.507 54.021H41.465V54.582H39.507V54.021ZM38.517 51.37L39.089 51.546C38.8397 51.876 38.528 52.1913 38.154 52.492C37.78 52.7853 37.406 53.031 37.032 53.229C36.9807 53.1777 36.9073 53.1117 36.812 53.031C36.7167 52.943 36.6323 52.8733 36.559 52.822C36.933 52.646 37.296 52.4297 37.648 52.173C38.0073 51.9163 38.297 51.6487 38.517 51.37ZM36.867 51.832L37.274 51.48C37.494 51.5827 37.7213 51.7073 37.956 51.854C38.1907 51.9933 38.407 52.1363 38.605 52.283C38.8103 52.4297 38.9753 52.569 39.1 52.701L38.682 53.097C38.5573 52.965 38.3923 52.8257 38.187 52.679C37.989 52.525 37.7727 52.3747 37.538 52.228C37.3107 52.074 37.087 51.942 36.867 51.832ZM38.616 53.185L39.21 53.361C38.9533 53.7057 38.627 54.0357 38.231 54.351C37.8423 54.6663 37.4537 54.9303 37.065 55.143C37.0137 55.0843 36.9403 55.0147 36.845 54.934C36.7497 54.846 36.6617 54.7763 36.581 54.725C36.977 54.5417 37.3583 54.318 37.725 54.054C38.0917 53.7827 38.3887 53.493 38.616 53.185ZM36.944 53.702L37.362 53.35C37.582 53.46 37.8093 53.5883 38.044 53.735C38.2787 53.8817 38.4987 54.0357 38.704 54.197C38.9167 54.351 39.089 54.4977 39.221 54.637L38.77 55.033C38.6527 54.8937 38.4913 54.747 38.286 54.593C38.0807 54.4317 37.8607 54.274 37.626 54.12C37.3913 53.9587 37.164 53.8193 36.944 53.702ZM50.232 51.293H51.046V52.932H50.232V51.293ZM47.592 52.525H53.906V54.538H53.136V53.251H48.34V54.549H47.592V52.525ZM48.472 54.483H53.015V55.209H48.472V54.483ZM47.713 56.463H53.928V57.211H47.713V56.463ZM49.198 56.782H49.99C49.9607 57.376 49.902 57.915 49.814 58.399C49.7333 58.8757 49.5977 59.3047 49.407 59.686C49.2237 60.06 48.9597 60.3863 48.615 60.665C48.2777 60.951 47.8377 61.193 47.295 61.391C47.273 61.325 47.2363 61.2517 47.185 61.171C47.1337 61.0903 47.075 61.0097 47.009 60.929C46.9503 60.8557 46.8917 60.797 46.833 60.753C47.3243 60.5843 47.7203 60.379 48.021 60.137C48.3217 59.895 48.5527 59.6127 48.714 59.29C48.8753 58.9673 48.989 58.597 49.055 58.179C49.121 57.761 49.1687 57.2953 49.198 56.782ZM51.233 56.727H52.014V60.17C52.014 60.3093 52.0287 60.3973 52.058 60.434C52.0873 60.4707 52.1607 60.489 52.278 60.489C52.3147 60.489 52.3843 60.489 52.487 60.489C52.5897 60.489 52.696 60.489 52.806 60.489C52.916 60.489 52.9893 60.489 53.026 60.489C53.1067 60.489 53.1653 60.456 53.202 60.39C53.246 60.324 53.2753 60.1957 53.29 60.005C53.312 59.807 53.3267 59.51 53.334 59.114C53.3927 59.158 53.4623 59.202 53.543 59.246C53.6237 59.29 53.708 59.3267 53.796 59.356C53.8913 59.3853 53.972 59.411 54.038 59.433C54.016 59.9023 53.972 60.269 53.906 60.533C53.8473 60.797 53.7557 60.9767 53.631 61.072C53.5063 61.1747 53.334 61.226 53.114 61.226C53.0773 61.226 53.0113 61.226 52.916 61.226C52.828 61.226 52.7327 61.226 52.63 61.226C52.5273 61.226 52.432 61.226 52.344 61.226C52.2633 61.226 52.2047 61.226 52.168 61.226C51.9187 61.226 51.7243 61.193 51.585 61.127C51.453 61.0683 51.3613 60.962 51.31 60.808C51.2587 60.654 51.233 60.4413 51.233 60.17V56.727ZM44.391 51.733H46.976V52.481H45.128V61.38H44.391V51.733ZM46.734 51.733H46.877L46.998 51.7L47.537 52.019C47.427 52.3197 47.3097 52.6423 47.185 52.987C47.0677 53.3243 46.943 53.6617 46.811 53.999C46.6863 54.329 46.5617 54.6407 46.437 54.934C46.8403 55.3887 47.1043 55.814 47.229 56.21C47.361 56.5987 47.427 56.9653 47.427 57.31C47.427 57.6033 47.3903 57.86 47.317 58.08C47.251 58.3 47.141 58.465 46.987 58.575C46.9137 58.6263 46.8257 58.6703 46.723 58.707C46.6277 58.7363 46.525 58.7583 46.415 58.773C46.1877 58.795 45.942 58.8023 45.678 58.795C45.6707 58.6923 45.6487 58.5713 45.612 58.432C45.5827 58.2927 45.535 58.1717 45.469 58.069C45.5937 58.0763 45.711 58.08 45.821 58.08C45.931 58.08 46.0263 58.08 46.107 58.08C46.2537 58.0727 46.371 58.0397 46.459 57.981C46.547 57.915 46.6057 57.816 46.635 57.684C46.6717 57.5447 46.69 57.3943 46.69 57.233C46.69 56.925 46.6203 56.5913 46.481 56.232C46.349 55.8653 46.085 55.4657 45.689 55.033C45.7917 54.7837 45.8907 54.5197 45.986 54.241C46.0887 53.955 46.184 53.6763 46.272 53.405C46.3673 53.1263 46.4517 52.8623 46.525 52.613C46.6057 52.3637 46.6753 52.1473 46.734 51.964V51.733ZM55.182 58.52H64.829V59.213H55.182V58.52ZM57.129 56.584H62.222V57.211H57.129V56.584ZM59.593 57.915H60.407V60.522C60.407 60.7347 60.374 60.896 60.308 61.006C60.2493 61.1233 60.132 61.2113 59.956 61.27C59.7873 61.3213 59.5563 61.3507 59.263 61.358C58.977 61.3727 58.6103 61.38 58.163 61.38C58.1483 61.27 58.1117 61.149 58.053 61.017C58.0017 60.8923 57.9503 60.7787 57.899 60.676C58.119 60.6833 58.328 60.687 58.526 60.687C58.7313 60.687 58.9073 60.687 59.054 60.687C59.208 60.687 59.3107 60.687 59.362 60.687C59.45 60.6797 59.5087 60.6613 59.538 60.632C59.5747 60.61 59.593 60.566 59.593 60.5V57.915ZM62.035 56.584H62.233L62.409 56.54L62.893 56.958C62.651 57.156 62.376 57.3503 62.068 57.541C61.7673 57.7243 61.4557 57.8967 61.133 58.058C60.8103 58.2193 60.495 58.3623 60.187 58.487C60.1357 58.4137 60.0697 58.333 59.989 58.245C59.9083 58.157 59.8387 58.091 59.78 58.047C60.0587 57.9443 60.3373 57.8197 60.616 57.673C60.902 57.5263 61.1697 57.3687 61.419 57.2C61.6683 57.0313 61.8737 56.8773 62.035 56.738V56.584ZM55.325 55.198H64.719V57.211H63.894V55.836H56.117V57.211H55.325V55.198ZM55.985 51.733L57.008 51.986C56.9787 52.0593 56.9053 52.1033 56.788 52.118L56.997 55.528H56.227L55.985 51.733ZM63.311 51.678H64.103C64.081 52.096 64.0553 52.5433 64.026 53.02C63.9967 53.4893 63.9637 53.9477 63.927 54.395C63.8903 54.8423 63.85 55.2273 63.806 55.55H63.014C63.0653 55.22 63.1093 54.8313 63.146 54.384C63.1827 53.9293 63.2157 53.4673 63.245 52.998C63.2743 52.5213 63.2963 52.0813 63.311 51.678ZM61.518 51.678H63.63V52.25H61.518V51.678ZM58.13 51.359L58.559 51.821C58.2583 51.953 57.9173 52.0703 57.536 52.173C57.162 52.2757 56.8247 52.36 56.524 52.426L56.15 51.986C56.3553 51.942 56.579 51.8833 56.821 51.81C57.063 51.7367 57.2977 51.6597 57.525 51.579C57.7597 51.491 57.9613 51.4177 58.13 51.359ZM56.458 52.844H58.471V53.416H56.458V52.844ZM56.513 54.021H58.515V54.582H56.513V54.021ZM61.562 52.844H63.531V53.416H61.562V52.844ZM61.507 54.021H63.465V54.582H61.507V54.021ZM60.517 51.37L61.089 51.546C60.8397 51.876 60.528 52.1913 60.154 52.492C59.78 52.7853 59.406 53.031 59.032 53.229C58.9807 53.1777 58.9073 53.1117 58.812 53.031C58.7167 52.943 58.6323 52.8733 58.559 52.822C58.933 52.646 59.296 52.4297 59.648 52.173C60.0073 51.9163 60.297 51.6487 60.517 51.37ZM58.867 51.832L59.274 51.48C59.494 51.5827 59.7213 51.7073 59.956 51.854C60.1907 51.9933 60.407 52.1363 60.605 52.283C60.8103 52.4297 60.9753 52.569 61.1 52.701L60.682 53.097C60.5573 52.965 60.3923 52.8257 60.187 52.679C59.989 52.525 59.7727 52.3747 59.538 52.228C59.3107 52.074 59.087 51.942 58.867 51.832ZM60.616 53.185L61.21 53.361C60.9533 53.7057 60.627 54.0357 60.231 54.351C59.8423 54.6663 59.4537 54.9303 59.065 55.143C59.0137 55.0843 58.9403 55.0147 58.845 54.934C58.7497 54.846 58.6617 54.7763 58.581 54.725C58.977 54.5417 59.3583 54.318 59.725 54.054C60.0917 53.7827 60.3887 53.493 60.616 53.185ZM58.944 53.702L59.362 53.35C59.582 53.46 59.8093 53.5883 60.044 53.735C60.2787 53.8817 60.4987 54.0357 60.704 54.197C60.9167 54.351 61.089 54.4977 61.221 54.637L60.77 55.033C60.6527 54.8937 60.4913 54.747 60.286 54.593C60.0807 54.4317 59.8607 54.274 59.626 54.12C59.3913 53.9587 59.164 53.8193 58.944 53.702ZM67.799 53.394H75.411V54.197H67.799V53.394ZM67.315 56.628H75.015V57.42H67.315V56.628ZM66.105 60.225H75.939V61.028H66.105V60.225ZM70.593 51.26H71.451V60.621H70.593V51.26ZM68.129 51.436L68.965 51.623C68.811 52.1877 68.624 52.7413 68.404 53.284C68.184 53.8193 67.942 54.3217 67.678 54.791C67.414 55.253 67.1317 55.66 66.831 56.012C66.7797 55.9607 66.7063 55.9057 66.611 55.847C66.523 55.7883 66.4313 55.7297 66.336 55.671C66.248 55.605 66.1673 55.5537 66.094 55.517C66.3947 55.1943 66.6697 54.8167 66.919 54.384C67.1757 53.944 67.4067 53.4747 67.612 52.976C67.8173 52.4773 67.9897 51.964 68.129 51.436ZM77.941 53.031H81.285V60.225H77.941V59.477H80.526V53.768H77.941V53.031ZM77.457 53.031H78.216V61.094H77.457V53.031ZM77.886 56.089H80.922V56.815H77.886V56.089ZM79.14 51.238L80.031 51.392C79.921 51.7367 79.8 52.085 79.668 52.437C79.5433 52.789 79.426 53.0897 79.316 53.339L78.645 53.174C78.711 52.9907 78.7733 52.7853 78.832 52.558C78.898 52.3307 78.9567 52.0997 79.008 51.865C79.0667 51.6303 79.1107 51.4213 79.14 51.238ZM82.858 52.998H86.235V53.757H82.858V52.998ZM85.938 52.998H86.719C86.719 52.998 86.719 53.0237 86.719 53.075C86.719 53.1263 86.719 53.1887 86.719 53.262C86.719 53.328 86.7153 53.3793 86.708 53.416C86.664 54.6773 86.62 55.7443 86.576 56.617C86.5393 57.4897 86.4917 58.2047 86.433 58.762C86.3743 59.312 86.3047 59.741 86.224 60.049C86.1507 60.357 86.059 60.577 85.949 60.709C85.8243 60.8703 85.6923 60.9803 85.553 61.039C85.421 61.105 85.256 61.149 85.058 61.171C84.8747 61.1857 84.6327 61.1893 84.332 61.182C84.0387 61.182 83.7343 61.171 83.419 61.149C83.4117 61.0317 83.3823 60.896 83.331 60.742C83.287 60.588 83.2247 60.4597 83.144 60.357C83.5107 60.3863 83.8407 60.4047 84.134 60.412C84.4347 60.4193 84.651 60.423 84.783 60.423C84.893 60.423 84.981 60.412 85.047 60.39C85.1203 60.3607 85.19 60.3093 85.256 60.236C85.344 60.1407 85.421 59.9463 85.487 59.653C85.5603 59.3523 85.6227 58.927 85.674 58.377C85.7253 57.827 85.773 57.1267 85.817 56.276C85.861 55.418 85.9013 54.384 85.938 53.174V52.998ZM83.078 51.216L83.87 51.392C83.738 51.942 83.5767 52.481 83.386 53.009C83.2027 53.5297 82.9973 54.021 82.77 54.483C82.55 54.945 82.3153 55.352 82.066 55.704C82.0147 55.66 81.945 55.6087 81.857 55.55C81.7763 55.484 81.692 55.4253 81.604 55.374C81.516 55.3153 81.439 55.2677 81.373 55.231C81.6297 54.901 81.8643 54.5233 82.077 54.098C82.2897 53.6653 82.4803 53.2033 82.649 52.712C82.8177 52.2207 82.9607 51.722 83.078 51.216ZM82.572 55.847L83.221 55.484C83.4263 55.7407 83.639 56.023 83.859 56.331C84.0863 56.639 84.2953 56.936 84.486 57.222C84.684 57.508 84.8417 57.761 84.959 57.981L84.255 58.421C84.145 58.1937 83.9947 57.9333 83.804 57.64C83.6207 57.3393 83.419 57.035 83.199 56.727C82.9863 56.4117 82.7773 56.1183 82.572 55.847ZM92.329 57.684H94.562V58.267H92.329V57.684ZM91.713 52.36H95.178V52.998H91.713V52.36ZM91.394 54.769H98.071V55.44H91.394V54.769ZM92.461 56.1H94.936V59.873H92.461V59.268H94.254V56.716H92.461V56.1ZM91.977 56.1H92.648V60.577H91.977V56.1ZM93.033 51.271H93.759V52.811H93.033V51.271ZM97.081 56.001L97.774 56.155C97.466 57.3137 97.026 58.333 96.454 59.213C95.882 60.0857 95.189 60.808 94.375 61.38C94.3457 61.336 94.3017 61.2773 94.243 61.204C94.1843 61.138 94.1183 61.0683 94.045 60.995C93.979 60.929 93.9203 60.874 93.869 60.83C94.6683 60.324 95.3357 59.6603 95.871 58.839C96.4063 58.0103 96.8097 57.0643 97.081 56.001ZM92.043 53.207L92.604 53.075C92.714 53.3097 92.802 53.5737 92.868 53.867C92.934 54.153 92.9743 54.4023 92.989 54.615L92.384 54.758C92.3767 54.5453 92.34 54.296 92.274 54.01C92.208 53.724 92.131 53.4563 92.043 53.207ZM96.355 51.964L96.916 51.667C97.158 51.9383 97.3853 52.2427 97.598 52.58C97.818 52.9173 97.9793 53.2143 98.082 53.471L97.477 53.801C97.3817 53.5443 97.2277 53.2437 97.015 52.899C96.8097 52.547 96.5897 52.2353 96.355 51.964ZM94.133 53.053L94.815 53.207C94.727 53.4637 94.639 53.735 94.551 54.021C94.463 54.307 94.3823 54.5453 94.309 54.736L93.759 54.604C93.825 54.384 93.8947 54.1273 93.968 53.834C94.0487 53.5333 94.1037 53.273 94.133 53.053ZM88.05 51.733H91.724V52.47H88.05V51.733ZM88.908 54.043H90.899V54.736H88.908V54.043ZM88.908 56.32H90.899V57.013H88.908V56.32ZM88.567 52.107H89.271V59.147H88.567V52.107ZM90.47 52.107H91.185V61.38H90.47V52.107ZM87.863 59.048C88.2517 58.9747 88.7063 58.8903 89.227 58.795C89.7477 58.6923 90.2867 58.5823 90.844 58.465L90.899 59.18C90.393 59.29 89.887 59.4 89.381 59.51C88.875 59.62 88.4167 59.7227 88.006 59.818L87.863 59.048ZM95.431 51.271H96.179C96.1717 52.2537 96.1827 53.196 96.212 54.098C96.2487 55 96.2927 55.8323 96.344 56.595C96.4027 57.3577 96.4723 58.0213 96.553 58.586C96.641 59.1507 96.74 59.5943 96.85 59.917C96.9673 60.2323 97.0957 60.3937 97.235 60.401C97.323 60.401 97.3963 60.258 97.455 59.972C97.521 59.6787 97.5687 59.2717 97.598 58.751C97.642 58.8097 97.7007 58.8683 97.774 58.927C97.8473 58.9857 97.9207 59.037 97.994 59.081C98.0673 59.125 98.126 59.1617 98.17 59.191C98.0967 59.763 98.0087 60.2067 97.906 60.522C97.8033 60.8373 97.6897 61.0537 97.565 61.171C97.4477 61.2957 97.3303 61.358 97.213 61.358C96.927 61.3507 96.6813 61.1783 96.476 60.841C96.278 60.511 96.113 60.0417 95.981 59.433C95.8563 58.8243 95.7537 58.102 95.673 57.266C95.5997 56.43 95.5447 55.506 95.508 54.494C95.4713 53.482 95.4457 52.4077 95.431 51.271ZM102.658 51.788H109.005V52.514H102.658V51.788ZM102.317 51.788H103.098V54.879C103.098 55.3557 103.083 55.8727 103.054 56.43C103.025 56.9873 102.962 57.5593 102.867 58.146C102.772 58.7327 102.632 59.3047 102.449 59.862C102.273 60.412 102.031 60.918 101.723 61.38C101.672 61.3433 101.602 61.2993 101.514 61.248C101.433 61.1967 101.349 61.1453 101.261 61.094C101.173 61.05 101.096 61.017 101.03 60.995C101.323 60.5477 101.554 60.0673 101.723 59.554C101.899 59.0333 102.027 58.5017 102.108 57.959C102.196 57.409 102.251 56.87 102.273 56.342C102.302 55.814 102.317 55.3263 102.317 54.879V51.788ZM103.318 55.935H108.928V56.639H103.318V55.935ZM103.769 53.867H108.543V54.549H103.769V53.867ZM105.716 52.778H106.486V56.199H105.716V52.778ZM102.801 60.335H109.06V61.039H102.801V60.335ZM103.494 58.036H108.741V58.729H103.494V58.036ZM105.716 56.892H106.486V60.665H105.716V56.892ZM99.479 51.953L99.952 51.359C100.172 51.4543 100.403 51.5717 100.645 51.711C100.887 51.843 101.111 51.9823 101.316 52.129C101.529 52.2683 101.701 52.4003 101.833 52.525L101.349 53.207C101.217 53.075 101.045 52.932 100.832 52.778C100.627 52.624 100.407 52.4773 100.172 52.338C99.9373 52.1913 99.7063 52.063 99.479 51.953ZM98.918 54.923L99.38 54.307C99.6 54.395 99.831 54.5013 100.073 54.626C100.315 54.7507 100.542 54.8827 100.755 55.022C100.975 55.154 101.151 55.2823 101.283 55.407L100.81 56.078C100.678 55.9533 100.506 55.8213 100.293 55.682C100.08 55.5427 99.853 55.407 99.611 55.275C99.3763 55.1357 99.1453 55.0183 98.918 54.923ZM99.16 60.753C99.3287 60.467 99.512 60.126 99.71 59.73C99.908 59.334 100.106 58.9123 100.304 58.465C100.502 58.0177 100.685 57.5887 100.854 57.178L101.525 57.64C101.378 58.0287 101.213 58.4357 101.03 58.861C100.847 59.279 100.66 59.6933 100.469 60.104C100.278 60.5073 100.095 60.8813 99.919 61.226L99.16 60.753ZM113.999 51.876H119.928V52.613H113.999V51.876ZM114.307 57.519H119.653V58.267H114.307V57.519ZM113.603 60.335H120.071V61.072H113.603V60.335ZM116.529 57.816H117.354V60.786H116.529V57.816ZM115.055 52.954L115.77 53.152C115.631 53.4307 115.462 53.735 115.264 54.065C115.066 54.3877 114.875 54.6883 114.692 54.967C114.934 55.2897 115.165 55.627 115.385 55.979C115.605 56.331 115.774 56.6317 115.891 56.881L115.198 57.178C115.088 56.8847 114.916 56.54 114.681 56.144C114.446 55.748 114.186 55.3593 113.9 54.978C114.047 54.7507 114.193 54.516 114.34 54.274C114.487 54.032 114.622 53.7973 114.747 53.57C114.872 53.3353 114.974 53.13 115.055 52.954ZM116.969 52.954L117.684 53.152C117.537 53.4307 117.358 53.7313 117.145 54.054C116.94 54.3767 116.745 54.681 116.562 54.967C116.731 55.1797 116.896 55.4033 117.057 55.638C117.218 55.8653 117.365 56.089 117.497 56.309C117.636 56.5217 117.746 56.7087 117.827 56.87L117.156 57.178C117.031 56.8847 116.841 56.54 116.584 56.144C116.335 55.748 116.056 55.3593 115.748 54.978C115.909 54.758 116.067 54.527 116.221 54.285C116.375 54.0357 116.518 53.7973 116.65 53.57C116.782 53.3353 116.888 53.13 116.969 52.954ZM118.872 52.954L119.587 53.152C119.426 53.4307 119.239 53.7313 119.026 54.054C118.821 54.3767 118.623 54.681 118.432 54.967C118.608 55.1723 118.78 55.3923 118.949 55.627C119.118 55.8543 119.275 56.0743 119.422 56.287C119.569 56.4997 119.69 56.6903 119.785 56.859L119.114 57.178C118.975 56.8847 118.769 56.54 118.498 56.144C118.227 55.748 117.933 55.3593 117.618 54.978C117.779 54.758 117.937 54.527 118.091 54.285C118.252 54.0357 118.399 53.7973 118.531 53.57C118.67 53.3353 118.784 53.13 118.872 52.954ZM111.656 51.26L112.382 51.535C112.25 51.8063 112.103 52.0887 111.942 52.382C111.788 52.6753 111.63 52.9613 111.469 53.24C111.315 53.5113 111.168 53.7497 111.029 53.955L110.457 53.702C110.596 53.4893 110.739 53.24 110.886 52.954C111.04 52.668 111.183 52.3747 111.315 52.074C111.454 51.7733 111.568 51.502 111.656 51.26ZM112.888 52.514L113.581 52.844C113.332 53.2473 113.053 53.68 112.745 54.142C112.437 54.5967 112.125 55.0367 111.81 55.462C111.502 55.8873 111.209 56.2577 110.93 56.573L110.424 56.287C110.629 56.045 110.846 55.77 111.073 55.462C111.3 55.1467 111.524 54.8203 111.744 54.483C111.964 54.1383 112.173 53.7973 112.371 53.46C112.569 53.1227 112.741 52.8073 112.888 52.514ZM109.907 53.559L110.336 53.031C110.534 53.207 110.732 53.4013 110.93 53.614C111.135 53.8267 111.322 54.0357 111.491 54.241C111.66 54.4463 111.792 54.6333 111.887 54.802L111.425 55.418C111.33 55.242 111.198 55.044 111.029 54.824C110.868 54.604 110.688 54.384 110.49 54.164C110.292 53.944 110.098 53.7423 109.907 53.559ZM112.459 55.033L113.064 54.791C113.218 55.0257 113.365 55.2823 113.504 55.561C113.643 55.8397 113.768 56.111 113.878 56.375C113.995 56.6317 114.08 56.859 114.131 57.057L113.471 57.365C113.427 57.1523 113.35 56.914 113.24 56.65C113.137 56.3787 113.02 56.1037 112.888 55.825C112.756 55.539 112.613 55.275 112.459 55.033ZM109.808 56.122C110.285 56.1 110.849 56.0743 111.502 56.045C112.162 56.0083 112.837 55.9717 113.526 55.935V56.628C112.881 56.672 112.239 56.716 111.601 56.76C110.97 56.7967 110.406 56.8297 109.907 56.859L109.808 56.122ZM112.756 57.695L113.361 57.519C113.5 57.8343 113.625 58.179 113.735 58.553C113.845 58.9197 113.918 59.2387 113.955 59.51L113.306 59.719C113.284 59.4403 113.218 59.114 113.108 58.74C113.005 58.3587 112.888 58.0103 112.756 57.695ZM110.479 57.552L111.172 57.662C111.099 58.1827 110.996 58.696 110.864 59.202C110.739 59.7007 110.593 60.126 110.424 60.478C110.38 60.4487 110.318 60.4157 110.237 60.379C110.156 60.335 110.076 60.2947 109.995 60.258C109.914 60.2213 109.845 60.192 109.786 60.17C109.969 59.8327 110.116 59.433 110.226 58.971C110.336 58.5017 110.42 58.0287 110.479 57.552ZM111.645 56.452H112.371V61.38H111.645V56.452ZM126.572 53.9H129.597V54.549H126.572V53.9ZM126.198 55.814V57.211H127.21V55.814H126.198ZM125.615 55.242H127.826V57.783H125.615V55.242ZM128.97 55.814V57.211H130.048V55.814H128.97ZM128.376 55.242H130.664V57.783H128.376V55.242ZM126.44 58.08L127.144 58.135C127.041 58.8683 126.854 59.51 126.583 60.06C126.312 60.6027 125.941 61.0537 125.472 61.413C125.443 61.369 125.395 61.314 125.329 61.248C125.27 61.1893 125.204 61.127 125.131 61.061C125.065 61.0023 125.003 60.9583 124.944 60.929C125.384 60.621 125.721 60.2287 125.956 59.752C126.198 59.268 126.359 58.7107 126.44 58.08ZM126.308 59.499L126.77 59.081C126.997 59.2863 127.232 59.5137 127.474 59.763C127.723 60.005 127.914 60.214 128.046 60.39L127.573 60.885C127.441 60.6943 127.254 60.4707 127.012 60.214C126.77 59.95 126.535 59.7117 126.308 59.499ZM129.19 58.069L129.905 58.124C129.802 58.85 129.608 59.488 129.322 60.038C129.043 60.5807 128.673 61.028 128.211 61.38C128.182 61.3433 128.134 61.292 128.068 61.226C128.002 61.16 127.932 61.094 127.859 61.028C127.793 60.9693 127.731 60.9217 127.672 60.885C128.105 60.5843 128.442 60.1957 128.684 59.719C128.933 59.2423 129.102 58.6923 129.19 58.069ZM129.025 59.554L129.542 59.191C129.733 59.367 129.927 59.565 130.125 59.785C130.33 59.9977 130.521 60.2067 130.697 60.412C130.88 60.61 131.027 60.7897 131.137 60.951L130.587 61.38C130.484 61.2113 130.345 61.0207 130.169 60.808C129.993 60.5953 129.806 60.379 129.608 60.159C129.41 59.939 129.216 59.7373 129.025 59.554ZM128.024 52.03C127.841 52.36 127.61 52.6973 127.331 53.042C127.052 53.3867 126.741 53.713 126.396 54.021C126.059 54.3217 125.699 54.5893 125.318 54.824C125.281 54.7213 125.223 54.6077 125.142 54.483C125.061 54.351 124.984 54.241 124.911 54.153C125.292 53.9403 125.655 53.68 126 53.372C126.345 53.0567 126.656 52.7193 126.935 52.36C127.214 52.0007 127.441 51.645 127.617 51.293H128.376C128.603 51.667 128.871 52.0337 129.179 52.393C129.494 52.745 129.824 53.064 130.169 53.35C130.521 53.636 130.873 53.8743 131.225 54.065C131.152 54.153 131.071 54.2667 130.983 54.406C130.902 54.5453 130.836 54.67 130.785 54.78C130.44 54.5673 130.096 54.3107 129.751 54.01C129.406 53.7093 129.084 53.3903 128.783 53.053C128.482 52.7083 128.229 52.3673 128.024 52.03ZM121.842 53.394H124.9V54.043H121.842V53.394ZM121.842 55.044H124.911V55.693H121.842V55.044ZM121.424 56.716H124.779V57.376H121.424V56.716ZM123.074 52.085H123.745V57.057H123.074V52.085ZM123.415 57.981L123.778 57.849C123.925 58.069 124.057 58.3147 124.174 58.586C124.299 58.85 124.39 59.0773 124.449 59.268L124.042 59.433C123.991 59.2277 123.903 58.993 123.778 58.729C123.661 58.4577 123.54 58.2083 123.415 57.981ZM122.733 58.135L123.14 58.047C123.25 58.3257 123.345 58.6337 123.426 58.971C123.514 59.301 123.569 59.5833 123.591 59.818L123.173 59.917C123.151 59.6823 123.1 59.3963 123.019 59.059C122.938 58.7217 122.843 58.4137 122.733 58.135ZM122.062 58.256L122.491 58.201C122.542 58.5237 122.583 58.872 122.612 59.246C122.649 59.6127 122.663 59.928 122.656 60.192L122.194 60.258C122.209 59.9867 122.205 59.664 122.183 59.29C122.161 58.916 122.121 58.5713 122.062 58.256ZM121.347 58.047L121.853 58.146C121.838 58.4687 121.809 58.795 121.765 59.125C121.728 59.4477 121.673 59.752 121.6 60.038C121.534 60.324 121.431 60.5697 121.292 60.775L120.819 60.511C121.01 60.2323 121.138 59.8693 121.204 59.422C121.277 58.9673 121.325 58.509 121.347 58.047ZM121.424 51.7H125.109V52.382H122.106V57.09H121.424V51.7ZM124.515 56.716H125.197C125.197 56.716 125.197 56.7563 125.197 56.837C125.197 56.9177 125.193 56.9837 125.186 57.035C125.149 57.9517 125.113 58.6887 125.076 59.246C125.039 59.796 124.992 60.214 124.933 60.5C124.882 60.7787 124.812 60.973 124.724 61.083C124.643 61.1783 124.559 61.248 124.471 61.292C124.383 61.336 124.277 61.3617 124.152 61.369C124.049 61.3837 123.91 61.3873 123.734 61.38C123.565 61.38 123.386 61.38 123.195 61.38C123.188 61.2773 123.169 61.1637 123.14 61.039C123.111 60.9217 123.074 60.8153 123.03 60.72C123.206 60.742 123.367 60.753 123.514 60.753C123.668 60.7603 123.778 60.764 123.844 60.764C123.917 60.764 123.976 60.7567 124.02 60.742C124.064 60.7273 124.104 60.6943 124.141 60.643C124.2 60.5697 124.251 60.4047 124.295 60.148C124.339 59.884 124.379 59.488 124.416 58.96C124.453 58.4247 124.486 57.7207 124.515 56.848V56.716ZM133.557 55.418H139.86V56.221H133.557V55.418ZM139.574 55.418H140.432C140.432 55.418 140.432 55.4437 140.432 55.495C140.432 55.5463 140.432 55.605 140.432 55.671C140.432 55.7297 140.428 55.7773 140.421 55.814C140.377 56.672 140.333 57.4017 140.289 58.003C140.252 58.597 140.205 59.092 140.146 59.488C140.095 59.884 140.036 60.1957 139.97 60.423C139.904 60.6503 139.82 60.8153 139.717 60.918C139.607 61.0573 139.486 61.1527 139.354 61.204C139.222 61.2627 139.061 61.2993 138.87 61.314C138.687 61.3287 138.434 61.3323 138.111 61.325C137.796 61.325 137.466 61.314 137.121 61.292C137.114 61.1673 137.084 61.028 137.033 60.874C136.989 60.72 136.927 60.5843 136.846 60.467C137.205 60.4963 137.539 60.5147 137.847 60.522C138.155 60.5367 138.375 60.544 138.507 60.544C138.617 60.544 138.709 60.533 138.782 60.511C138.855 60.489 138.918 60.4523 138.969 60.401C139.079 60.2983 139.167 60.0783 139.233 59.741C139.306 59.3963 139.369 58.8903 139.42 58.223C139.479 57.5483 139.53 56.6683 139.574 55.583V55.418ZM135.064 51.48L135.944 51.733C135.673 52.349 135.354 52.9393 134.987 53.504C134.628 54.0687 134.232 54.5857 133.799 55.055C133.374 55.5243 132.93 55.935 132.468 56.287C132.417 56.2283 132.347 56.1587 132.259 56.078C132.171 55.9973 132.079 55.9167 131.984 55.836C131.896 55.7553 131.819 55.6893 131.753 55.638C132.222 55.33 132.666 54.9597 133.084 54.527C133.502 54.0943 133.88 53.6213 134.217 53.108C134.554 52.5873 134.837 52.0447 135.064 51.48ZM138.903 51.458C139.079 51.8247 139.295 52.2023 139.552 52.591C139.809 52.9723 140.087 53.3427 140.388 53.702C140.689 54.054 140.997 54.384 141.312 54.692C141.635 54.9927 141.946 55.2493 142.247 55.462C142.174 55.5207 142.089 55.594 141.994 55.682C141.906 55.7627 141.822 55.847 141.741 55.935C141.668 56.023 141.605 56.1073 141.554 56.188C141.246 55.9387 140.934 55.649 140.619 55.319C140.304 54.9817 139.992 54.6187 139.684 54.23C139.383 53.8413 139.097 53.438 138.826 53.02C138.562 52.602 138.324 52.1877 138.111 51.777L138.903 51.458ZM135.878 55.649H136.769C136.71 56.2503 136.615 56.837 136.483 57.409C136.351 57.981 136.149 58.52 135.878 59.026C135.607 59.532 135.229 59.9903 134.745 60.401C134.268 60.8117 133.645 61.1563 132.875 61.435C132.838 61.3617 132.791 61.2773 132.732 61.182C132.673 61.094 132.607 61.006 132.534 60.918C132.468 60.8373 132.402 60.7677 132.336 60.709C133.055 60.4743 133.634 60.1773 134.074 59.818C134.521 59.4513 134.866 59.0443 135.108 58.597C135.35 58.1497 135.526 57.6767 135.636 57.178C135.746 56.6793 135.827 56.1697 135.878 55.649ZM143.094 58.531H152.928V59.257H143.094V58.531ZM147.538 51.249H148.407V52.646H147.538V51.249ZM144.128 56.54H151.069V57.211H144.128V56.54ZM147.549 57.882H148.418V60.544C148.418 60.7713 148.378 60.94 148.297 61.05C148.224 61.1673 148.088 61.2517 147.89 61.303C147.699 61.3543 147.439 61.3837 147.109 61.391C146.786 61.3983 146.379 61.402 145.888 61.402C145.866 61.2993 145.826 61.1857 145.767 61.061C145.708 60.9363 145.65 60.8227 145.591 60.72C145.848 60.7273 146.093 60.731 146.328 60.731C146.563 60.7383 146.764 60.7383 146.933 60.731C147.109 60.731 147.23 60.731 147.296 60.731C147.391 60.7237 147.457 60.7053 147.494 60.676C147.531 60.6467 147.549 60.5953 147.549 60.522V57.882ZM150.893 56.54H151.113L151.3 56.496L151.85 56.958C151.52 57.1633 151.146 57.3577 150.728 57.541C150.317 57.7243 149.888 57.893 149.441 58.047C149.001 58.1937 148.565 58.322 148.132 58.432C148.081 58.3587 148.011 58.278 147.923 58.19C147.835 58.0947 147.762 58.0213 147.703 57.97C148.092 57.8747 148.484 57.7573 148.88 57.618C149.283 57.4713 149.661 57.321 150.013 57.167C150.365 57.0057 150.658 56.8517 150.893 56.705V56.54ZM145.415 54.263V55.253H150.607V54.263H145.415ZM144.59 53.647H151.476V55.869H144.59V53.647ZM143.204 52.217H152.785V52.932H143.204V52.217ZM154.655 51.997H163.323V52.822H154.655V51.997ZM154.072 56.672H163.939V57.497H154.072V56.672ZM155.414 53.57L156.162 53.35C156.309 53.614 156.452 53.8963 156.591 54.197C156.73 54.4977 156.855 54.7947 156.965 55.088C157.082 55.374 157.163 55.6233 157.207 55.836L156.426 56.111C156.375 55.891 156.294 55.638 156.184 55.352C156.081 55.0587 155.964 54.758 155.832 54.45C155.7 54.1347 155.561 53.8413 155.414 53.57ZM161.805 53.295L162.674 53.537C162.542 53.8377 162.395 54.1457 162.234 54.461C162.08 54.7763 161.926 55.0807 161.772 55.374C161.618 55.6673 161.468 55.924 161.321 56.144L160.606 55.913C160.745 55.6783 160.888 55.4107 161.035 55.11C161.189 54.802 161.332 54.4903 161.464 54.175C161.596 53.8523 161.71 53.559 161.805 53.295ZM158.549 52.316H159.407V61.369H158.549V52.316ZM166.876 60.093H173.069V60.885H166.876V60.093ZM166.491 56.683H173.509V61.358H172.629V57.475H167.338V61.38H166.491V56.683ZM168.702 51.216L169.615 51.535C169.395 51.9603 169.149 52.404 168.878 52.866C168.614 53.3207 168.346 53.7607 168.075 54.186C167.804 54.604 167.543 54.9743 167.294 55.297L166.568 54.989C166.817 54.6663 167.074 54.2887 167.338 53.856C167.602 53.416 167.851 52.965 168.086 52.503C168.328 52.041 168.533 51.612 168.702 51.216ZM171.353 52.998L172.002 52.525C172.376 52.8183 172.757 53.1483 173.146 53.515C173.535 53.8743 173.89 54.241 174.213 54.615C174.543 54.9817 174.803 55.3153 174.994 55.616L174.279 56.166C174.103 55.8653 173.854 55.528 173.531 55.154C173.216 54.78 172.867 54.406 172.486 54.032C172.105 53.6507 171.727 53.306 171.353 52.998ZM165.193 54.637C165.714 54.6223 166.308 54.604 166.975 54.582C167.642 54.5527 168.354 54.5233 169.109 54.494C169.872 54.4647 170.649 54.4317 171.441 54.395C172.24 54.3583 173.029 54.3253 173.806 54.296L173.762 55.088C172.992 55.132 172.215 55.1723 171.43 55.209C170.653 55.2383 169.89 55.2713 169.142 55.308C168.394 55.3447 167.69 55.3777 167.03 55.407C166.37 55.429 165.78 55.451 165.259 55.473L165.193 54.637Z" fill="black"/>
</g>
<defs>
<clipPath id="clip0_8_791">
<rect width="395" height="67" fill="white" transform="translate(0.5 0.5)"/>
</clipPath>
</defs>
</svg>
