<svg width="302" height="68" viewBox="0 0 302 68" fill="none" xmlns="http://www.w3.org/2000/svg">
<path d="M24.048 32.308H30.544V34.004H24.048V32.308ZM22.256 16.82H32.336V18.676H22.256V16.82ZM21.328 23.828H40.752V25.78H21.328V23.828ZM24.432 27.7H31.632V38.676H24.432V36.916H29.648V29.492H24.432V27.7ZM23.024 27.7H24.976V40.724H23.024V27.7ZM26.096 13.652H28.208V18.132H26.096V13.652ZM37.872 27.412L39.888 27.86C38.992 31.2307 37.712 34.196 36.048 36.756C34.384 39.2947 32.368 41.396 30 43.06C29.9147 42.932 29.7867 42.7613 29.616 42.548C29.4453 42.356 29.2533 42.1533 29.04 41.94C28.848 41.748 28.6773 41.588 28.528 41.46C30.8533 39.988 32.7947 38.0573 34.352 35.668C35.9093 33.2573 37.0827 30.5053 37.872 27.412ZM23.216 19.284L24.848 18.9C25.168 19.5827 25.424 20.3507 25.616 21.204C25.808 22.036 25.9253 22.7613 25.968 23.38L24.208 23.796C24.1867 23.1773 24.08 22.452 23.888 21.62C23.696 20.788 23.472 20.0093 23.216 19.284ZM35.76 15.668L37.392 14.804C38.096 15.5933 38.7573 16.4787 39.376 17.46C40.016 18.4413 40.4853 19.3053 40.784 20.052L39.024 21.012C38.7467 20.2653 38.2987 19.3907 37.68 18.388C37.0827 17.364 36.4427 16.4573 35.76 15.668ZM29.296 18.836L31.28 19.284C31.024 20.0307 30.768 20.82 30.512 21.652C30.256 22.484 30.0213 23.1773 29.808 23.732L28.208 23.348C28.4 22.708 28.6027 21.9613 28.816 21.108C29.0507 20.2333 29.2107 19.476 29.296 18.836ZM11.6 14.996H22.288V17.14H11.6V14.996ZM14.096 21.716H19.888V23.732H14.096V21.716ZM14.096 28.34H19.888V30.356H14.096V28.34ZM13.104 16.084H15.152V36.564H13.104V16.084ZM18.64 16.084H20.72V43.06H18.64V16.084ZM11.056 36.276C12.1867 36.0627 13.5093 35.8173 15.024 35.54C16.5387 35.2413 18.1067 34.9213 19.728 34.58L19.888 36.66C18.416 36.98 16.944 37.3 15.472 37.62C14 37.94 12.6667 38.2387 11.472 38.516L11.056 36.276ZM33.072 13.652H35.248C35.2267 16.5107 35.2587 19.252 35.344 21.876C35.4507 24.5 35.5787 26.9213 35.728 29.14C35.8987 31.3587 36.1013 33.2893 36.336 34.932C36.592 36.5747 36.88 37.8653 37.2 38.804C37.5413 39.7213 37.9147 40.1907 38.32 40.212C38.576 40.212 38.7893 39.796 38.96 38.964C39.152 38.1107 39.2907 36.9267 39.376 35.412C39.504 35.5827 39.6747 35.7533 39.888 35.924C40.1013 36.0947 40.3147 36.244 40.528 36.372C40.7413 36.5 40.912 36.6067 41.04 36.692C40.8267 38.356 40.5707 39.6467 40.272 40.564C39.9733 41.4813 39.6427 42.1107 39.28 42.452C38.9387 42.8147 38.5973 42.996 38.256 42.996C37.424 42.9747 36.7093 42.4733 36.112 41.492C35.536 40.532 35.056 39.1667 34.672 37.396C34.3093 35.6253 34.0107 33.524 33.776 31.092C33.5627 28.66 33.4027 25.972 33.296 23.028C33.1893 20.084 33.1147 16.9587 33.072 13.652ZM62.992 13.684H65.328V19.796H62.992V13.684ZM56.048 18.708H72.656V20.884H56.048V18.708ZM60.048 24.372H67.728V26.484H60.048V24.372ZM58.832 24.372H61.104V31.508C61.104 32.724 61.008 34.0253 60.816 35.412C60.6453 36.7987 60.304 38.1533 59.792 39.476C59.28 40.7987 58.4907 41.9827 57.424 43.028C57.296 42.8787 57.1147 42.7187 56.88 42.548C56.6667 42.3773 56.4427 42.2067 56.208 42.036C55.9733 41.8653 55.76 41.748 55.568 41.684C56.5493 40.7027 57.264 39.6253 57.712 38.452C58.1813 37.2787 58.48 36.0947 58.608 34.9C58.7573 33.684 58.832 32.5427 58.832 31.476V24.372ZM49.232 30.484H50.832V38.132H49.232V30.484ZM46.448 17.972H53.648V19.924H46.448V17.972ZM53.008 17.972H55.024V40.532C55.024 41.0867 54.9493 41.524 54.8 41.844C54.6507 42.1853 54.3947 42.4413 54.032 42.612C53.6693 42.7827 53.1787 42.8893 52.56 42.932C51.9413 42.9747 51.152 42.996 50.192 42.996C50.1493 42.7187 50.0533 42.388 49.904 42.004C49.776 41.62 49.648 41.3 49.52 41.044C50.2027 41.0653 50.8213 41.076 51.376 41.076C51.9307 41.076 52.2933 41.0653 52.464 41.044C52.8267 41.044 53.008 40.8627 53.008 40.5V17.972ZM45.52 17.972H47.472V29.62C47.472 30.644 47.44 31.7533 47.376 32.948C47.312 34.1427 47.1947 35.348 47.024 36.564C46.8533 37.7587 46.5867 38.9107 46.224 40.02C45.8827 41.1293 45.424 42.1427 44.848 43.06C44.72 42.932 44.5493 42.7933 44.336 42.644C44.144 42.516 43.9307 42.388 43.696 42.26C43.4827 42.132 43.2907 42.036 43.12 41.972C43.8667 40.7987 44.4 39.508 44.72 38.1C45.0613 36.6707 45.2747 35.22 45.36 33.748C45.4667 32.276 45.52 30.9 45.52 29.62V17.972ZM43.216 28.084C44.3467 27.9987 45.648 27.9133 47.12 27.828C48.592 27.7427 50.16 27.6467 51.824 27.54C53.5093 27.412 55.1947 27.284 56.88 27.156L56.912 29.108C55.2907 29.236 53.6693 29.364 52.048 29.492C50.4267 29.5987 48.88 29.7053 47.408 29.812C45.9573 29.9187 44.6453 30.0253 43.472 30.132L43.216 28.084ZM48.464 21.908L50 21.3C50.4267 21.9613 50.8213 22.6973 51.184 23.508C51.5467 24.3187 51.792 25.0333 51.92 25.652L50.288 26.356C50.16 25.7373 49.9253 25.012 49.584 24.18C49.2427 23.348 48.8693 22.5907 48.464 21.908ZM49.392 13.588L51.952 14.1C51.6533 14.9533 51.344 15.8173 51.024 16.692C50.704 17.5667 50.416 18.3133 50.16 18.932L48.048 18.484C48.304 17.8013 48.56 16.9907 48.816 16.052C49.072 15.1133 49.264 14.292 49.392 13.588ZM66.448 24.372H68.752V38.932C68.752 39.764 68.8053 40.2227 68.912 40.308C68.9973 40.4147 69.168 40.468 69.424 40.468C69.5093 40.468 69.6373 40.468 69.808 40.468C69.9787 40.468 70.1173 40.468 70.224 40.468C70.352 40.468 70.48 40.4573 70.608 40.436C70.736 40.4147 70.832 40.372 70.896 40.308C71.024 40.2013 71.12 39.9027 71.184 39.412C71.2053 39.1133 71.2267 38.6653 71.248 38.068C71.2693 37.4707 71.2907 36.7773 71.312 35.988C71.5253 36.1587 71.7813 36.3293 72.08 36.5C72.4 36.6707 72.7093 36.7987 73.008 36.884C73.008 37.6093 72.976 38.3667 72.912 39.156C72.8693 39.924 72.8053 40.468 72.72 40.788C72.5707 41.4067 72.2933 41.8547 71.888 42.132C71.696 42.26 71.4613 42.356 71.184 42.42C70.9067 42.484 70.6293 42.516 70.352 42.516C70.1387 42.516 69.872 42.516 69.552 42.516C69.2533 42.516 69.0187 42.516 68.848 42.516C68.528 42.516 68.208 42.4733 67.888 42.388C67.5893 42.3027 67.3227 42.1533 67.088 41.94C66.8533 41.7267 66.6827 41.4173 66.576 41.012C66.4907 40.6067 66.448 39.86 66.448 38.772V24.372Z" fill="#728594"/>
<path d="M15.566 54.89H19.24V55.638H15.566V54.89ZM15.522 59.994H19.471V60.742H15.522V59.994ZM17.326 52.206C17.1207 52.5727 16.864 52.9613 16.556 53.372C16.2553 53.7827 15.9217 54.186 15.555 54.582C15.1883 54.978 14.807 55.3337 14.411 55.649C14.3597 55.5463 14.2827 55.4253 14.18 55.286C14.0847 55.1467 13.9967 55.033 13.916 54.945C14.3193 54.6443 14.708 54.2887 15.082 53.878C15.4633 53.4673 15.8117 53.042 16.127 52.602C16.4423 52.162 16.6917 51.7477 16.875 51.359H17.678C17.942 51.7697 18.2463 52.195 18.591 52.635C18.9357 53.0677 19.2987 53.4747 19.68 53.856C20.0613 54.2373 20.4353 54.5637 20.802 54.835C20.714 54.9377 20.6223 55.0587 20.527 55.198C20.439 55.3373 20.3583 55.4693 20.285 55.594C19.9257 55.2933 19.559 54.9487 19.185 54.56C18.811 54.1713 18.4627 53.7717 18.14 53.361C17.8173 52.9503 17.546 52.5653 17.326 52.206ZM15.093 56.969H19.823V61.325H19.031V57.717H15.863V61.369H15.093V56.969ZM12.145 51.26L12.871 51.557C12.7317 51.8137 12.585 52.0887 12.431 52.382C12.277 52.6753 12.1193 52.9577 11.958 53.229C11.804 53.5003 11.6537 53.735 11.507 53.933L10.946 53.68C11.0853 53.4673 11.2283 53.2217 11.375 52.943C11.5217 52.657 11.6647 52.3673 11.804 52.074C11.9433 51.7733 12.057 51.502 12.145 51.26ZM13.388 52.514L14.081 52.833C13.8317 53.251 13.553 53.6947 13.245 54.164C12.9443 54.6333 12.64 55.0843 12.332 55.517C12.024 55.9497 11.7307 56.331 11.452 56.661L10.946 56.375C11.1513 56.1257 11.364 55.8433 11.584 55.528C11.8113 55.2053 12.0313 54.8717 12.244 54.527C12.464 54.175 12.6693 53.8267 12.86 53.482C13.058 53.13 13.234 52.8073 13.388 52.514ZM10.418 53.581L10.836 53.031C11.0413 53.1997 11.2467 53.3903 11.452 53.603C11.6647 53.8083 11.859 54.0137 12.035 54.219C12.211 54.417 12.3467 54.5967 12.442 54.758L11.991 55.385C11.8957 55.2163 11.76 55.0257 11.584 54.813C11.4153 54.593 11.2283 54.3767 11.023 54.164C10.8177 53.9513 10.616 53.757 10.418 53.581ZM12.992 55.077L13.575 54.835C13.729 55.0697 13.8757 55.3263 14.015 55.605C14.1543 55.8763 14.2753 56.144 14.378 56.408C14.488 56.6647 14.5687 56.8957 14.62 57.101L13.993 57.376C13.949 57.1707 13.872 56.936 13.762 56.672C13.6593 56.408 13.542 56.1367 13.41 55.858C13.278 55.572 13.1387 55.3117 12.992 55.077ZM10.374 56.188C10.858 56.1733 11.4263 56.1513 12.079 56.122C12.7317 56.0927 13.4063 56.0633 14.103 56.034L14.092 56.705C13.4393 56.749 12.794 56.793 12.156 56.837C11.518 56.8737 10.9497 56.9103 10.451 56.947L10.374 56.188ZM13.278 57.662L13.883 57.475C14.0297 57.783 14.169 58.1277 14.301 58.509C14.4403 58.883 14.5357 59.2057 14.587 59.477L13.96 59.697C13.9087 59.4183 13.817 59.092 13.685 58.718C13.5603 58.3367 13.4247 57.9847 13.278 57.662ZM11.001 57.552L11.705 57.673C11.6317 58.1937 11.529 58.707 11.397 59.213C11.265 59.7117 11.111 60.137 10.935 60.489C10.8837 60.4523 10.8177 60.4157 10.737 60.379C10.6637 60.3423 10.583 60.3057 10.495 60.269C10.4143 60.225 10.341 60.192 10.275 60.17C10.4657 59.8327 10.616 59.433 10.726 58.971C10.8433 58.5017 10.935 58.0287 11.001 57.552ZM12.178 56.496H12.915V61.402H12.178V56.496ZM28.975 53.537L29.844 53.801C29.382 55.143 28.788 56.3017 28.062 57.277C27.3433 58.2523 26.478 59.0737 25.466 59.741C24.4613 60.4083 23.2917 60.9583 21.957 61.391C21.9277 61.3177 21.88 61.2333 21.814 61.138C21.7553 61.0427 21.6893 60.9437 21.616 60.841C21.55 60.7383 21.4877 60.6577 21.429 60.599C22.7343 60.2177 23.8747 59.719 24.85 59.103C25.8253 58.4797 26.654 57.7133 27.336 56.804C28.018 55.8873 28.5643 54.7983 28.975 53.537ZM23.97 53.603C24.3733 54.7763 24.916 55.8323 25.598 56.771C26.2873 57.7023 27.1307 58.4907 28.128 59.136C29.1253 59.7813 30.2877 60.2617 31.615 60.577C31.549 60.6357 31.4757 60.7127 31.395 60.808C31.3217 60.9107 31.2483 61.0133 31.175 61.116C31.109 61.2187 31.054 61.3067 31.01 61.38C29.6533 61.028 28.469 60.5073 27.457 59.818C26.4523 59.1213 25.598 58.2743 24.894 57.277C24.19 56.2723 23.6107 55.1283 23.156 53.845L23.97 53.603ZM21.55 53.13H31.494V53.933H21.55V53.13ZM26.06 51.26H26.907V53.614H26.06V51.26ZM32.682 58.52H42.329V59.213H32.682V58.52ZM34.629 56.584H39.722V57.211H34.629V56.584ZM37.093 57.915H37.907V60.522C37.907 60.7347 37.874 60.896 37.808 61.006C37.7493 61.1233 37.632 61.2113 37.456 61.27C37.2873 61.3213 37.0563 61.3507 36.763 61.358C36.477 61.3727 36.1103 61.38 35.663 61.38C35.6483 61.27 35.6117 61.149 35.553 61.017C35.5017 60.8923 35.4503 60.7787 35.399 60.676C35.619 60.6833 35.828 60.687 36.026 60.687C36.2313 60.687 36.4073 60.687 36.554 60.687C36.708 60.687 36.8107 60.687 36.862 60.687C36.95 60.6797 37.0087 60.6613 37.038 60.632C37.0747 60.61 37.093 60.566 37.093 60.5V57.915ZM39.535 56.584H39.733L39.909 56.54L40.393 56.958C40.151 57.156 39.876 57.3503 39.568 57.541C39.2673 57.7243 38.9557 57.8967 38.633 58.058C38.3103 58.2193 37.995 58.3623 37.687 58.487C37.6357 58.4137 37.5697 58.333 37.489 58.245C37.4083 58.157 37.3387 58.091 37.28 58.047C37.5587 57.9443 37.8373 57.8197 38.116 57.673C38.402 57.5263 38.6697 57.3687 38.919 57.2C39.1683 57.0313 39.3737 56.8773 39.535 56.738V56.584ZM32.825 55.198H42.219V57.211H41.394V55.836H33.617V57.211H32.825V55.198ZM33.485 51.733L34.508 51.986C34.4787 52.0593 34.4053 52.1033 34.288 52.118L34.497 55.528H33.727L33.485 51.733ZM40.811 51.678H41.603C41.581 52.096 41.5553 52.5433 41.526 53.02C41.4967 53.4893 41.4637 53.9477 41.427 54.395C41.3903 54.8423 41.35 55.2273 41.306 55.55H40.514C40.5653 55.22 40.6093 54.8313 40.646 54.384C40.6827 53.9293 40.7157 53.4673 40.745 52.998C40.7743 52.5213 40.7963 52.0813 40.811 51.678ZM39.018 51.678H41.13V52.25H39.018V51.678ZM35.63 51.359L36.059 51.821C35.7583 51.953 35.4173 52.0703 35.036 52.173C34.662 52.2757 34.3247 52.36 34.024 52.426L33.65 51.986C33.8553 51.942 34.079 51.8833 34.321 51.81C34.563 51.7367 34.7977 51.6597 35.025 51.579C35.2597 51.491 35.4613 51.4177 35.63 51.359ZM33.958 52.844H35.971V53.416H33.958V52.844ZM34.013 54.021H36.015V54.582H34.013V54.021ZM39.062 52.844H41.031V53.416H39.062V52.844ZM39.007 54.021H40.965V54.582H39.007V54.021ZM38.017 51.37L38.589 51.546C38.3397 51.876 38.028 52.1913 37.654 52.492C37.28 52.7853 36.906 53.031 36.532 53.229C36.4807 53.1777 36.4073 53.1117 36.312 53.031C36.2167 52.943 36.1323 52.8733 36.059 52.822C36.433 52.646 36.796 52.4297 37.148 52.173C37.5073 51.9163 37.797 51.6487 38.017 51.37ZM36.367 51.832L36.774 51.48C36.994 51.5827 37.2213 51.7073 37.456 51.854C37.6907 51.9933 37.907 52.1363 38.105 52.283C38.3103 52.4297 38.4753 52.569 38.6 52.701L38.182 53.097C38.0573 52.965 37.8923 52.8257 37.687 52.679C37.489 52.525 37.2727 52.3747 37.038 52.228C36.8107 52.074 36.587 51.942 36.367 51.832ZM38.116 53.185L38.71 53.361C38.4533 53.7057 38.127 54.0357 37.731 54.351C37.3423 54.6663 36.9537 54.9303 36.565 55.143C36.5137 55.0843 36.4403 55.0147 36.345 54.934C36.2497 54.846 36.1617 54.7763 36.081 54.725C36.477 54.5417 36.8583 54.318 37.225 54.054C37.5917 53.7827 37.8887 53.493 38.116 53.185ZM36.444 53.702L36.862 53.35C37.082 53.46 37.3093 53.5883 37.544 53.735C37.7787 53.8817 37.9987 54.0357 38.204 54.197C38.4167 54.351 38.589 54.4977 38.721 54.637L38.27 55.033C38.1527 54.8937 37.9913 54.747 37.786 54.593C37.5807 54.4317 37.3607 54.274 37.126 54.12C36.8913 53.9587 36.664 53.8193 36.444 53.702ZM49.732 51.293H50.546V52.932H49.732V51.293ZM47.092 52.525H53.406V54.538H52.636V53.251H47.84V54.549H47.092V52.525ZM47.972 54.483H52.515V55.209H47.972V54.483ZM47.213 56.463H53.428V57.211H47.213V56.463ZM48.698 56.782H49.49C49.4607 57.376 49.402 57.915 49.314 58.399C49.2333 58.8757 49.0977 59.3047 48.907 59.686C48.7237 60.06 48.4597 60.3863 48.115 60.665C47.7777 60.951 47.3377 61.193 46.795 61.391C46.773 61.325 46.7363 61.2517 46.685 61.171C46.6337 61.0903 46.575 61.0097 46.509 60.929C46.4503 60.8557 46.3917 60.797 46.333 60.753C46.8243 60.5843 47.2203 60.379 47.521 60.137C47.8217 59.895 48.0527 59.6127 48.214 59.29C48.3753 58.9673 48.489 58.597 48.555 58.179C48.621 57.761 48.6687 57.2953 48.698 56.782ZM50.733 56.727H51.514V60.17C51.514 60.3093 51.5287 60.3973 51.558 60.434C51.5873 60.4707 51.6607 60.489 51.778 60.489C51.8147 60.489 51.8843 60.489 51.987 60.489C52.0897 60.489 52.196 60.489 52.306 60.489C52.416 60.489 52.4893 60.489 52.526 60.489C52.6067 60.489 52.6653 60.456 52.702 60.39C52.746 60.324 52.7753 60.1957 52.79 60.005C52.812 59.807 52.8267 59.51 52.834 59.114C52.8927 59.158 52.9623 59.202 53.043 59.246C53.1237 59.29 53.208 59.3267 53.296 59.356C53.3913 59.3853 53.472 59.411 53.538 59.433C53.516 59.9023 53.472 60.269 53.406 60.533C53.3473 60.797 53.2557 60.9767 53.131 61.072C53.0063 61.1747 52.834 61.226 52.614 61.226C52.5773 61.226 52.5113 61.226 52.416 61.226C52.328 61.226 52.2327 61.226 52.13 61.226C52.0273 61.226 51.932 61.226 51.844 61.226C51.7633 61.226 51.7047 61.226 51.668 61.226C51.4187 61.226 51.2243 61.193 51.085 61.127C50.953 61.0683 50.8613 60.962 50.81 60.808C50.7587 60.654 50.733 60.4413 50.733 60.17V56.727ZM43.891 51.733H46.476V52.481H44.628V61.38H43.891V51.733ZM46.234 51.733H46.377L46.498 51.7L47.037 52.019C46.927 52.3197 46.8097 52.6423 46.685 52.987C46.5677 53.3243 46.443 53.6617 46.311 53.999C46.1863 54.329 46.0617 54.6407 45.937 54.934C46.3403 55.3887 46.6043 55.814 46.729 56.21C46.861 56.5987 46.927 56.9653 46.927 57.31C46.927 57.6033 46.8903 57.86 46.817 58.08C46.751 58.3 46.641 58.465 46.487 58.575C46.4137 58.6263 46.3257 58.6703 46.223 58.707C46.1277 58.7363 46.025 58.7583 45.915 58.773C45.6877 58.795 45.442 58.8023 45.178 58.795C45.1707 58.6923 45.1487 58.5713 45.112 58.432C45.0827 58.2927 45.035 58.1717 44.969 58.069C45.0937 58.0763 45.211 58.08 45.321 58.08C45.431 58.08 45.5263 58.08 45.607 58.08C45.7537 58.0727 45.871 58.0397 45.959 57.981C46.047 57.915 46.1057 57.816 46.135 57.684C46.1717 57.5447 46.19 57.3943 46.19 57.233C46.19 56.925 46.1203 56.5913 45.981 56.232C45.849 55.8653 45.585 55.4657 45.189 55.033C45.2917 54.7837 45.3907 54.5197 45.486 54.241C45.5887 53.955 45.684 53.6763 45.772 53.405C45.8673 53.1263 45.9517 52.8623 46.025 52.613C46.1057 52.3637 46.1753 52.1473 46.234 51.964V51.733ZM54.682 58.52H64.329V59.213H54.682V58.52ZM56.629 56.584H61.722V57.211H56.629V56.584ZM59.093 57.915H59.907V60.522C59.907 60.7347 59.874 60.896 59.808 61.006C59.7493 61.1233 59.632 61.2113 59.456 61.27C59.2873 61.3213 59.0563 61.3507 58.763 61.358C58.477 61.3727 58.1103 61.38 57.663 61.38C57.6483 61.27 57.6117 61.149 57.553 61.017C57.5017 60.8923 57.4503 60.7787 57.399 60.676C57.619 60.6833 57.828 60.687 58.026 60.687C58.2313 60.687 58.4073 60.687 58.554 60.687C58.708 60.687 58.8107 60.687 58.862 60.687C58.95 60.6797 59.0087 60.6613 59.038 60.632C59.0747 60.61 59.093 60.566 59.093 60.5V57.915ZM61.535 56.584H61.733L61.909 56.54L62.393 56.958C62.151 57.156 61.876 57.3503 61.568 57.541C61.2673 57.7243 60.9557 57.8967 60.633 58.058C60.3103 58.2193 59.995 58.3623 59.687 58.487C59.6357 58.4137 59.5697 58.333 59.489 58.245C59.4083 58.157 59.3387 58.091 59.28 58.047C59.5587 57.9443 59.8373 57.8197 60.116 57.673C60.402 57.5263 60.6697 57.3687 60.919 57.2C61.1683 57.0313 61.3737 56.8773 61.535 56.738V56.584ZM54.825 55.198H64.219V57.211H63.394V55.836H55.617V57.211H54.825V55.198ZM55.485 51.733L56.508 51.986C56.4787 52.0593 56.4053 52.1033 56.288 52.118L56.497 55.528H55.727L55.485 51.733ZM62.811 51.678H63.603C63.581 52.096 63.5553 52.5433 63.526 53.02C63.4967 53.4893 63.4637 53.9477 63.427 54.395C63.3903 54.8423 63.35 55.2273 63.306 55.55H62.514C62.5653 55.22 62.6093 54.8313 62.646 54.384C62.6827 53.9293 62.7157 53.4673 62.745 52.998C62.7743 52.5213 62.7963 52.0813 62.811 51.678ZM61.018 51.678H63.13V52.25H61.018V51.678ZM57.63 51.359L58.059 51.821C57.7583 51.953 57.4173 52.0703 57.036 52.173C56.662 52.2757 56.3247 52.36 56.024 52.426L55.65 51.986C55.8553 51.942 56.079 51.8833 56.321 51.81C56.563 51.7367 56.7977 51.6597 57.025 51.579C57.2597 51.491 57.4613 51.4177 57.63 51.359ZM55.958 52.844H57.971V53.416H55.958V52.844ZM56.013 54.021H58.015V54.582H56.013V54.021ZM61.062 52.844H63.031V53.416H61.062V52.844ZM61.007 54.021H62.965V54.582H61.007V54.021ZM60.017 51.37L60.589 51.546C60.3397 51.876 60.028 52.1913 59.654 52.492C59.28 52.7853 58.906 53.031 58.532 53.229C58.4807 53.1777 58.4073 53.1117 58.312 53.031C58.2167 52.943 58.1323 52.8733 58.059 52.822C58.433 52.646 58.796 52.4297 59.148 52.173C59.5073 51.9163 59.797 51.6487 60.017 51.37ZM58.367 51.832L58.774 51.48C58.994 51.5827 59.2213 51.7073 59.456 51.854C59.6907 51.9933 59.907 52.1363 60.105 52.283C60.3103 52.4297 60.4753 52.569 60.6 52.701L60.182 53.097C60.0573 52.965 59.8923 52.8257 59.687 52.679C59.489 52.525 59.2727 52.3747 59.038 52.228C58.8107 52.074 58.587 51.942 58.367 51.832ZM60.116 53.185L60.71 53.361C60.4533 53.7057 60.127 54.0357 59.731 54.351C59.3423 54.6663 58.9537 54.9303 58.565 55.143C58.5137 55.0843 58.4403 55.0147 58.345 54.934C58.2497 54.846 58.1617 54.7763 58.081 54.725C58.477 54.5417 58.8583 54.318 59.225 54.054C59.5917 53.7827 59.8887 53.493 60.116 53.185ZM58.444 53.702L58.862 53.35C59.082 53.46 59.3093 53.5883 59.544 53.735C59.7787 53.8817 59.9987 54.0357 60.204 54.197C60.4167 54.351 60.589 54.4977 60.721 54.637L60.27 55.033C60.1527 54.8937 59.9913 54.747 59.786 54.593C59.5807 54.4317 59.3607 54.274 59.126 54.12C58.8913 53.9587 58.664 53.8193 58.444 53.702ZM67.299 53.394H74.911V54.197H67.299V53.394ZM66.815 56.628H74.515V57.42H66.815V56.628ZM65.605 60.225H75.439V61.028H65.605V60.225ZM70.093 51.26H70.951V60.621H70.093V51.26ZM67.629 51.436L68.465 51.623C68.311 52.1877 68.124 52.7413 67.904 53.284C67.684 53.8193 67.442 54.3217 67.178 54.791C66.914 55.253 66.6317 55.66 66.331 56.012C66.2797 55.9607 66.2063 55.9057 66.111 55.847C66.023 55.7883 65.9313 55.7297 65.836 55.671C65.748 55.605 65.6673 55.5537 65.594 55.517C65.8947 55.1943 66.1697 54.8167 66.419 54.384C66.6757 53.944 66.9067 53.4747 67.112 52.976C67.3173 52.4773 67.4897 51.964 67.629 51.436ZM77.441 53.031H80.785V60.225H77.441V59.477H80.026V53.768H77.441V53.031ZM76.957 53.031H77.716V61.094H76.957V53.031ZM77.386 56.089H80.422V56.815H77.386V56.089ZM78.64 51.238L79.531 51.392C79.421 51.7367 79.3 52.085 79.168 52.437C79.0433 52.789 78.926 53.0897 78.816 53.339L78.145 53.174C78.211 52.9907 78.2733 52.7853 78.332 52.558C78.398 52.3307 78.4567 52.0997 78.508 51.865C78.5667 51.6303 78.6107 51.4213 78.64 51.238ZM82.358 52.998H85.735V53.757H82.358V52.998ZM85.438 52.998H86.219C86.219 52.998 86.219 53.0237 86.219 53.075C86.219 53.1263 86.219 53.1887 86.219 53.262C86.219 53.328 86.2153 53.3793 86.208 53.416C86.164 54.6773 86.12 55.7443 86.076 56.617C86.0393 57.4897 85.9917 58.2047 85.933 58.762C85.8743 59.312 85.8047 59.741 85.724 60.049C85.6507 60.357 85.559 60.577 85.449 60.709C85.3243 60.8703 85.1923 60.9803 85.053 61.039C84.921 61.105 84.756 61.149 84.558 61.171C84.3747 61.1857 84.1327 61.1893 83.832 61.182C83.5387 61.182 83.2343 61.171 82.919 61.149C82.9117 61.0317 82.8823 60.896 82.831 60.742C82.787 60.588 82.7247 60.4597 82.644 60.357C83.0107 60.3863 83.3407 60.4047 83.634 60.412C83.9347 60.4193 84.151 60.423 84.283 60.423C84.393 60.423 84.481 60.412 84.547 60.39C84.6203 60.3607 84.69 60.3093 84.756 60.236C84.844 60.1407 84.921 59.9463 84.987 59.653C85.0603 59.3523 85.1227 58.927 85.174 58.377C85.2253 57.827 85.273 57.1267 85.317 56.276C85.361 55.418 85.4013 54.384 85.438 53.174V52.998ZM82.578 51.216L83.37 51.392C83.238 51.942 83.0767 52.481 82.886 53.009C82.7027 53.5297 82.4973 54.021 82.27 54.483C82.05 54.945 81.8153 55.352 81.566 55.704C81.5147 55.66 81.445 55.6087 81.357 55.55C81.2763 55.484 81.192 55.4253 81.104 55.374C81.016 55.3153 80.939 55.2677 80.873 55.231C81.1297 54.901 81.3643 54.5233 81.577 54.098C81.7897 53.6653 81.9803 53.2033 82.149 52.712C82.3177 52.2207 82.4607 51.722 82.578 51.216ZM82.072 55.847L82.721 55.484C82.9263 55.7407 83.139 56.023 83.359 56.331C83.5863 56.639 83.7953 56.936 83.986 57.222C84.184 57.508 84.3417 57.761 84.459 57.981L83.755 58.421C83.645 58.1937 83.4947 57.9333 83.304 57.64C83.1207 57.3393 82.919 57.035 82.699 56.727C82.4863 56.4117 82.2773 56.1183 82.072 55.847ZM91.829 57.684H94.062V58.267H91.829V57.684ZM91.213 52.36H94.678V52.998H91.213V52.36ZM90.894 54.769H97.571V55.44H90.894V54.769ZM91.961 56.1H94.436V59.873H91.961V59.268H93.754V56.716H91.961V56.1ZM91.477 56.1H92.148V60.577H91.477V56.1ZM92.533 51.271H93.259V52.811H92.533V51.271ZM96.581 56.001L97.274 56.155C96.966 57.3137 96.526 58.333 95.954 59.213C95.382 60.0857 94.689 60.808 93.875 61.38C93.8457 61.336 93.8017 61.2773 93.743 61.204C93.6843 61.138 93.6183 61.0683 93.545 60.995C93.479 60.929 93.4203 60.874 93.369 60.83C94.1683 60.324 94.8357 59.6603 95.371 58.839C95.9063 58.0103 96.3097 57.0643 96.581 56.001ZM91.543 53.207L92.104 53.075C92.214 53.3097 92.302 53.5737 92.368 53.867C92.434 54.153 92.4743 54.4023 92.489 54.615L91.884 54.758C91.8767 54.5453 91.84 54.296 91.774 54.01C91.708 53.724 91.631 53.4563 91.543 53.207ZM95.855 51.964L96.416 51.667C96.658 51.9383 96.8853 52.2427 97.098 52.58C97.318 52.9173 97.4793 53.2143 97.582 53.471L96.977 53.801C96.8817 53.5443 96.7277 53.2437 96.515 52.899C96.3097 52.547 96.0897 52.2353 95.855 51.964ZM93.633 53.053L94.315 53.207C94.227 53.4637 94.139 53.735 94.051 54.021C93.963 54.307 93.8823 54.5453 93.809 54.736L93.259 54.604C93.325 54.384 93.3947 54.1273 93.468 53.834C93.5487 53.5333 93.6037 53.273 93.633 53.053ZM87.55 51.733H91.224V52.47H87.55V51.733ZM88.408 54.043H90.399V54.736H88.408V54.043ZM88.408 56.32H90.399V57.013H88.408V56.32ZM88.067 52.107H88.771V59.147H88.067V52.107ZM89.97 52.107H90.685V61.38H89.97V52.107ZM87.363 59.048C87.7517 58.9747 88.2063 58.8903 88.727 58.795C89.2477 58.6923 89.7867 58.5823 90.344 58.465L90.399 59.18C89.893 59.29 89.387 59.4 88.881 59.51C88.375 59.62 87.9167 59.7227 87.506 59.818L87.363 59.048ZM94.931 51.271H95.679C95.6717 52.2537 95.6827 53.196 95.712 54.098C95.7487 55 95.7927 55.8323 95.844 56.595C95.9027 57.3577 95.9723 58.0213 96.053 58.586C96.141 59.1507 96.24 59.5943 96.35 59.917C96.4673 60.2323 96.5957 60.3937 96.735 60.401C96.823 60.401 96.8963 60.258 96.955 59.972C97.021 59.6787 97.0687 59.2717 97.098 58.751C97.142 58.8097 97.2007 58.8683 97.274 58.927C97.3473 58.9857 97.4207 59.037 97.494 59.081C97.5673 59.125 97.626 59.1617 97.67 59.191C97.5967 59.763 97.5087 60.2067 97.406 60.522C97.3033 60.8373 97.1897 61.0537 97.065 61.171C96.9477 61.2957 96.8303 61.358 96.713 61.358C96.427 61.3507 96.1813 61.1783 95.976 60.841C95.778 60.511 95.613 60.0417 95.481 59.433C95.3563 58.8243 95.2537 58.102 95.173 57.266C95.0997 56.43 95.0447 55.506 95.008 54.494C94.9713 53.482 94.9457 52.4077 94.931 51.271ZM102.158 51.788H108.505V52.514H102.158V51.788ZM101.817 51.788H102.598V54.879C102.598 55.3557 102.583 55.8727 102.554 56.43C102.525 56.9873 102.462 57.5593 102.367 58.146C102.272 58.7327 102.132 59.3047 101.949 59.862C101.773 60.412 101.531 60.918 101.223 61.38C101.172 61.3433 101.102 61.2993 101.014 61.248C100.933 61.1967 100.849 61.1453 100.761 61.094C100.673 61.05 100.596 61.017 100.53 60.995C100.823 60.5477 101.054 60.0673 101.223 59.554C101.399 59.0333 101.527 58.5017 101.608 57.959C101.696 57.409 101.751 56.87 101.773 56.342C101.802 55.814 101.817 55.3263 101.817 54.879V51.788ZM102.818 55.935H108.428V56.639H102.818V55.935ZM103.269 53.867H108.043V54.549H103.269V53.867ZM105.216 52.778H105.986V56.199H105.216V52.778ZM102.301 60.335H108.56V61.039H102.301V60.335ZM102.994 58.036H108.241V58.729H102.994V58.036ZM105.216 56.892H105.986V60.665H105.216V56.892ZM98.979 51.953L99.452 51.359C99.672 51.4543 99.903 51.5717 100.145 51.711C100.387 51.843 100.611 51.9823 100.816 52.129C101.029 52.2683 101.201 52.4003 101.333 52.525L100.849 53.207C100.717 53.075 100.545 52.932 100.332 52.778C100.127 52.624 99.9067 52.4773 99.672 52.338C99.4373 52.1913 99.2063 52.063 98.979 51.953ZM98.418 54.923L98.88 54.307C99.1 54.395 99.331 54.5013 99.573 54.626C99.815 54.7507 100.042 54.8827 100.255 55.022C100.475 55.154 100.651 55.2823 100.783 55.407L100.31 56.078C100.178 55.9533 100.006 55.8213 99.793 55.682C99.5803 55.5427 99.353 55.407 99.111 55.275C98.8763 55.1357 98.6453 55.0183 98.418 54.923ZM98.66 60.753C98.8287 60.467 99.012 60.126 99.21 59.73C99.408 59.334 99.606 58.9123 99.804 58.465C100.002 58.0177 100.185 57.5887 100.354 57.178L101.025 57.64C100.878 58.0287 100.713 58.4357 100.53 58.861C100.347 59.279 100.16 59.6933 99.969 60.104C99.7783 60.5073 99.595 60.8813 99.419 61.226L98.66 60.753ZM113.499 51.876H119.428V52.613H113.499V51.876ZM113.807 57.519H119.153V58.267H113.807V57.519ZM113.103 60.335H119.571V61.072H113.103V60.335ZM116.029 57.816H116.854V60.786H116.029V57.816ZM114.555 52.954L115.27 53.152C115.131 53.4307 114.962 53.735 114.764 54.065C114.566 54.3877 114.375 54.6883 114.192 54.967C114.434 55.2897 114.665 55.627 114.885 55.979C115.105 56.331 115.274 56.6317 115.391 56.881L114.698 57.178C114.588 56.8847 114.416 56.54 114.181 56.144C113.946 55.748 113.686 55.3593 113.4 54.978C113.547 54.7507 113.693 54.516 113.84 54.274C113.987 54.032 114.122 53.7973 114.247 53.57C114.372 53.3353 114.474 53.13 114.555 52.954ZM116.469 52.954L117.184 53.152C117.037 53.4307 116.858 53.7313 116.645 54.054C116.44 54.3767 116.245 54.681 116.062 54.967C116.231 55.1797 116.396 55.4033 116.557 55.638C116.718 55.8653 116.865 56.089 116.997 56.309C117.136 56.5217 117.246 56.7087 117.327 56.87L116.656 57.178C116.531 56.8847 116.341 56.54 116.084 56.144C115.835 55.748 115.556 55.3593 115.248 54.978C115.409 54.758 115.567 54.527 115.721 54.285C115.875 54.0357 116.018 53.7973 116.15 53.57C116.282 53.3353 116.388 53.13 116.469 52.954ZM118.372 52.954L119.087 53.152C118.926 53.4307 118.739 53.7313 118.526 54.054C118.321 54.3767 118.123 54.681 117.932 54.967C118.108 55.1723 118.28 55.3923 118.449 55.627C118.618 55.8543 118.775 56.0743 118.922 56.287C119.069 56.4997 119.19 56.6903 119.285 56.859L118.614 57.178C118.475 56.8847 118.269 56.54 117.998 56.144C117.727 55.748 117.433 55.3593 117.118 54.978C117.279 54.758 117.437 54.527 117.591 54.285C117.752 54.0357 117.899 53.7973 118.031 53.57C118.17 53.3353 118.284 53.13 118.372 52.954ZM111.156 51.26L111.882 51.535C111.75 51.8063 111.603 52.0887 111.442 52.382C111.288 52.6753 111.13 52.9613 110.969 53.24C110.815 53.5113 110.668 53.7497 110.529 53.955L109.957 53.702C110.096 53.4893 110.239 53.24 110.386 52.954C110.54 52.668 110.683 52.3747 110.815 52.074C110.954 51.7733 111.068 51.502 111.156 51.26ZM112.388 52.514L113.081 52.844C112.832 53.2473 112.553 53.68 112.245 54.142C111.937 54.5967 111.625 55.0367 111.31 55.462C111.002 55.8873 110.709 56.2577 110.43 56.573L109.924 56.287C110.129 56.045 110.346 55.77 110.573 55.462C110.8 55.1467 111.024 54.8203 111.244 54.483C111.464 54.1383 111.673 53.7973 111.871 53.46C112.069 53.1227 112.241 52.8073 112.388 52.514ZM109.407 53.559L109.836 53.031C110.034 53.207 110.232 53.4013 110.43 53.614C110.635 53.8267 110.822 54.0357 110.991 54.241C111.16 54.4463 111.292 54.6333 111.387 54.802L110.925 55.418C110.83 55.242 110.698 55.044 110.529 54.824C110.368 54.604 110.188 54.384 109.99 54.164C109.792 53.944 109.598 53.7423 109.407 53.559ZM111.959 55.033L112.564 54.791C112.718 55.0257 112.865 55.2823 113.004 55.561C113.143 55.8397 113.268 56.111 113.378 56.375C113.495 56.6317 113.58 56.859 113.631 57.057L112.971 57.365C112.927 57.1523 112.85 56.914 112.74 56.65C112.637 56.3787 112.52 56.1037 112.388 55.825C112.256 55.539 112.113 55.275 111.959 55.033ZM109.308 56.122C109.785 56.1 110.349 56.0743 111.002 56.045C111.662 56.0083 112.337 55.9717 113.026 55.935V56.628C112.381 56.672 111.739 56.716 111.101 56.76C110.47 56.7967 109.906 56.8297 109.407 56.859L109.308 56.122ZM112.256 57.695L112.861 57.519C113 57.8343 113.125 58.179 113.235 58.553C113.345 58.9197 113.418 59.2387 113.455 59.51L112.806 59.719C112.784 59.4403 112.718 59.114 112.608 58.74C112.505 58.3587 112.388 58.0103 112.256 57.695ZM109.979 57.552L110.672 57.662C110.599 58.1827 110.496 58.696 110.364 59.202C110.239 59.7007 110.093 60.126 109.924 60.478C109.88 60.4487 109.818 60.4157 109.737 60.379C109.656 60.335 109.576 60.2947 109.495 60.258C109.414 60.2213 109.345 60.192 109.286 60.17C109.469 59.8327 109.616 59.433 109.726 58.971C109.836 58.5017 109.92 58.0287 109.979 57.552ZM111.145 56.452H111.871V61.38H111.145V56.452ZM126.072 53.9H129.097V54.549H126.072V53.9ZM125.698 55.814V57.211H126.71V55.814H125.698ZM125.115 55.242H127.326V57.783H125.115V55.242ZM128.47 55.814V57.211H129.548V55.814H128.47ZM127.876 55.242H130.164V57.783H127.876V55.242ZM125.94 58.08L126.644 58.135C126.541 58.8683 126.354 59.51 126.083 60.06C125.812 60.6027 125.441 61.0537 124.972 61.413C124.943 61.369 124.895 61.314 124.829 61.248C124.77 61.1893 124.704 61.127 124.631 61.061C124.565 61.0023 124.503 60.9583 124.444 60.929C124.884 60.621 125.221 60.2287 125.456 59.752C125.698 59.268 125.859 58.7107 125.94 58.08ZM125.808 59.499L126.27 59.081C126.497 59.2863 126.732 59.5137 126.974 59.763C127.223 60.005 127.414 60.214 127.546 60.39L127.073 60.885C126.941 60.6943 126.754 60.4707 126.512 60.214C126.27 59.95 126.035 59.7117 125.808 59.499ZM128.69 58.069L129.405 58.124C129.302 58.85 129.108 59.488 128.822 60.038C128.543 60.5807 128.173 61.028 127.711 61.38C127.682 61.3433 127.634 61.292 127.568 61.226C127.502 61.16 127.432 61.094 127.359 61.028C127.293 60.9693 127.231 60.9217 127.172 60.885C127.605 60.5843 127.942 60.1957 128.184 59.719C128.433 59.2423 128.602 58.6923 128.69 58.069ZM128.525 59.554L129.042 59.191C129.233 59.367 129.427 59.565 129.625 59.785C129.83 59.9977 130.021 60.2067 130.197 60.412C130.38 60.61 130.527 60.7897 130.637 60.951L130.087 61.38C129.984 61.2113 129.845 61.0207 129.669 60.808C129.493 60.5953 129.306 60.379 129.108 60.159C128.91 59.939 128.716 59.7373 128.525 59.554ZM127.524 52.03C127.341 52.36 127.11 52.6973 126.831 53.042C126.552 53.3867 126.241 53.713 125.896 54.021C125.559 54.3217 125.199 54.5893 124.818 54.824C124.781 54.7213 124.723 54.6077 124.642 54.483C124.561 54.351 124.484 54.241 124.411 54.153C124.792 53.9403 125.155 53.68 125.5 53.372C125.845 53.0567 126.156 52.7193 126.435 52.36C126.714 52.0007 126.941 51.645 127.117 51.293H127.876C128.103 51.667 128.371 52.0337 128.679 52.393C128.994 52.745 129.324 53.064 129.669 53.35C130.021 53.636 130.373 53.8743 130.725 54.065C130.652 54.153 130.571 54.2667 130.483 54.406C130.402 54.5453 130.336 54.67 130.285 54.78C129.94 54.5673 129.596 54.3107 129.251 54.01C128.906 53.7093 128.584 53.3903 128.283 53.053C127.982 52.7083 127.729 52.3673 127.524 52.03ZM121.342 53.394H124.4V54.043H121.342V53.394ZM121.342 55.044H124.411V55.693H121.342V55.044ZM120.924 56.716H124.279V57.376H120.924V56.716ZM122.574 52.085H123.245V57.057H122.574V52.085ZM122.915 57.981L123.278 57.849C123.425 58.069 123.557 58.3147 123.674 58.586C123.799 58.85 123.89 59.0773 123.949 59.268L123.542 59.433C123.491 59.2277 123.403 58.993 123.278 58.729C123.161 58.4577 123.04 58.2083 122.915 57.981ZM122.233 58.135L122.64 58.047C122.75 58.3257 122.845 58.6337 122.926 58.971C123.014 59.301 123.069 59.5833 123.091 59.818L122.673 59.917C122.651 59.6823 122.6 59.3963 122.519 59.059C122.438 58.7217 122.343 58.4137 122.233 58.135ZM121.562 58.256L121.991 58.201C122.042 58.5237 122.083 58.872 122.112 59.246C122.149 59.6127 122.163 59.928 122.156 60.192L121.694 60.258C121.709 59.9867 121.705 59.664 121.683 59.29C121.661 58.916 121.621 58.5713 121.562 58.256ZM120.847 58.047L121.353 58.146C121.338 58.4687 121.309 58.795 121.265 59.125C121.228 59.4477 121.173 59.752 121.1 60.038C121.034 60.324 120.931 60.5697 120.792 60.775L120.319 60.511C120.51 60.2323 120.638 59.8693 120.704 59.422C120.777 58.9673 120.825 58.509 120.847 58.047ZM120.924 51.7H124.609V52.382H121.606V57.09H120.924V51.7ZM124.015 56.716H124.697C124.697 56.716 124.697 56.7563 124.697 56.837C124.697 56.9177 124.693 56.9837 124.686 57.035C124.649 57.9517 124.613 58.6887 124.576 59.246C124.539 59.796 124.492 60.214 124.433 60.5C124.382 60.7787 124.312 60.973 124.224 61.083C124.143 61.1783 124.059 61.248 123.971 61.292C123.883 61.336 123.777 61.3617 123.652 61.369C123.549 61.3837 123.41 61.3873 123.234 61.38C123.065 61.38 122.886 61.38 122.695 61.38C122.688 61.2773 122.669 61.1637 122.64 61.039C122.611 60.9217 122.574 60.8153 122.53 60.72C122.706 60.742 122.867 60.753 123.014 60.753C123.168 60.7603 123.278 60.764 123.344 60.764C123.417 60.764 123.476 60.7567 123.52 60.742C123.564 60.7273 123.604 60.6943 123.641 60.643C123.7 60.5697 123.751 60.4047 123.795 60.148C123.839 59.884 123.879 59.488 123.916 58.96C123.953 58.4247 123.986 57.7207 124.015 56.848V56.716ZM133.057 55.418H139.36V56.221H133.057V55.418ZM139.074 55.418H139.932C139.932 55.418 139.932 55.4437 139.932 55.495C139.932 55.5463 139.932 55.605 139.932 55.671C139.932 55.7297 139.928 55.7773 139.921 55.814C139.877 56.672 139.833 57.4017 139.789 58.003C139.752 58.597 139.705 59.092 139.646 59.488C139.595 59.884 139.536 60.1957 139.47 60.423C139.404 60.6503 139.32 60.8153 139.217 60.918C139.107 61.0573 138.986 61.1527 138.854 61.204C138.722 61.2627 138.561 61.2993 138.37 61.314C138.187 61.3287 137.934 61.3323 137.611 61.325C137.296 61.325 136.966 61.314 136.621 61.292C136.614 61.1673 136.584 61.028 136.533 60.874C136.489 60.72 136.427 60.5843 136.346 60.467C136.705 60.4963 137.039 60.5147 137.347 60.522C137.655 60.5367 137.875 60.544 138.007 60.544C138.117 60.544 138.209 60.533 138.282 60.511C138.355 60.489 138.418 60.4523 138.469 60.401C138.579 60.2983 138.667 60.0783 138.733 59.741C138.806 59.3963 138.869 58.8903 138.92 58.223C138.979 57.5483 139.03 56.6683 139.074 55.583V55.418ZM134.564 51.48L135.444 51.733C135.173 52.349 134.854 52.9393 134.487 53.504C134.128 54.0687 133.732 54.5857 133.299 55.055C132.874 55.5243 132.43 55.935 131.968 56.287C131.917 56.2283 131.847 56.1587 131.759 56.078C131.671 55.9973 131.579 55.9167 131.484 55.836C131.396 55.7553 131.319 55.6893 131.253 55.638C131.722 55.33 132.166 54.9597 132.584 54.527C133.002 54.0943 133.38 53.6213 133.717 53.108C134.054 52.5873 134.337 52.0447 134.564 51.48ZM138.403 51.458C138.579 51.8247 138.795 52.2023 139.052 52.591C139.309 52.9723 139.587 53.3427 139.888 53.702C140.189 54.054 140.497 54.384 140.812 54.692C141.135 54.9927 141.446 55.2493 141.747 55.462C141.674 55.5207 141.589 55.594 141.494 55.682C141.406 55.7627 141.322 55.847 141.241 55.935C141.168 56.023 141.105 56.1073 141.054 56.188C140.746 55.9387 140.434 55.649 140.119 55.319C139.804 54.9817 139.492 54.6187 139.184 54.23C138.883 53.8413 138.597 53.438 138.326 53.02C138.062 52.602 137.824 52.1877 137.611 51.777L138.403 51.458ZM135.378 55.649H136.269C136.21 56.2503 136.115 56.837 135.983 57.409C135.851 57.981 135.649 58.52 135.378 59.026C135.107 59.532 134.729 59.9903 134.245 60.401C133.768 60.8117 133.145 61.1563 132.375 61.435C132.338 61.3617 132.291 61.2773 132.232 61.182C132.173 61.094 132.107 61.006 132.034 60.918C131.968 60.8373 131.902 60.7677 131.836 60.709C132.555 60.4743 133.134 60.1773 133.574 59.818C134.021 59.4513 134.366 59.0443 134.608 58.597C134.85 58.1497 135.026 57.6767 135.136 57.178C135.246 56.6793 135.327 56.1697 135.378 55.649ZM142.594 58.531H152.428V59.257H142.594V58.531ZM147.038 51.249H147.907V52.646H147.038V51.249ZM143.628 56.54H150.569V57.211H143.628V56.54ZM147.049 57.882H147.918V60.544C147.918 60.7713 147.878 60.94 147.797 61.05C147.724 61.1673 147.588 61.2517 147.39 61.303C147.199 61.3543 146.939 61.3837 146.609 61.391C146.286 61.3983 145.879 61.402 145.388 61.402C145.366 61.2993 145.326 61.1857 145.267 61.061C145.208 60.9363 145.15 60.8227 145.091 60.72C145.348 60.7273 145.593 60.731 145.828 60.731C146.063 60.7383 146.264 60.7383 146.433 60.731C146.609 60.731 146.73 60.731 146.796 60.731C146.891 60.7237 146.957 60.7053 146.994 60.676C147.031 60.6467 147.049 60.5953 147.049 60.522V57.882ZM150.393 56.54H150.613L150.8 56.496L151.35 56.958C151.02 57.1633 150.646 57.3577 150.228 57.541C149.817 57.7243 149.388 57.893 148.941 58.047C148.501 58.1937 148.065 58.322 147.632 58.432C147.581 58.3587 147.511 58.278 147.423 58.19C147.335 58.0947 147.262 58.0213 147.203 57.97C147.592 57.8747 147.984 57.7573 148.38 57.618C148.783 57.4713 149.161 57.321 149.513 57.167C149.865 57.0057 150.158 56.8517 150.393 56.705V56.54ZM144.915 54.263V55.253H150.107V54.263H144.915ZM144.09 53.647H150.976V55.869H144.09V53.647ZM142.704 52.217H152.285V52.932H142.704V52.217ZM154.155 51.997H162.823V52.822H154.155V51.997ZM153.572 56.672H163.439V57.497H153.572V56.672ZM154.914 53.57L155.662 53.35C155.809 53.614 155.952 53.8963 156.091 54.197C156.23 54.4977 156.355 54.7947 156.465 55.088C156.582 55.374 156.663 55.6233 156.707 55.836L155.926 56.111C155.875 55.891 155.794 55.638 155.684 55.352C155.581 55.0587 155.464 54.758 155.332 54.45C155.2 54.1347 155.061 53.8413 154.914 53.57ZM161.305 53.295L162.174 53.537C162.042 53.8377 161.895 54.1457 161.734 54.461C161.58 54.7763 161.426 55.0807 161.272 55.374C161.118 55.6673 160.968 55.924 160.821 56.144L160.106 55.913C160.245 55.6783 160.388 55.4107 160.535 55.11C160.689 54.802 160.832 54.4903 160.964 54.175C161.096 53.8523 161.21 53.559 161.305 53.295ZM158.049 52.316H158.907V61.369H158.049V52.316ZM166.376 60.093H172.569V60.885H166.376V60.093ZM165.991 56.683H173.009V61.358H172.129V57.475H166.838V61.38H165.991V56.683ZM168.202 51.216L169.115 51.535C168.895 51.9603 168.649 52.404 168.378 52.866C168.114 53.3207 167.846 53.7607 167.575 54.186C167.304 54.604 167.043 54.9743 166.794 55.297L166.068 54.989C166.317 54.6663 166.574 54.2887 166.838 53.856C167.102 53.416 167.351 52.965 167.586 52.503C167.828 52.041 168.033 51.612 168.202 51.216ZM170.853 52.998L171.502 52.525C171.876 52.8183 172.257 53.1483 172.646 53.515C173.035 53.8743 173.39 54.241 173.713 54.615C174.043 54.9817 174.303 55.3153 174.494 55.616L173.779 56.166C173.603 55.8653 173.354 55.528 173.031 55.154C172.716 54.78 172.367 54.406 171.986 54.032C171.605 53.6507 171.227 53.306 170.853 52.998ZM164.693 54.637C165.214 54.6223 165.808 54.604 166.475 54.582C167.142 54.5527 167.854 54.5233 168.609 54.494C169.372 54.4647 170.149 54.4317 170.941 54.395C171.74 54.3583 172.529 54.3253 173.306 54.296L173.262 55.088C172.492 55.132 171.715 55.1723 170.93 55.209C170.153 55.2383 169.39 55.2713 168.642 55.308C167.894 55.3447 167.19 55.3777 166.53 55.407C165.87 55.429 165.28 55.451 164.759 55.473L164.693 54.637Z" fill="black"/>
</svg>
